<?xml version="1.0" encoding="UTF-8" standalone="no"?>
<!-- Created with Inkscape (http://www.inkscape.org/) -->

<svg
   version="1.1"
   id="svg2"
   width="485.08856"
   height="484.79684"
   viewBox="0 0 485.08856 484.79684"
   xmlns="http://www.w3.org/2000/svg"
   xmlns:svg="http://www.w3.org/2000/svg">
  <defs
     id="defs6" />
  <g
     id="g8"
     transform="translate(-1.5273974,2.608686)">
    <path
       style="fill:#47657b;fill-opacity:1"
       d="m 210.29538,481.72268 c -0.37368,-0.37368 -0.67942,-9.82085 -0.67942,-20.9937 v -20.31429 l -2.75,-0.61466 c -28.52351,-6.37544 -50.27777,-15.00754 -71.26727,-28.2789 l -6.46003,-4.08459 -14.58638,14.47003 c -8.02252,7.95851 -15.205665,14.47002 -15.962565,14.47002 -1.75246,0 -47.77732,-45.80574 -48.58647,-48.35515 -0.46907,-1.47792 2.54632,-5.05867 13.5044,-16.03633 7.75958,-7.77345 14.09869,-14.57791 14.08692,-15.12103 -0.0118,-0.54312 -2.07849,-4.13749 -4.59272,-7.98749 -5.53851,-8.48105 -16.24923,-30.28637 -19.79226,-40.29393 -2.21008,-6.24253 -5.90734,-19.80948 -8.02736,-29.45607 l -0.60436,-2.75 h -20.28095 c -14.4407401,0 -20.6265101,-0.34556 -21.4809501,-1.2 -1.71809,-1.71809 -1.71809,-66.88191 0,-68.6 0.85385,-0.85385 7.0066,-1.2 21.3297001,-1.2 h 20.1297 l 1.76377,-8.25 c 4.78303,-22.37254 16.78399,-50.99792 28.64723,-68.33103 l 2.79317,-4.08103 -14.43178,-14.40603 c -7.93749,-7.92332 -14.43179,-15.090384 -14.43179,-15.926794 0,-1.91879 47.0143,-49.00512 48.93016,-49.00512 0.77817,0 7.769005,6.3 15.535205,14 7.76619,7.7 14.42338,14 14.79375,14 0.37037,0 3.45721,-1.799267 6.85965,-3.99837 19.43997,-12.564655 42.11482,-21.74563 70.07408,-28.372766 l 2.69286,-0.638282 0.30714,-20.533303 c 0.25324,-16.9292649 0.57043,-20.69946594 1.80715,-21.4799789 0.86324,-0.544807 15.37219,-0.953175 34.17857,-0.961987 28.38807,-0.0133 32.88489,0.191006 34.25,1.556116 1.32278,1.32277896 1.57143,4.705243 1.57143,21.3767259 v 19.805298 l 9.75,2.252602 c 21.75703,5.026659 44.45118,14.377258 62.75,25.854683 l 8,5.017777 14.51211,-14.439257 c 7.98166,-7.941592 15.1597,-14.439258 15.95121,-14.439258 2.31097,0 48.03668,46.12798 48.03668,48.45928 0,1.25744 -5.28583,7.310984 -14.05143,16.092244 l -14.05142,14.07654 6.20099,9.86614 c 11.24098,17.88507 21.05903,41.79258 25.56646,62.2558 l 1.81722,8.25 h 19.6773 c 10.82252,0 20.38911,0.27314 21.25909,0.60699 1.40044,0.5374 1.58179,4.5952 1.58179,35.39301 0,30.79781 -0.18135,34.85561 -1.58179,35.39301 -0.86998,0.33385 -10.31141,0.60699 -20.98095,0.60699 h -19.39916 l -0.60436,2.75 c -5.99172,27.26377 -15.46393,51.05829 -28.12003,70.63847 l -4.45252,6.88847 14.56941,14.68657 c 8.01317,8.07761 14.5694,15.09935 14.5694,15.60387 0,0.50452 -10.68398,11.60825 -23.74219,24.67496 -15.33309,15.34308 -24.45806,23.75766 -25.76339,23.75766 -1.26604,0 -7.20948,-5.19821 -15.90758,-13.91299 l -13.88637,-13.913 -8.0903,5.0703 c -19.12608,11.98657 -44.0408,22.37389 -63.91213,26.6459 l -8.19804,1.76245 -0.5,20.92367 -0.5,20.92367 -34.57058,0.26275 c -19.01382,0.14452 -34.87632,-0.043 -35.25,-0.41666 z m 64.09138,-26.12701 c 0.31457,-23.55852 -1.40647,-20.7236 14.7292,-24.26206 20.20125,-4.43 43.68869,-14.49856 62.99184,-27.00323 5.0549,-3.27458 9.59401,-5.95379 10.08693,-5.95379 0.49291,0 7.31656,6.40889 15.16365,14.24198 l 14.26744,14.24199 20.22112,-20.22113 20.22113,-20.22112 -14.22606,-14.34835 c -7.82433,-7.8916 -14.22605,-14.86207 -14.22605,-15.48994 0,-0.62787 2.29433,-4.64299 5.09851,-8.9225 6.90356,-10.53565 18.10853,-33.70898 21.80628,-45.09821 1.66377,-5.1245 4.20148,-14.56266 5.63936,-20.9737 1.43788,-6.41103 2.83023,-12.00576 3.0941,-12.43272 0.26388,-0.42697 9.67823,-0.7763 20.92077,-0.7763 h 20.44098 v -29 -29 h -20.44098 c -13.08466,0 -20.67251,-0.37462 -21.08433,-1.04094 -0.35383,-0.57252 -1.68801,-5.63502 -2.96484,-11.25 -5.16787,-22.7263 -15.50505,-47.43607 -27.07061,-64.70906 -3.13026,-4.675 -5.92405,-9.10486 -6.20842,-9.84413 -0.30818,-0.80118 5.29239,-7.16393 13.86492,-15.75178 L 431.09365,93.373026 411.11418,73.374804 c -10.98871,-10.99902 -20.4144,-19.998218 -20.94598,-19.998218 -0.53158,0 -7.38299,6.361786 -15.22535,14.137303 l -14.25884,14.137303 -2.78403,-1.83296 C 349.43839,74.247244 339.14031,68.162195 332.59839,64.867737 317.71395,57.372054 294.08642,49.424539 279.11596,46.878024 c -2.2,-0.374225 -4.5625,-1.145242 -5.25,-1.713369 -0.92343,-0.763094 -1.25,-6.226047 -1.25,-20.910514 V 4.3765861 h -29 -29 V 24.817569 c 0,11.242541 -0.34933,20.656884 -0.7763,20.920762 -0.42696,0.263879 -6.16446,1.68805 -12.75,3.164824 -22.86489,5.127342 -48.89083,16.261938 -65.4737,28.011405 -9.39129,6.654016 -7.40683,7.383693 -23.60985,-8.68122 l -14.431865,-14.308862 -20.22089,20.220894 -20.2209,20.220894 13.78966,13.816104 c 7.58432,7.59886 13.84544,14.68868 13.91362,15.75516 0.0682,1.06648 -2.37512,5.76406 -5.42953,10.43906 -13.37851,20.47677 -24.16747,47.75739 -28.27689,71.5 -0.38077,2.2 -1.15715,4.5625 -1.72528,5.25 -0.7631,0.92343 -6.22605,1.25 -20.91051,1.25 H 8.6159649 v 28.97971 28.97971 l 20.7500001,0.27029 20.75,0.27029 1.33092,6 c 6.05358,27.2906 14.83078,49.04239 28.20281,69.89264 3.28145,5.11658 5.96627,10.15305 5.96627,11.19217 0,1.0928 -5.79331,7.69372 -13.74175,15.65741 l -13.74176,13.7681 20.23683,20.23683 20.23682,20.23682 14.267435,-14.24199 c 7.84709,-7.83309 14.63861,-14.24198 15.09225,-14.24198 0.45365,0 5.17302,2.74051 10.48749,6.09002 19.5141,12.29899 44.9902,22.79909 65.41638,26.96168 5.60884,1.14301 10.77128,2.55407 11.4721,3.13569 0.95413,0.79186 1.2742,6.0545 1.2742,20.95039 v 19.89289 l 28.75,-0.26533 28.75,-0.26534 z m -42.7708,-43.81311 C 182.70389,407.64396 138.0246,383.50629 108.69723,345.37659 96.012345,328.88446 86.152265,309.78186 80.244055,290.25234 c -4.93439,-16.31061 -6.67746,-26.99627 -7.32022,-44.87575 -0.59957,-16.67805 0.86395,-30.79057 4.82219,-46.5 C 97.569645,120.2009 169.38537,65.800212 249.61596,68.684456 c 17.87948,0.642757 28.56514,2.385825 44.87575,7.320223 57.55789,17.412817 101.98128,64.047911 116.56833,122.371911 4.0686,16.26765 4.94048,23.77594 4.87715,42 -0.0817,23.50366 -2.64085,38.08102 -10.53349,60 -20.39215,56.63182 -72.87432,99.68148 -133.50346,109.50915 -9.07103,1.47037 -32.36281,2.56708 -40.28428,1.89682 z m 39.5,-8.34456 c 36.27618,-6.78583 65.63787,-22.02343 90.22953,-46.82569 31.63447,-31.90539 48.27047,-72.25638 48.27047,-117.08115 0,-55.68271 -28.78242,-107.80319 -76.61951,-138.746 C 306.81169,83.847881 277.10196,75.261741 244.61596,75.243107 198.80223,75.21683 158.5862,92.172506 126.51329,125.03694 c -13.77934,14.1194 -21.84995,25.36683 -30.435985,42.41642 -16.68876,33.13945 -21.16314,75.89215 -11.87057,113.42323 13.1188,52.98454 53.611975,96.81999 106.909225,115.73343 8.58095,3.0451 18.14679,5.35994 30,7.25972 10.34801,1.65854 40.20384,1.40074 50,-0.43174 z m -125.25,-59.72369 c -0.94745,-0.38231 -1.25,-5.8914 -1.25,-22.76109 0,-18.87806 0.29936,-23.42718 1.972,-29.96715 6.47396,-25.31294 28.50168,-45.11562 53.91937,-48.47292 l 6.39137,-0.84421 6.53802,5.92502 c 7.44589,6.74776 11.68885,9.15938 19.85884,11.28739 7.29022,1.89887 14.35058,1.89887 21.6408,0 8.2629,-2.15221 13.05715,-4.87877 20.10123,-11.43185 l 6.21317,-5.78009 6.92239,0.92746 c 20.49699,2.74621 40.01128,16.95798 49.37835,35.96104 5.94494,12.06054 7.02667,18.66622 7.0471,43.0335 0.0163,19.46631 -0.0992,20.7772 -1.9169,21.75 -1.96763,1.05304 -194.22741,1.41731 -196.81574,0.3729 z m 192.50099,-26.11264 c -0.49957,-17.9484 -0.79739,-20.51066 -3.22433,-27.7404 -3.5693,-10.63275 -8.2361,-18.04955 -15.80978,-25.12599 -7.75584,-7.24665 -16.18921,-11.81579 -26.72724,-14.48063 l -8.0853,-2.0446 -4.45714,4.10844 c -8.97462,8.27252 -19.36885,13.11179 -31.14504,14.50029 -12.54816,1.47951 -28.95357,-4.21625 -38.7036,-13.43742 l -5.37033,-5.07904 -7.1974,1.5007 c -20.98812,4.37615 -37.7077,19.97847 -44.55058,41.57357 -1.32759,4.18967 -1.85805,10.3244 -2.22655,25.75 l -0.48376,20.25 h 94.26572 94.26573 z M 235.11596,236.33749 c -18.83785,-3.86162 -34.52721,-18.49338 -39.45557,-36.7959 -1.59668,-5.92962 -1.36736,-20.68409 0.41129,-26.46159 7.44583,-24.18602 31.15127,-39.61055 55.1436,-35.88055 29.84515,4.63993 49.36744,33.849 41.86777,62.64218 -6.45059,24.76549 -33.15939,41.58125 -57.96709,36.49586 z m 20.5685,-7.57242 c 19.93471,-5.91462 32.06744,-21.76314 32.06744,-41.88848 0,-24.48031 -19.08763,-43.44043 -43.7806,-43.48813 -26.9394,-0.052 -47.49767,25.59684 -42.02529,52.43154 4.10143,20.11207 21.30773,34.33554 41.73845,34.50281 3.61267,0.0296 9.01267,-0.67141 12,-1.55774 z"
       id="path848" />
  </g>
</svg>
