<?xml version="1.0" encoding="UTF-8" standalone="no"?>
<!-- Created with Inkscape (http://www.inkscape.org/) -->

<svg
   width="492.74689"
   height="505.13431"
   viewBox="0 0 130.37261 133.65012"
   version="1.1"
   id="svg5"
   xml:space="preserve"
   inkscape:export-filename="calendar.svg"
   inkscape:export-xdpi="96"
   inkscape:export-ydpi="96"
   xmlns:inkscape="http://www.inkscape.org/namespaces/inkscape"
   xmlns:sodipodi="http://sodipodi.sourceforge.net/DTD/sodipodi-0.dtd"
   xmlns="http://www.w3.org/2000/svg"
   xmlns:svg="http://www.w3.org/2000/svg"><sodipodi:namedview
     id="namedview7"
     pagecolor="#ffffff"
     bordercolor="#000000"
     borderopacity="0.25"
     inkscape:showpageshadow="2"
     inkscape:pageopacity="0.0"
     inkscape:pagecheckerboard="0"
     inkscape:deskcolor="#d1d1d1"
     inkscape:document-units="px"
     showgrid="false" /><defs
     id="defs2" /><g
     inkscape:label="Capa 1"
     inkscape:groupmode="layer"
     id="layer1"
     transform="translate(-3.6527239,-0.67815468)"><path
       style="fill:#00afef;fill-opacity:1;stroke-width:0.504701"
       d="M 10.183732,133.57538 C 7.8208783,132.64154 5.6854848,130.41652 4.5557013,127.71116 3.7112461,125.68908 3.66749,123.08379 3.6574682,74.236395 3.6459635,17.805662 3.483262,20.930415 6.6053083,17.603159 9.2402598,14.79501 11.041532,14.254906 17.771849,14.254906 h 6.007058 v 5.412038 c 0,4.408596 0.186274,5.83865 1.004703,7.712971 2.154005,4.933017 8.183369,6.496047 12.142865,3.14787 2.674784,-2.261825 3.285528,-4.087129 3.533428,-10.560209 l 0.21878,-5.71267 h 28.458703 28.458703 v 5.632359 c 0,6.488 0.609594,8.492561 3.265621,10.738528 1.44618,1.22289 2.15744,1.431383 4.88302,1.431383 2.7256,0 3.43685,-0.208493 4.88301,-1.431383 2.65605,-2.245967 3.26564,-4.250528 3.26564,-10.738528 v -5.632359 h 6.13722 c 5.67631,0 6.32839,0.105625 8.68315,1.406551 1.81378,1.002037 2.94367,2.101769 3.92878,3.823918 l 1.38281,2.417366 V 73.89405 c 0,42.3918 -0.11926,52.30704 -0.64571,53.70133 -0.87754,2.3239 -4.15897,5.50169 -6.39052,6.18869 -1.24527,0.38336 -19.93383,0.55728 -58.392635,0.54344 -46.780775,-0.0169 -56.88137,-0.1469 -58.412743,-0.75213 z m 115.597098,-8.89326 c 0.43751,-0.48505 0.5752,-10.53375 0.5752,-41.981474 V 41.356869 H 68.836143 11.316263 v 40.953584 c 0,27.214097 0.166473,41.298437 0.496197,41.981477 0.486263,1.00731 1.626299,1.02789 56.944684,1.02789 43.265276,0 56.582816,-0.14893 57.023686,-0.6377 z M 20.78308,115.71185 c -0.730367,-0.47161 -0.83883,-1.42909 -0.83883,-7.4049 0,-6.24161 0.08398,-6.91306 0.927148,-7.41335 0.524676,-0.31131 4.151163,-0.55011 8.354073,-0.55011 6.112645,0 7.560226,0.14778 8.180161,0.83508 1.098925,1.21831 1.098925,13.05387 0,14.27218 -0.622057,0.68965 -2.061968,0.83226 -8.268479,0.81891 -4.207856,-0.009 -7.884401,-0.25453 -8.354073,-0.55781 z m 26.317736,-0.39784 c -0.6415,-0.78586 -0.793297,-2.14282 -0.793297,-7.09168 0,-8.231471 -0.421096,-7.87884 9.408693,-7.87884 5.315205,0 7.83139,0.19495 8.230743,0.6377 0.387298,0.42937 0.575195,2.85365 0.575195,7.42106 0,6.16264 -0.08488,6.83369 -0.927148,7.33347 -0.524063,0.31095 -4.138714,0.5501 -8.314025,0.5501 -6.547534,0 -7.477008,-0.11044 -8.180161,-0.97181 z m 26.888151,0.39784 c -0.730367,-0.47161 -0.838831,-1.42909 -0.838831,-7.4049 0,-6.24161 0.08398,-6.91306 0.927148,-7.41335 0.524677,-0.31131 4.151164,-0.55011 8.354086,-0.55011 6.112633,0 7.560213,0.14778 8.180161,0.83508 0.600058,0.66525 0.753236,2.11644 0.753236,7.13609 0,5.01965 -0.153178,6.47084 -0.753236,7.13609 -0.62207,0.68965 -2.061968,0.83226 -8.268491,0.81891 -4.207844,-0.009 -7.884402,-0.25453 -8.354073,-0.55781 z M 20.78308,90.735529 c -0.730367,-0.471617 -0.83883,-1.429098 -0.83883,-7.4049 0,-6.387353 0.06852,-6.903885 0.98802,-7.449468 0.639122,-0.379211 3.692447,-0.526555 8.646368,-0.417254 6.167727,0.136084 7.746615,0.324124 8.111939,0.96609 0.249498,0.438413 0.456927,3.589872 0.460953,7.003237 0.0064,4.941203 -0.146186,6.376327 -0.745898,7.041196 -0.622057,0.689655 -2.061968,0.832259 -8.268479,0.818915 -4.207856,-0.0091 -7.884401,-0.254535 -8.354073,-0.557816 z M 47.060767,90.47443 c -0.600172,-0.665369 -0.753248,-2.117152 -0.753248,-7.143913 0,-8.243109 -0.324802,-7.963342 9.245493,-7.963342 3.987785,0 7.522324,0.241775 8.04199,0.550105 0.843253,0.500334 0.927148,1.171831 0.927148,7.421059 0,6.24923 -0.08386,6.920727 -0.927148,7.421061 -0.524677,0.311306 -4.151164,0.550105 -8.354074,0.550105 -6.112645,0 -7.560225,-0.147774 -8.180161,-0.835075 z m 26.9282,0.261099 c -0.730367,-0.471617 -0.838831,-1.429098 -0.838831,-7.4049 0,-6.241609 0.08398,-6.913062 0.927148,-7.413349 0.524677,-0.311306 4.151164,-0.550105 8.354086,-0.550105 6.112633,0 7.560213,0.147774 8.180161,0.835075 0.600058,0.665252 0.753236,2.11644 0.753236,7.136089 0,5.019651 -0.153178,6.470839 -0.753236,7.136091 -0.62207,0.689655 -2.061968,0.832259 -8.268491,0.818915 -4.207844,-0.0091 -7.884402,-0.254535 -8.354073,-0.557816 z M 100.3067,90.337692 c -0.642315,-0.786865 -0.793282,-2.146453 -0.793282,-7.143918 0,-8.084961 -0.305206,-7.826599 9.245482,-7.826599 3.98779,0 7.52233,0.241775 8.04199,0.550105 0.84325,0.500334 0.92715,1.171831 0.92715,7.421059 0,6.24923 -0.0839,6.920727 -0.92715,7.421061 -0.52406,0.310939 -4.13871,0.550105 -8.31402,0.550105 -6.54754,0 -7.47701,-0.110419 -8.18017,-0.971813 z M 47.100816,65.361374 c -0.6415,-0.78586 -0.793297,-2.142824 -0.793297,-7.091685 0,-8.200529 -0.369786,-7.878833 9.056739,-7.878833 4.117903,0 7.707997,0.239948 8.230744,0.550106 0.843253,0.500334 0.927148,1.171831 0.927148,7.421059 0,6.24923 -0.08386,6.920725 -0.927148,7.421059 -0.524063,0.310941 -4.138714,0.550107 -8.314025,0.550107 -6.547534,0 -7.477008,-0.110419 -8.180161,-0.971813 z m 26.888151,0.397835 c -0.730367,-0.471615 -0.838831,-1.429096 -0.838831,-7.404898 0,-6.241609 0.08398,-6.913062 0.927148,-7.413349 0.524677,-0.311306 4.151164,-0.550106 8.354086,-0.550106 6.112633,0 7.560213,0.147775 8.180161,0.835075 0.600058,0.665252 0.753236,2.116441 0.753236,7.13609 0,5.019651 -0.153178,6.470838 -0.753236,7.136091 -0.62207,0.689654 -2.061968,0.832258 -8.268491,0.818915 -4.207844,-0.0091 -7.884402,-0.254536 -8.354073,-0.557818 z M 100.3067,65.361374 c -0.642315,-0.786865 -0.793282,-2.146454 -0.793282,-7.143918 0,-8.084961 -0.305206,-7.8266 9.245482,-7.8266 3.98779,0 7.52233,0.241776 8.04199,0.550106 0.84325,0.500334 0.92715,1.171831 0.92715,7.421059 0,6.24923 -0.0839,6.920725 -0.92715,7.421059 -0.52406,0.310941 -4.13871,0.550107 -8.31402,0.550107 -6.54754,0 -7.47701,-0.110419 -8.18017,-0.971813 z M 29.269444,26.23581 c -1.170382,-1.29754 -1.176543,-1.35979 -1.176543,-11.885083 0,-9.7479374 0.07491,-10.6862156 0.951077,-11.921185 0.523092,-0.737261 1.495607,-1.49198868 2.161126,-1.67717414 1.392345,-0.38742082 3.810984,0.80562304 4.259359,2.10100974 0.163762,0.4731281 0.297753,5.7255861 0.297753,11.6721274 V 25.3374 l -1.262982,1.101391 c -1.709452,1.490754 -3.774335,1.410611 -5.22979,-0.202981 z m 73.817186,0 c -1.17118,-1.298411 -1.17656,-1.353209 -1.17656,-11.991685 0,-5.9549919 0.20777,-11.1177059 0.46922,-11.659302 0.6391,-1.3239056 3.11711,-2.22497636 4.50733,-1.63898504 2.64127,1.11331264 2.69278,1.36400444 2.69278,13.10547504 0,10.84319 -0.004,10.884553 -1.17656,12.184497 -0.74162,0.822219 -1.72419,1.304373 -2.65811,1.304373 -0.93391,0 -1.91647,-0.482154 -2.6581,-1.304373 z"
       id="path1583" /></g></svg>
