<?xml version="1.0" encoding="UTF-8" standalone="no"?>
<!-- Created with Inkscape (http://www.inkscape.org/) -->

<svg
   width="499.14658"
   height="286.34454"
   viewBox="0 0 499.14658 286.34454"
   version="1.1"
   id="svg5"
   xml:space="preserve"
   sodipodi:docname="crossbar.svg"
   inkscape:export-filename="crossbar.svg"
   inkscape:export-xdpi="96"
   inkscape:export-ydpi="96"
   inkscape:version="1.2 (dc2aedaf03, 2022-05-15)"
   xmlns:inkscape="http://www.inkscape.org/namespaces/inkscape"
   xmlns:sodipodi="http://sodipodi.sourceforge.net/DTD/sodipodi-0.dtd"
   xmlns="http://www.w3.org/2000/svg"
   xmlns:svg="http://www.w3.org/2000/svg"><sodipodi:namedview
     id="namedview8"
     pagecolor="#ffffff"
     bordercolor="#000000"
     borderopacity="0.25"
     inkscape:showpageshadow="2"
     inkscape:pageopacity="0.0"
     inkscape:pagecheckerboard="0"
     inkscape:deskcolor="#d1d1d1"
     showgrid="false"
     inkscape:zoom="2.4241376"
     inkscape:cx="269.37414"
     inkscape:cy="146.85635"
     inkscape:window-width="1920"
     inkscape:window-height="1017"
     inkscape:window-x="-8"
     inkscape:window-y="-8"
     inkscape:window-maximized="1"
     inkscape:current-layer="layer1" /><defs
     id="defs2" /><g
     id="layer1"
     transform="translate(-5.1422324,-116.28246)"><path
       style="fill:#7dc343;fill-opacity:1;stroke:none;stroke-width:1.37341"
       d="m 148.70346,156.87004 c -17.90935,-18.95303 -37.9883,-35.77795 -62.563366,-39.08122 -46.665142,-6.27271 -85.46490579,37.64669 -80.5820236,92.24629 5.2159936,58.32362 53.5947236,99.76282 88.4017256,135.95191 13.544334,14.0823 26.612794,29.27534 39.703824,43.92524 4.64061,5.19148 10.50326,14.34763 17.88356,12.46327 9.20985,-2.34981 19.9569,-18.64482 26.53758,-26.24508 19.34695,-22.34496 38.28693,-45.28407 58.06836,-67.10175 27.37198,-30.19067 58.23926,-65.43596 55.11439,-113.3497 -1.33839,-20.54213 -6.95325,-41.04708 -19.54126,-56.06385 -33.64029,-40.134506 -95.97249,-24.64327 -123.02279,17.25489 z"
       id="path2968" /><g
       id="g251"
       transform="matrix(1.0098313,0,0,1,-2.4826905,0)"><path
         style="fill:#7dc343;fill-opacity:1;stroke-width:0.436549"
         d="m 356.96118,316.69769 c -1.61889,-1.17606 -0.59077,1.50559 -13.74386,-35.8484 -3.33916,-9.48301 -6.21417,-17.24229 -6.38885,-17.24273 -0.17483,-4e-4 -3.33752,4.60203 -7.02844,10.22785 -10.38646,15.83139 -11.55205,17.44591 -13.03665,18.05757 -2.17197,0.89489 -4.58648,0.69413 -6.28512,-0.52258 -1.40197,-1.00428 -1.7813,-1.97767 -6.03524,-15.48924 l -4.53925,-14.41767 -21.90351,-0.10124 c -21.03407,-0.0972 -21.95824,-0.13268 -23.28166,-0.88332 -2.92088,-1.65708 -2.91713,-5.33777 0.006,-6.99684 1.34524,-0.76318 2.10032,-0.78586 26.15447,-0.78586 26.40782,0 26.85585,0.0299 28.11132,1.89937 0.26694,0.39753 1.84469,5.08604 3.50628,10.41952 1.66158,5.33347 3.1812,9.84054 3.37691,10.0157 0.19579,0.17508 4.25444,-5.61139 9.01932,-12.859 5.01116,-7.62216 9.2685,-13.62917 10.09865,-14.249 2.5381,-1.89499 6.9296,-1.18927 8.38002,1.34664 0.40364,0.70601 3.78972,10.00578 7.52433,20.66625 3.7346,10.66042 6.90212,19.38406 7.03894,19.38585 0.13681,0.002 3.2951,-22.30995 7.01841,-49.58175 3.72329,-27.27175 7.02263,-50.45591 7.33187,-51.52029 0.44323,-1.5255 0.92471,-2.13081 2.27399,-2.85861 3.33154,-1.79709 7.82717,-0.15462 8.54195,3.12057 0.15432,0.70601 2.69461,15.22394 5.64564,32.26212 2.95106,17.03817 5.49714,31.636 5.65794,32.43973 l 0.29248,1.46121 h 15.65632 15.65624 l 1.66283,1.32488 c 1.36322,1.08614 1.66287,1.61977 1.66287,2.96148 0,1.34169 -0.29951,1.87533 -1.66287,2.96145 l -1.66283,1.32484 h -19.05686 c -18.70766,0 -19.0811,-0.015 -20.38196,-0.83045 -0.72887,-0.45687 -1.53868,-1.27796 -1.79964,-1.82481 -0.26093,-0.54686 -1.79492,-8.53929 -3.40885,-17.761 -2.54605,-14.5478 -3.37976,-18.65195 -3.37976,-16.63822 0,0.79276 -11.71307,86.23158 -12.02076,87.68342 -0.16539,0.77918 -0.96025,1.87553 -1.9075,2.63021 -2.16306,1.72342 -4.9097,1.80961 -7.09429,0.22245 z m 81.78568,-53.99809 c -3.148,-1.39292 -3.67028,-4.7764 -1.05856,-6.85728 l 1.50481,-1.199 h 10.9588 10.95882 l 1.59722,1.13705 c 1.41315,1.00602 1.59721,1.36893 1.59721,3.1493 0,1.78037 -0.18426,2.14328 -1.59721,3.1493 l -1.59722,1.137 -10.62962,-0.015 c -7.58168,-0.01 -10.94639,-0.15413 -11.73425,-0.50261 z m 35.95884,-0.62063 c -1.41313,-1.00602 -1.59724,-1.36893 -1.59724,-3.1493 0,-1.78037 0.18427,-2.14328 1.59724,-3.1493 l 1.59719,-1.13705 h 11.28771 c 10.53521,0 11.38009,0.0524 12.67298,0.78592 0.76187,0.43243 1.63826,1.39666 1.94745,2.14317 0.73804,1.78177 -0.0674,3.79117 -1.94745,4.8577 -1.29289,0.7335 -2.13777,0.78586 -12.67298,0.78586 h -11.28771 z"
         id="path530904" /><rect
         style="fill:#7dc343;fill-opacity:1;stroke-width:0.886794;stroke-dasharray:none"
         id="rect2982"
         width="105.24487"
         height="8.6815434"
         x="399.04395"
         y="254.56407"
         ry="2.8938439" /></g></g></svg>
