<?xml version="1.0" encoding="UTF-8" standalone="no"?>
<!-- Created with Inkscape (http://www.inkscape.org/) -->

<svg
   version="1.1"
   id="svg2"
   width="374.55542"
   height="374.94495"
   viewBox="0 0 374.55542 374.94495"
   sodipodi:docname="2.png"
   xmlns:inkscape="http://www.inkscape.org/namespaces/inkscape"
   xmlns:sodipodi="http://sodipodi.sourceforge.net/DTD/sodipodi-0.dtd"
   xmlns="http://www.w3.org/2000/svg"
   xmlns:svg="http://www.w3.org/2000/svg">
  <defs
     id="defs6" />
  <sodipodi:namedview
     id="namedview4"
     pagecolor="#ffffff"
     bordercolor="#000000"
     borderopacity="0.25"
     inkscape:showpageshadow="2"
     inkscape:pageopacity="0.0"
     inkscape:pagecheckerboard="0"
     inkscape:deskcolor="#d1d1d1"
     showgrid="false" />
  <g
     inkscape:groupmode="layer"
     inkscape:label="Image"
     id="g8"
     transform="translate(-70.771133,-62.654636)">
    <path
       style="fill:#47657b;fill-opacity:1;stroke-width:0.740357"
       d="m 413.63129,436.64026 c -1.56144,-0.5964 -4.3933,-2.23727 -6.29303,-3.64639 -1.89973,-1.40911 -27.64444,-26.82029 -57.21047,-56.46928 -42.68923,-42.80901 -54.12089,-54.66936 -55.52677,-57.60904 -1.48288,-3.10069 -1.77035,-4.84384 -1.77035,-10.73517 0,-6.32937 0.20688,-7.40026 2.06677,-10.69842 l 2.06677,-3.66503 -5.49115,-5.49116 -5.49115,-5.49115 -7.68098,6.22121 c -21.96825,17.79319 -46.69299,27.18005 -75.05345,28.49437 -26.78649,1.2414 -53.78602,-6.25829 -75.99514,-21.10923 -28.65797,-19.16319 -47.209056,-46.79563 -54.8056,-81.6347 -1.46926,-6.73827 -1.675605,-9.7816 -1.675605,-24.71282 0,-19.04546 0.892011,-25.10175 5.942978,-40.34945 13.915201,-42.00685 49.719607,-74.372418 92.847127,-83.929622 23.54247,-5.217089 47.12823,-3.964983 69.54078,3.691737 48.37372,16.525744 82.3716,60.690535 85.83533,111.503965 2.30369,33.79554 -8.56215,66.94819 -30.15427,92.00334 l -4.46618,5.1825 5.47434,5.50711 5.47434,5.50711 4.29666,-2.16401 c 3.6729,-1.84986 5.15872,-2.16567 10.23507,-2.1755 11.28284,-0.0218 8.02772,-2.78703 70.76093,60.11051 44.06279,44.17822 55.58489,56.1221 56.98925,59.07546 1.41794,2.98192 1.7638,4.92556 1.77848,9.99482 0.0156,5.40481 -0.27225,6.88454 -2.0398,10.48385 -2.2774,4.63754 -6.20862,8.58195 -11.04994,11.08705 -4.06818,2.10503 -14.29398,2.66452 -18.60494,1.01794 z m 15.45372,-6.21101 c 8.8582,-4.02376 13.03264,-15.47708 8.76351,-24.04421 C 436.1817,403.04014 327.543,294.3667 323.92566,292.42576 c -4.0939,-2.19665 -11.42747,-2.19862 -15.59799,-0.004 -3.8598,2.03093 -8.03049,6.65049 -9.19792,10.18782 -1.15048,3.48599 -0.66754,10.32283 0.96986,13.73 0.72804,1.51492 24.58041,25.88281 56.96071,58.19178 43.00081,42.90608 56.29926,55.76249 58.29943,56.36155 4.17893,1.25164 10.41293,1.04112 13.72526,-0.46347 z M 209.54052,311.12774 c 20.74045,-2.14901 38.68061,-8.57998 56.00857,-20.07727 10.74779,-7.13128 26.02865,-22.36524 32.94528,-32.84419 9.14128,-13.84936 14.90946,-27.46517 18.53804,-43.75913 1.41267,-6.34357 1.63334,-9.55838 1.6462,-23.98352 0.013,-14.59778 -0.19359,-17.61949 -1.67051,-24.43178 C 308.94558,128.84341 286.01211,98.890952 252.36938,81.609864 225.0192,67.561034 189.93977,64.873777 160.36469,74.561853 118.01855,88.433417 87.218949,123.12973 78.331453,166.97376 c -1.44839,7.14527 -1.678767,10.49578 -1.640565,23.86004 0.04864,17.02531 1.019042,23.65057 5.449923,37.20959 10.444349,31.96095 35.869649,59.94645 66.793119,73.51884 18.85587,8.2759 40.33503,11.66594 60.60659,9.56551 z m -20.81685,-16.288 C 135.97185,289.97319 95.575417,248.08139 92.808096,195.3736 90.368672,148.91114 119.79809,105.53534 163.63838,90.977371 c 11.86785,-3.940933 17.74422,-4.976162 30.72482,-5.412734 9.9129,-0.333397 13.29532,-0.147718 20.73,1.137977 43.82669,7.579048 76.57449,39.470686 86.02031,83.771376 2.01696,9.45948 1.84059,31.08085 -0.33344,40.87782 -7.29714,32.88357 -28.01344,59.33719 -57.55331,73.49255 -16.54146,7.92658 -36.75185,11.63299 -54.50309,9.99538 z m 26.05397,-7.10456 c 13.20732,-2.26327 26.53503,-7.58928 38.07376,-15.21497 7.50634,-4.96078 21.98054,-19.28161 26.81987,-26.53569 7.43523,-11.14532 12.16313,-22.274 15.12062,-35.59139 2.20871,-9.9457 2.4022,-28.53475 0.40148,-38.57334 -4.8856,-24.51357 -18.38259,-46.06301 -38.21484,-61.01422 -7.76947,-5.85729 -21.8277,-12.93603 -30.77998,-15.498653 -21.50389,-6.155567 -45.26932,-5.092295 -65.15141,2.914893 -31.6881,12.76187 -54.08743,40.09116 -60.81199,74.19636 -1.912587,9.70013 -1.74172,27.14071 0.36311,37.06405 4.21968,19.89391 12.21838,35.02424 26.17655,49.51552 14.85348,15.42078 32.54793,24.82574 54.26197,28.84132 7.52467,1.39154 25.33432,1.33671 33.74086,-0.10388 z m -83.15969,-30.69873 c -1.21514,-0.70776 -1.29563,-4.10051 -1.29563,-54.61583 0,-40.9049 0.21371,-54.07491 0.88843,-54.74962 1.2454,-1.2454 24.37095,-1.2454 25.61635,0 0.67472,0.67471 0.88843,13.84711 0.88843,54.76036 0,52.50388 -0.0363,53.8914 -1.43204,54.63834 -1.85459,0.99254 -22.95319,0.9641 -24.66554,-0.0332 z m 20.17472,-54.72711 v -49.60392 h -7.77374 -7.77375 v 49.60392 49.60391 h 7.77375 7.77374 z m 14.95522,54.63834 c -1.11415,-1.11415 -1.27412,-89.89836 -0.16515,-91.65619 1.08411,-1.7184 23.07366,-2.06697 25.60871,-0.40595 l 1.80157,1.18044 v 44.99663 c 0,34.01025 -0.21691,45.21356 -0.88843,45.88507 -1.24696,1.24696 -25.10974,1.24696 -26.3567,0 z m 21.32228,-45.75406 v -40.71963 h -8.14393 -8.14392 v 40.71963 40.71963 h 8.14392 8.14393 z m 14.80714,45.91822 c -0.95366,-0.60249 -1.13991,-5.19949 -1.31842,-32.54158 -0.20342,-31.15576 -0.17558,-31.87228 1.29562,-33.34348 1.37805,-1.37805 2.43428,-1.50351 12.65754,-1.50351 6.27293,0 11.7807,0.33538 12.58606,0.7664 1.38233,0.7398 1.43205,1.89122 1.43205,33.16799 0,24.21409 -0.2245,32.62609 -0.88843,33.29002 -1.08825,1.08824 -24.06994,1.23467 -25.76442,0.16416 z m 20.72999,-32.96197 v -27.76339 h -7.77375 -7.77375 v 27.76339 27.76338 h 7.77375 7.77375 z m 14.56036,33.19266 c -0.27147,-0.27146 -0.49358,-9.20016 -0.49358,-19.84156 0,-14.0613 0.24276,-19.59075 0.88843,-20.23642 0.61807,-0.61808 4.54798,-0.88843 12.91427,-0.88843 11.58787,0 12.0678,0.0599 13.17835,1.64545 0.96489,1.37757 1.15252,4.5193 1.15252,19.29795 0,10.7525 -0.29958,18.21226 -0.76641,19.08454 -0.71238,1.33109 -1.66922,1.43205 -13.57321,1.43205 -7.04374,0 -13.02891,-0.22211 -13.30037,-0.49358 z m 20.97677,-20.23642 v -14.80714 h -7.77374 -7.77375 v 14.80714 14.80714 h 7.77375 7.77374 z m -10.70682,-24.81873 c -1.6132,-0.56488 -3.52163,-1.79167 -4.24095,-2.72621 -1.48339,-1.92719 -2.45093,-5.95881 -1.82285,-7.59556 0.37685,-0.98206 -3.06652,-3.89952 -20.66179,-17.50611 -0.43162,-0.33377 -1.97867,-0.24043 -3.43791,0.20742 -3.5392,1.08621 -6.23324,0.30121 -9.22144,-2.687 -2.13675,-2.13675 -2.47358,-2.97149 -2.47358,-6.13012 v -3.65654 l -9.76981,-8.07812 c -13.00643,-10.75429 -11.64042,-9.93695 -15.07513,-9.02017 -2.5026,0.66798 -3.37997,0.55538 -5.97071,-0.76632 -2.91582,-1.48754 -5.46184,-5.10616 -5.46184,-7.76284 0,-0.72258 -3.29121,-2.42422 -9.53439,-4.92952 l -9.53437,-3.82602 -2.49643,1.52195 c -3.25689,1.98558 -6.49028,1.93148 -9.59462,-0.16054 -3.35842,-2.26323 -4.50679,-4.6561 -4.11859,-8.58193 0.23522,-2.37887 0.93381,-3.85036 2.63613,-5.55268 2.02429,-2.02428 2.82124,-2.3161 6.32522,-2.3161 3.40509,0 4.34312,0.32 6.22605,2.12397 1.21933,1.16818 2.49681,3.30734 2.83887,4.75367 0.60328,2.55097 0.9079,2.74646 10.17429,6.52927 l 9.5524,3.89955 1.82399,-1.43475 c 1.24826,-0.98188 2.98429,-1.43475 5.49997,-1.43475 3.19338,0 4.00645,0.33047 6.19319,2.51721 2.40514,2.40514 2.89434,3.99087 2.55994,8.29806 -0.0906,1.16746 2.56907,3.81077 10.55394,10.48887 l 10.67511,8.92809 4.35634,-0.38774 c 3.72091,-0.33117 4.65547,-0.15072 6.40711,1.23711 2.83017,2.24236 4.4746,5.69056 4.03311,8.457 -0.34958,2.19047 0.0755,2.63452 9.63592,10.06531 5.5009,4.27556 10.40913,8.01111 10.90718,8.30121 0.49805,0.2901 2.08337,0.20225 3.52293,-0.19523 8.02297,-2.21526 14.606,6.70609 10.23639,13.87239 -2.36527,3.87912 -6.18967,5.1418 -10.74367,3.54717 z m 5.81604,-7.20171 c 1.05402,-1.68335 -0.19619,-3.79536 -2.44406,-4.12879 -3.08031,-0.45691 -4.97049,2.81776 -2.85026,4.93799 1.24772,1.24772 4.29835,0.78146 5.29432,-0.8092 z m -36.1963,-27.21112 c 2.72641,-3.01266 -1.79143,-7.16661 -4.66698,-4.29106 -1.30921,1.30921 -1.08006,4.10887 0.4072,4.97512 1.90271,1.10823 2.76277,0.97011 4.25978,-0.68406 z m -36.60172,-28.89696 c 1.60074,-0.85669 1.90374,-3.64825 0.54361,-5.00838 -1.37651,-1.37651 -4.15575,-1.04954 -5.03443,0.59229 -1.09379,2.04377 0.24939,4.48004 2.82501,5.12404 0.12857,0.0321 0.87819,-0.28642 1.66581,-0.70795 z m -35.26852,-15.20415 c 2.23619,-2.23618 0.94957,-5.49979 -2.16818,-5.49979 -3.11777,0 -4.40438,3.26361 -2.16819,5.49979 0.63987,0.63988 1.61556,1.16342 2.16819,1.16342 0.55262,0 1.52831,-0.52354 2.16818,-1.16342 z"
       id="path848" />
  </g>
</svg>
