<?xml version="1.0" encoding="UTF-8" standalone="no"?>
<!-- Created with Inkscape (http://www.inkscape.org/) -->

<svg
   version="1.1"
   id="svg328"
   width="426.22372"
   height="424.8107"
   viewBox="0 0 426.22372 424.8107"
   sodipodi:docname="Diseño sin título.jpg"
   xmlns:inkscape="http://www.inkscape.org/namespaces/inkscape"
   xmlns:sodipodi="http://sodipodi.sourceforge.net/DTD/sodipodi-0.dtd"
   xmlns="http://www.w3.org/2000/svg"
   xmlns:svg="http://www.w3.org/2000/svg">
  <defs
     id="defs332" />
  <sodipodi:namedview
     id="namedview330"
     pagecolor="#ffffff"
     bordercolor="#000000"
     borderopacity="0.25"
     inkscape:showpageshadow="2"
     inkscape:pageopacity="0.0"
     inkscape:pagecheckerboard="0"
     inkscape:deskcolor="#d1d1d1"
     showgrid="false" />
  <g
     inkscape:groupmode="layer"
     inkscape:label="Image"
     id="g334"
     transform="translate(-39.290039,-43.895184)">
    <path
       style="fill:#47657b;fill-opacity:1;stroke-width:0.838923"
       d="m 260.82468,468.40979 -153.10349,-0.41947 -4.90746,-2.48653 C 97.954035,463.04144 91.529796,456.85011 89.240031,452.42219 88.215278,450.44054 83.626368,434.65985 69.859764,385.77585 67.780711,378.39333 63.298143,362.53768 59.898499,350.54108 37.086733,270.04335 37.941051,273.74042 40.65183,267.251 c 1.662536,-3.97998 4.925662,-7.41099 9.183659,-9.65614 2.637499,-1.39071 5.285829,-1.84299 12.374117,-2.11329 l 9.018425,-0.34389 v -11.90379 c 0,-8.13995 0.318304,-12.22211 1.006708,-12.91051 0.700551,-0.70055 5.160485,-1.00671 14.665166,-1.00671 16.105925,0 14.440195,-1.69333 14.744355,14.9887 l 0.20447,11.21353 3.61212,0.32426 c 6.07024,0.54493 13.25292,5.44581 15.22179,10.38613 0.45972,1.15352 1.26576,3.22986 1.79121,4.61408 0.90784,2.39153 1.07268,2.04621 3.31283,-6.93946 2.84692,-11.41966 5.71143,-15.93985 12.55521,-19.81215 l 4.61408,-2.6107 39.63912,-0.24086 c 31.75492,-0.19295 39.63912,-0.45686 39.63912,-1.32685 0,-0.5973 -1.69882,-9.14096 -3.77516,-18.98591 -3.84077,-18.21106 -4.28903,-21.39539 -3.11408,-22.12155 0.89613,-0.55383 60.83843,-13.11322 62.58562,-13.11322 0.7625,0 1.75703,0.84941 2.21007,1.88757 0.45304,1.03817 3.21513,13.4018 6.13799,27.47474 l 5.31426,25.58716 78.78502,0.41946 78.785,0.41946 3.46849,1.85518 c 7.84266,4.19476 12.86787,12.17683 12.88232,20.46233 0.004,2.58507 -1.28698,10.32413 -2.86999,17.19793 -3.37032,14.63479 -11.43981,49.81654 -19.70334,85.90358 -3.22253,14.07293 -9.66913,42.19783 -14.32575,62.49978 -4.65662,20.30194 -8.96312,37.41188 -9.57001,38.02208 -0.60688,0.61021 -2.00637,1.17649 -3.10996,1.25839 -1.10359,0.0819 -70.9031,-0.0399 -155.11001,-0.27054 z m 151.8451,-6.53491 c 0,-0.6238 -1.75238,-6.90063 -15.50724,-55.54541 -3.06601,-10.84308 -10.10515,-35.7591 -15.64254,-55.36893 -12.72313,-45.05707 -12.92612,-45.6954 -15.91038,-50.03286 -2.97007,-4.31687 -8.78018,-8.49289 -14.0031,-10.06476 -3.12736,-0.94119 -23.74352,-1.14378 -116.39961,-1.14378 -89.06052,0 -112.77923,-0.21922 -113.46067,-1.04865 -0.47385,-0.57676 -2.0667,-5.19438 -3.53965,-10.26138 -1.47295,-5.067 -3.42633,-10.26353 -4.34085,-11.54786 -3.35812,-4.71604 -4.11362,-4.82657 -32.990092,-4.82657 -28.607718,0 -29.450022,0.11678 -32.952023,4.56887 -0.902304,1.14709 -1.785044,1.94404 -1.961654,1.771 -0.176602,-0.17303 -0.422171,1.46291 -0.545703,3.63544 -0.224806,3.95353 1.18659,9.21818 24.426843,91.11493 6.814028,24.01209 15.254359,53.9141 20.838374,73.82525 3.26399,11.63851 5.558269,16.21558 10.059355,20.06835 6.74125,5.77026 -4.334249,5.39591 161.55195,5.46037 82.70734,0.0321 150.37699,-0.23966 150.37699,-0.60401 z M 189.4145,449.39452 c -5.46638,-1.82505 -11.54325,-6.66889 -15.11145,-12.04526 -2.7097,-4.08283 -11.90782,-30.02751 -19.68134,-55.51421 -1.82575,-5.98604 -0.99686,-7.38466 4.37651,-7.38466 2.01985,0 3.67244,-0.29587 3.67244,-0.65748 0,-0.36161 -1.58294,-6.30747 -3.51765,-13.21304 -5.89396,-21.0374 -4.8586,-32.72731 3.84963,-43.46457 4.13831,-5.10255 9.59031,-8.96252 16.24714,-11.50285 3.88411,-1.48223 6.67605,-1.85018 14.46104,-1.90584 16.949,-0.12118 28.42564,4.35706 38.68893,15.09662 7.30888,7.64805 9.94416,13.38988 7.34045,15.99359 -1.32078,1.32078 -0.27312,3.57987 1.66019,3.57987 2.46571,0 3.10853,1.32032 6.02234,12.36959 2.20274,8.35288 2.51307,10.50825 1.66078,11.53519 -0.82908,0.99899 -3.17433,1.26023 -11.22221,1.25007 -5.59575,-0.007 -10.65398,-0.31742 -11.24051,-0.68969 -0.58654,-0.37226 -2.13614,-4.66418 -3.44356,-9.53761 -3.06435,-11.42239 -5.24646,-15.82015 -9.86851,-19.88863 -4.56909,-4.02188 -9.88926,-5.94492 -16.4468,-5.94492 -5.38696,0 -7.36481,0.73587 -10.98604,4.08739 -3.48108,3.22182 -4.74891,6.18498 -4.74891,11.09912 0,3.64725 3.41252,18.1792 6.82569,29.06669 l 0.85474,2.7265 h 35.00937 c 26.73098,0 35.32737,0.24797 36.35419,1.04865 1.18931,0.92739 7.3651,18.84047 7.3651,21.36269 0,1.82746 -2.08176,2.30682 -8.90543,2.05064 l -6.80812,-0.2556 -0.60101,7.68277 c -0.33056,4.22552 -0.36579,7.918 -0.0783,8.20549 0.2875,0.2875 5.13167,0.78135 10.76483,1.09745 5.63316,0.3161 10.89249,0.84029 11.6874,1.16486 2.97485,1.21465 3.11191,14.10103 0.21395,20.11501 -2.22627,4.62006 -7.29299,9.44584 -12.42743,11.83646 l -4.33243,2.0172 -31.87908,-0.0435 c -26.41157,-0.0361 -32.544,-0.26557 -35.75594,-1.33793 z m 27.27094,-12.65409 c -1.07798,-4.49872 -2.16527,-9.02891 -2.4162,-10.06707 -0.25093,-1.03817 -0.94119,-1.88758 -1.53392,-1.88758 -0.59272,0 -3.06241,-0.98903 -5.48819,-2.19785 -3.00885,-1.49938 -4.26399,-2.57966 -3.94947,-3.39926 0.25356,-0.66078 0.1039,-0.98071 -0.33257,-0.71096 -1.331,0.82261 -3.38181,-4.28007 -3.38181,-8.41437 0,-6.82882 3.46415,-11.62487 10.05643,-13.92295 4.00067,-1.39464 9.68697,-0.16983 13.09221,2.82001 3.90639,3.42986 5.37475,6.47441 5.37475,11.14422 0,4.66683 -1.54155,7.86763 -5.31712,11.04023 l -2.83535,2.38254 1.96803,8.8087 c 1.08241,4.84478 2.16888,9.6581 2.41437,10.69627 0.44245,1.87111 0.57819,1.88758 15.55792,1.88758 16.75689,0 19.16133,-0.52565 24.17856,-5.28579 3.71304,-3.52277 5.93852,-8.47426 5.96133,-13.2634 l 0.0185,-3.86803 -4.40434,-0.52903 c -5.44764,-0.65433 -22.02048,-0.53292 -25.23108,0.18484 -1.83348,0.40991 -2.87863,1.57508 -4.61408,5.14402 -2.35473,4.84249 -4.80438,6.2493 -6.76601,3.88566 -0.8244,-0.99333 -0.4084,-2.48826 2.17071,-7.80052 l 3.19053,-6.57168 5.24327,-0.74627 5.24327,-0.74625 v -9.58571 c 0,-5.27213 0.3908,-10.31591 0.86844,-11.20839 0.74728,-1.39629 1.80293,-1.62269 7.5663,-1.62269 h 6.69784 l -0.54686,-2.17886 c -0.30077,-1.19838 -1.17523,-3.93537 -1.94326,-6.0822 l -1.39641,-3.90333 -47.56918,-0.21666 c -30.35686,-0.13826 -47.56919,0.0781 -47.56919,0.59798 0,1.61539 15.34804,47.5073 16.84687,50.37353 1.86652,3.5694 5.42869,7.58203 8.5084,9.58437 4.38616,2.85176 9.2061,3.72492 20.8787,3.78228 l 11.41864,0.0561 z m 2.46821,-20.38023 c 6.07246,-4.77661 2.07885,-14.56092 -5.94325,-14.56092 -3.96296,0 -7.75466,4.09899 -7.75466,8.38311 0,6.57164 8.38794,10.35463 13.69791,6.17781 z m -37.18776,-42.38901 c 0,-0.26354 -1.74085,-6.95914 -3.86856,-14.87909 -3.02139,-11.24649 -3.76608,-15.26525 -3.40056,-18.35148 0.86854,-7.3335 5.01656,-13.44402 11.57259,-17.04776 3.92809,-2.15921 5.36499,-2.47698 11.21661,-2.48062 5.83466,-0.003 7.42374,0.34307 12.16439,2.65397 10.79119,5.26032 15.397,11.67413 19.18684,26.71857 l 1.46833,5.82876 6.13944,0.24866 c 6.04134,0.24469 6.13131,0.21788 5.63038,-1.67784 -0.27999,-1.05959 -0.95725,-3.91874 -1.50502,-6.35368 -0.96591,-4.29365 -1.10778,-4.45533 -4.70395,-5.36086 -2.03939,-0.51352 -3.91609,-1.47596 -4.17042,-2.13875 -0.25434,-0.66279 0.22164,-3.21755 1.05772,-5.67726 1.46593,-4.31268 1.46611,-4.55465 0.005,-6.78449 -3.11866,-4.75969 -8.49948,-9.80493 -13.83034,-12.9678 -7.56885,-4.49073 -14.90411,-6.07287 -26.47596,-5.71063 -8.01749,0.25097 -9.84377,0.59075 -13.92066,2.58987 -2.58087,1.26555 -6.15408,3.71782 -7.94045,5.4495 -1.78637,1.73168 -3.63866,3.02266 -4.11619,2.86886 -0.47753,-0.1538 -0.59011,-0.002 -0.25017,0.33843 0.33994,0.33994 -0.12349,1.81796 -1.02986,3.28449 -2.56556,4.15115 -4.46552,12.74157 -3.89386,17.60552 0.27351,2.32719 1.78798,8.94742 3.36548,14.71162 1.5775,5.76419 3.29834,12.0848 3.82408,14.04578 l 0.95591,3.56543 h 6.25959 c 3.4428,0 6.25961,-0.21564 6.25961,-0.4792 z m 236.53851,72.69699 c 0.0208,-0.65341 1.57735,-7.8262 3.45897,-15.93954 1.88161,-8.11336 4.50207,-19.4705 5.82322,-25.2381 1.32116,-5.76759 5.47164,-23.88833 9.22328,-40.26831 7.60686,-33.21219 15.34528,-66.95443 19.73391,-86.04672 1.59813,-6.9525 2.89741,-13.93654 2.88727,-15.52008 -0.0417,-6.50933 -5.91562,-14.04995 -12.33277,-15.832 -3.24549,-0.90128 -153.02598,-1.33935 -153.91516,-0.45016 -0.24157,0.24156 0.24613,3.31576 1.08376,6.83156 1.66926,7.00635 1.23619,9.16042 -1.99707,9.9333 -8.2495,1.97199 -58.41873,12.15824 -59.8816,12.15824 -2.44229,0 -2.53758,-0.20161 -4.42536,-9.36388 -0.88776,-4.30872 -2.24079,-10.58496 -3.00674,-13.94719 l -1.39262,-6.11314 -39.56484,0.24068 c -35.91125,0.21846 -39.81437,0.37708 -42.26701,1.71776 -3.19954,1.74895 -5.79615,4.37028 -7.44393,7.51482 -0.99753,1.90363 -5.45103,19.67953 -6.3646,25.40395 -0.26637,1.66908 0.31941,1.68004 112.14795,2.09731 l 112.41571,0.41946 4.61407,2.17881 c 6.24634,2.94959 12.58286,8.86779 15.34971,14.33635 1.25726,2.48494 4.14876,11.11105 6.42554,19.16915 8.81209,31.18802 22.26568,78.72172 29.44425,104.03119 4.12782,14.55347 7.53579,27.01148 7.57327,27.68446 0.0806,1.4484 2.35569,-3.2681 2.41079,-4.99792 z M 262.63048,264.13199 c 14.38427,-2.99916 26.233,-5.45301 26.3305,-5.45301 0.0975,0 -1.07492,-5.94586 -2.60538,-13.21304 -1.53046,-7.26717 -4.56369,-21.89589 -6.74051,-32.50827 -2.17683,-10.61238 -4.2062,-19.58501 -4.50972,-19.93917 -0.47651,-0.55603 -52.7691,9.90985 -53.58348,10.72424 -0.23395,0.23394 10.98643,55.29795 13.03202,63.95467 0.24532,1.03817 0.77843,1.88758 1.18469,1.88758 0.40626,0 12.5076,-2.45385 26.89188,-5.453 z M 95.556804,245.25621 V 235.18913 H 86.74811 77.939416 v 10.06708 10.06708 h 8.808694 8.808694 z m -1.005551,-27.47473 c -0.696079,-0.80747 -2.207534,-4.11073 -3.358788,-7.34058 -1.151254,-3.22985 -7.435527,-20.05169 -13.965043,-37.38186 -6.529524,-17.33017 -11.871854,-32.10143 -11.871854,-32.82501 0,-0.72359 0.471895,-1.69005 1.048654,-2.14769 1.878056,-1.49017 60.169698,-22.99086 61.579418,-22.71338 0.75335,0.14829 1.70045,0.83589 2.10467,1.528 0.60066,1.02842 16.62141,43.43067 26.6844,70.62578 1.90438,5.14658 2.18621,6.72139 1.3962,7.80179 -0.54438,0.74449 -5.32254,2.991 -10.61814,4.99222 -5.29559,2.00123 -18.73544,7.07889 -29.86634,11.28372 -11.13089,4.20482 -20.604637,7.64512 -21.052781,7.64512 -0.448145,0 -1.384324,-0.66065 -2.080396,-1.46811 z m 18.358657,-11.01877 c 18.31818,-6.81579 38.38572,-14.4694 38.67962,-14.75211 0.13438,-0.12927 -4.72776,-13.40105 -10.80477,-29.49284 -6.077,-16.09178 -11.93251,-31.71165 -13.01221,-34.7108 -1.30039,-3.61218 -2.36841,-5.37626 -3.16376,-5.22565 -0.66036,0.12504 -12.65805,4.53124 -26.661517,9.79157 -20.587192,7.73345 -25.409734,9.83485 -25.193761,10.97805 0.253967,1.34435 2.79728,8.18722 14.801843,39.82497 2.888749,7.61322 6.487226,17.14549 7.996608,21.18281 1.509391,4.03731 3.047196,7.34057 3.417354,7.34057 0.370158,0 6.643423,-2.22146 13.940593,-4.93657 z m 247.99182,-12.05162 c -0.43956,-0.57676 -2.7598,-6.31146 -5.15611,-12.74378 -3.62493,-9.73028 -4.1695,-11.88254 -3.24134,-12.8107 1.57793,-1.57793 18.31678,-7.87262 20.20919,-7.59972 2.11849,0.30551 11.36321,24.40661 10.11869,26.37958 -0.904,1.43314 -16.53645,7.72313 -19.34641,7.78437 -0.98166,0.0214 -2.14448,-0.43299 -2.58402,-1.00975 z m 11.15518,-8.29906 c 2.03513,-0.90024 3.70024,-1.9709 3.70024,-2.37924 0,-0.79106 -4.79529,-14.0544 -5.48445,-15.16948 -0.3162,-0.51163 -10.05736,2.80857 -11.09626,3.78207 -0.12194,0.11427 1.15917,3.85993 2.84694,8.32368 3.3989,8.98937 2.77788,8.65248 10.03353,5.44297 z m -60.47738,-43.9049 c -7.89493,-2.60959 -36.07867,-11.62237 -45.30185,-14.48692 -4.64086,-1.44136 -7.17731,-3.21536 -6.7149,-4.69642 5.38222,-17.23852 20.62607,-65.243294 23.21829,-73.117226 2.67839,-8.135718 1.53736,-8.036591 20.94034,-1.819087 9.39745,3.011331 23.31528,7.435779 30.92851,9.832112 7.61323,2.396334 14.38639,4.868347 15.05146,5.493362 1.04654,0.983495 0.44557,3.537513 -4.46668,18.982701 -19.5064,61.332238 -19.11484,60.130098 -20.09066,61.680048 -1.01978,1.61976 -4.43398,1.14944 -13.56451,-1.86857 z m 10.09123,-5.68175 c 1.66682,-5.6518 21.60467,-68.251666 21.88981,-68.728544 0.18615,-0.311324 -4.10206,-1.957249 -9.52937,-3.657612 -5.4273,-1.700372 -14.96428,-4.718834 -21.19329,-6.707703 -20.68923,-6.605891 -23.44938,-7.426249 -23.7361,-7.054724 -0.1565,0.202777 -3.37553,10.184092 -7.15339,22.180694 -3.77787,11.996601 -8.75489,27.630679 -11.06006,34.742399 -2.30517,7.11172 -4.19122,13.19378 -4.19122,13.51569 0,0.32191 2.54823,1.39279 5.66273,2.37973 3.1145,0.98694 15.10062,4.79881 26.63581,8.47083 11.5352,3.67202 21.23078,6.69224 21.54574,6.71161 0.31496,0.0194 0.82317,-0.8142 1.12934,-1.85237 z M 169.18858,96.885442 c -1.72133,-1.313569 -2.85388,-2.693178 -2.51677,-3.065819 0.33711,-0.372633 0.19072,-0.43666 -0.32532,-0.142282 -0.51603,0.294379 -3.06425,-0.987177 -5.66273,-2.847901 -3.35478,-2.402315 -4.70902,-3.916982 -4.67117,-5.224545 0.0831,-2.868857 14.33107,-21.985207 16.34533,-21.930291 0.91321,0.02492 5.33618,2.632943 9.8288,5.79565 8.15778,5.742908 9.40208,7.472096 7.07281,9.828967 -0.60258,0.609721 -1.34601,1.674852 -1.65206,2.366963 -1.6738,3.785079 -12.21379,17.223438 -13.64935,17.402741 -0.90191,0.112642 -3.04821,-0.869922 -4.76954,-2.183483 z m 8.8681,-12.262574 4.73187,-7.110394 -4.57013,-3.376146 c -2.51356,-1.856881 -4.72029,-3.376145 -4.90385,-3.376145 -0.18354,0 -1.95794,2.359471 -3.94309,5.24327 -1.98516,2.883798 -4.58809,6.339826 -5.78429,7.680056 -1.1962,1.340239 -1.75664,2.200504 -1.24542,1.911713 0.51121,-0.288791 2.93886,0.974124 5.39478,2.806484 2.45591,1.832359 4.71796,3.331557 5.02678,3.331557 0.30881,0 2.69082,-3.199679 5.29335,-7.110395 z m 227.05996,9.587743 c -11.61767,-8.268209 -11.18489,-7.089127 -5.5923,-15.236053 7.36858,-10.734064 10.99647,-15.312379 12.33754,-15.569685 1.34442,-0.257944 16.48864,10.322841 17.82343,12.452657 0.64394,1.02748 -0.89621,3.785633 -6.90967,12.374118 -4.65648,6.650412 -8.29442,11.051924 -9.13465,11.051924 -0.76798,0 -4.60394,-2.282836 -8.52435,-5.072961 z m 12.80554,-9.570805 4.83295,-7.050864 -3.7843,-2.717667 c -2.08136,-1.494726 -3.78429,-2.968278 -3.78429,-3.27456 0,-0.306291 -0.58461,-0.556894 -1.29914,-0.556894 -1.39708,0 -10.76038,12.660844 -10.30206,13.930219 0.38374,1.062815 7.63937,6.67204 8.66497,6.698768 0.46141,0.012 3.01375,-3.151029 5.67187,-7.029002 z M 55.525762,85.186273 c -1.049635,-0.666961 -8.617276,-22.992075 -8.623199,-25.439105 -0.005,-2.065949 1.31044,-2.748111 11.181194,-5.798285 6.581319,-2.033709 9.454463,-2.576383 10.419032,-1.967954 1.435666,0.905592 2.126183,2.667314 6.44173,16.434765 3.05061,9.732046 2.888044,11.326437 -1.199719,11.766385 -1.153519,0.124144 -2.286065,0.448085 -2.516769,0.719871 -0.328581,0.387088 -13.870975,4.99906 -14.523229,4.946006 -0.08686,-0.0067 -0.617431,-0.304822 -1.17904,-0.661683 z m 9.47063,-8.245676 c 2.273876,-0.753437 4.413499,-1.617754 4.754706,-1.920706 0.341207,-0.302952 -0.546013,-4.187251 -1.971604,-8.631773 l -2.591979,-8.080953 -3.900858,1.20216 c -2.145471,0.661189 -4.772786,1.433359 -5.838478,1.715933 -1.065684,0.282583 -1.777502,0.939099 -1.581807,1.45893 0.195688,0.51983 1.428561,4.248408 2.739722,8.285725 1.311153,4.037318 2.805133,7.340578 3.319947,7.340578 0.514805,0 2.796466,-0.616449 5.070351,-1.369894 z"
       id="path338" />
  </g>
</svg>
