<?xml version="1.0" encoding="UTF-8" standalone="no"?>
<!-- Created with Inkscape (http://www.inkscape.org/) -->

<svg
   version="1.1"
   id="svg2"
   width="259.22659"
   height="259.1297"
   viewBox="0 0 259.22659 259.1297"
   xml:space="preserve"
   xmlns="http://www.w3.org/2000/svg"
   xmlns:svg="http://www.w3.org/2000/svg"><defs
     id="defs6" /><g
     id="g8"
     transform="translate(-125.41336,-134.57283)"><path
       style="fill:#7fff15;fill-opacity:1;stroke-width:0.555556"
       d="m 237.02689,392.84727 -5,-0.73587 -5.27778,-1.15914 -5.27777,-1.15913 -6.94445,-2.29031 -6.94444,-2.29031 -4.89199,-2.11572 -4.89199,-2.11572 -4.59425,-2.50433 -4.59426,-2.50433 -4.9582,-3.2579 -4.95821,-3.2579 -5.55555,-4.48026 -5.55556,-4.48025 -5.87296,-6.03567 -5.87297,-6.03568 -4.21187,-5.66145 -4.21187,-5.66146 -3.06054,-4.94772 -3.06053,-4.94773 -2.20411,-4.39082 -2.20411,-4.39082 -1.93518,-4.72223 -1.93518,-4.72222 -1.4421,-4.44444 -1.4421,-4.44445 -1.37945,-5.55555 -1.37945,-5.55556 -0.97833,-6.38889 -0.97833,-6.38889 v -11.94444 -11.94445 l 0.98136,-6.38889 0.98136,-6.38889 1.3174,-5.55555 1.31739,-5.55556 2.27735,-6.66667 2.27734,-6.66666 4.09631,-8.33334 4.0963,-8.33333 3.89394,-5.83333 3.89394,-5.83334 3.5855,-4.44444 3.58549,-4.44445 6.04382,-5.95782 6.04381,-5.95783 3.88888,-3.11346 3.88889,-3.11346 5.77726,-3.8435 5.77726,-3.84349 6.44496,-3.28582 6.44497,-3.28581 4.44444,-1.78982 4.44445,-1.78981 5.27778,-1.61909 5.27778,-1.61908 4.44444,-1.04646 4.44444,-1.04645 6.38889,-0.99223 6.38889,-0.99222 11.94445,0.0102 11.94444,0.0102 6.38889,0.97623 6.38889,0.97622 5.55556,1.37944 5.55555,1.37945 4.44445,1.43581 4.44444,1.4358 5.27778,2.21926 5.27778,2.21925 3.84268,1.93092 3.84267,1.93091 5.02407,3.10776 5.02405,3.10775 5.57771,4.19949 5.57771,4.19949 6.04298,5.83355 6.04299,5.83354 4.47295,5.55556 4.47294,5.55555 3.24704,4.94167 3.24704,4.94166 3.00994,5.61389 3.00995,5.61389 2.56209,6.378 2.56209,6.37799 1.89869,6.67756 1.89868,6.67757 1.20692,6.38889 1.20691,6.38888 0.25482,13.43941 0.25481,13.43941 -0.64069,4.89393 -0.64069,4.89392 -1.07528,5.32958 -1.07527,5.32957 -1.41644,4.88782 -1.41644,4.88782 -1.99106,5.33816 -1.99105,5.33817 -3.31042,6.66666 -3.31043,6.66667 -4.62251,6.94444 -4.62252,6.94445 -4.42602,5.27778 -4.42601,5.27778 -4.44077,4.23705 -4.44077,4.23705 -4.38335,3.49506 -4.38334,3.49507 -6.11111,4.0214 -6.11112,4.0214 -6.66666,3.31844 -6.66667,3.31844 -5.27778,1.95962 -5.27778,1.95961 -4.72222,1.41651 -4.72222,1.4165 -5.55556,1.10889 -5.55555,1.1089 -4.70765,0.58191 -4.70765,0.58193 -11.95902,-0.0597 -11.95902,-0.0597 z m 31.03954,-57.75565 5.48398,-0.82658 3.92546,-1.16905 3.92545,-1.16905 4.47945,-2.14573 4.47946,-2.14571 3.87114,-2.93871 3.87114,-2.93871 3.24084,-3.86937 3.24084,-3.86937 1.91544,-3.9084 1.91545,-3.90842 0.336,-1.74768 0.336,-1.74769 -1.16898,-1.16898 -1.16898,-1.16898 h -1.14444 -1.14444 l -2.60556,1.99518 -2.60556,1.99518 -5,2.39543 -5,2.39544 -3.61111,1.21233 -3.61112,1.21234 -5,1.0418 -5,1.0418 -6.66666,0.65341 -6.66667,0.6534 -8.05556,-0.34177 -8.05555,-0.34177 -4.79139,-0.79185 -4.79139,-0.79185 -4.93083,-1.22706 -4.93084,-1.22706 -5.79361,-2.72338 -5.79361,-2.72338 -2.93255,-2.21409 -2.93256,-2.2141 h -1.13494 -1.13495 l -1.11111,1.11111 -1.11111,1.11111 v 1.33242 1.33242 l 2.50669,5.00735 2.50668,5.00735 3.90298,4.17927 3.90297,4.17927 3.98027,2.62221 3.98028,2.62222 3.47756,1.5768 3.47757,1.57681 4.32694,1.195 4.32695,1.19501 4.44444,0.69864 4.44445,0.69863 8.05555,0.0517 8.05556,0.0517 5.48398,-0.82657 z m -50.00876,-80.1874 2.69745,-1.44203 2.10306,-2.3892 2.10306,-2.3892 1.46918,-3.10298 1.46919,-3.10297 0.80543,-3.41544 0.80543,-3.41544 0.008,-3.93891 0.008,-3.9389 -1.11166,-4.34656 -1.11166,-4.34655 -1.45233,-2.47821 -1.45232,-2.47821 -1.98409,-2.19615 -1.9841,-2.19616 -2.81303,-1.43262 -2.81303,-1.43263 -3.08708,-0.006 -3.08709,-0.006 -2.67461,1.33577 -2.67461,1.33576 -2.40759,2.67782 -2.40759,2.67782 -1.41094,2.98247 -1.41094,2.98247 -0.82823,3.51321 -0.82823,3.5132 v 3.88889 3.88888 l 0.80543,3.41544 0.80542,3.41544 1.46919,3.10297 1.46919,3.10298 2.22927,2.53259 2.22928,2.53259 2.14594,1.09478 2.14593,1.09477 2.09197,0.49143 2.09196,0.49144 1.94444,-0.28758 1.94445,-0.28757 2.69745,-1.44202 z m 85.74498,0.44178 2.33131,-0.99908 2.49581,-2.49581 2.49581,-2.49581 1.37388,-2.71123 1.37389,-2.71123 0.99287,-3.3096 0.99287,-3.30961 v -5.55555 -5.55556 l -0.99287,-3.30961 -0.99287,-3.3096 -1.29053,-2.52373 -1.29054,-2.52373 -2.00811,-2.32725 -2.00811,-2.32725 -3.12636,-1.52959 -3.12637,-1.52959 h -2.61055 -2.61054 l -2.52399,0.96393 -2.52399,0.96392 -2.77944,2.93884 -2.77944,2.93885 -1.40444,2.77151 -1.40442,2.77152 -0.87426,3.37386 -0.87426,3.37386 v 4.83962 4.83961 l 0.87426,3.37386 0.87426,3.37386 1.36743,2.6985 1.36743,2.69851 2.0104,2.22526 2.0104,2.22527 1.68613,1.20063 1.68613,1.20064 2.534,0.65356 2.53401,0.65356 1.94444,-0.27813 1.94445,-0.27814 z"
       id="path860" /><path
       style="fill:#7dc343;fill-opacity:1;stroke-width:0.612672"
       d="m 240.70729,334.6024 c -17.79945,-3.27287 -29.89586,-11.33855 -36.44689,-24.30216 -1.65457,-3.27417 -3.00831,-6.32828 -3.00831,-6.78691 0,-1.12643 1.99109,-2.85861 3.28588,-2.85861 0.57672,0 2.48192,1.07621 4.2338,2.39158 4.11726,3.09138 12.90173,7.12 18.75907,8.60304 18.8088,4.76224 41.40363,4.47516 57.52531,-0.73088 5.27806,-1.7044 14.43096,-6.1892 17.2449,-8.44976 2.5934,-2.08339 4.1637,-2.28171 5.58975,-0.70594 1.22073,1.34888 0.83616,2.98896 -2.03515,8.67929 -4.06486,8.05574 -11.82839,15.19857 -21.10535,19.418 -6.56221,2.98468 -8.6622,3.61384 -15.90442,4.76501 -6.7452,1.07217 -22.25228,1.05968 -28.13859,-0.0227 z"
       id="path4481" /><path
       style="fill:#7dc343;fill-opacity:1;stroke-width:0.612672"
       d="m 208.89845,256.06599 c -5.0712,-1.30717 -9.21376,-5.47626 -12.21572,-12.29395 -1.4164,-3.21677 -1.80307,-5.11337 -2.03826,-9.99747 -0.45239,-9.39477 1.6451,-16.28507 6.51798,-21.41165 7.94075,-8.35418 17.77744,-6.47973 24.51471,4.67145 1.85094,3.06359 3.69219,10.28967 3.694,14.49729 0.006,14.61021 -10.43414,27.1219 -20.47271,24.53433 z"
       id="path5420" /><path
       style="fill:#7dc343;fill-opacity:1;stroke-width:0.612672"
       d="m 294.66737,255.87053 c -3.01736,-0.80052 -8.66268,-5.9753 -10.52246,-9.6454 -4.33839,-8.56139 -4.41414,-20.05246 -0.18736,-28.42022 1.82087,-3.60478 6.51062,-8.43954 9.34789,-9.63692 6.91975,-2.92026 14.58883,0.69097 18.73757,8.82318 4.82689,9.46149 4.90545,20.07124 0.21638,29.22149 -2.00243,3.90754 -6.72935,8.25429 -10.2497,9.42536 -3.27222,1.08853 -4.02581,1.11239 -7.34232,0.23251 z"
       id="path5422" /><path
       style="fill:#7dc343;fill-opacity:1;stroke-width:0.0270765"
       d="m 295.03421,256.23157 -2.51497,-0.6526 -1.68237,-1.19874 -1.68238,-1.19875 -2.00951,-2.22347 -2.00951,-2.22347 -1.08624,-2.14215 -1.08625,-2.14215 0.007,-0.40675 0.007,-0.40674 0.17284,0.42915 c 0.40269,0.99989 1.00208,2.25395 1.36373,2.85323 1.20265,1.99287 3.38587,4.40561 5.70853,6.30866 1.45046,1.18841 2.92967,2.1179 4.00068,2.51387 0.3216,0.1189 1.55725,0.43566 2.21087,0.56676 0.74894,0.15022 1.07556,0.18586 1.7094,0.18652 0.6197,6.5e-4 0.94453,-0.0349 1.57201,-0.17194 0.75371,-0.16462 2.31308,-0.65106 2.95618,-0.92216 2.92998,-1.23513 6.56487,-4.44136 8.7167,-7.68875 0.49611,-0.74869 0.83052,-1.34847 1.27534,-2.28736 1.47842,-3.12053 2.40115,-6.25154 2.81947,-9.56702 0.16436,-1.30268 0.21699,-2.0825 0.23765,-3.52118 0.0154,-1.0749 0.0186,-1.12866 0.0663,-1.12866 0.0485,0 0.0501,0.0992 0.0501,3.06397 v 3.06396 l -0.98851,3.29467 -0.9885,3.29467 -1.37691,2.71801 -1.37691,2.71801 -2.49394,2.4902 -2.49393,2.4902 -2.32249,0.99324 -2.32249,0.99324 -1.94569,0.28104 c -1.07013,0.15457 -1.95321,0.2797 -1.9624,0.27806 -0.009,-0.002 -1.14844,-0.29665 -2.53167,-0.65557 z"
       id="path5428" /><path
       style="fill:#7dc343;fill-opacity:1;stroke-width:0.038292"
       d="m 282.65734,243.83513 -0.27695,-0.56631 -0.86044,-3.33446 -0.86045,-3.33445 6.9e-4,-4.84715 6.9e-4,-4.84714 0.87237,-3.3644 0.87236,-3.3644 1.4113,-2.77694 1.41129,-2.77695 2.59884,-2.74754 c 1.42936,-1.51116 2.67667,-2.8292 2.7718,-2.92899 0.17244,-0.18088 0.18055,-0.18433 2.67715,-1.13722 l 2.50418,-0.95578 2.62998,-1.8e-4 2.62998,-1.7e-4 3.11261,1.52428 c 2.22993,1.09202 3.13918,1.55551 3.20629,1.6344 0.0515,0.0606 0.95474,1.10777 2.00714,2.32711 l 1.91345,2.21697 1.29723,2.54288 1.29722,2.54289 0.97934,3.27221 0.97933,3.27221 v 2.50626 c 0,2.06523 -0.009,2.50973 -0.0515,2.526 -0.0413,0.0159 -0.0564,-0.10949 -0.0766,-0.63629 -0.13602,-3.5567 -0.94926,-7.26478 -2.36584,-10.78747 -1.08642,-2.70167 -2.30429,-4.85972 -3.75404,-6.65212 -2.66447,-3.29423 -5.96671,-5.3032 -9.65651,-5.87469 -0.48239,-0.0747 -0.70576,-0.086 -1.72043,-0.087 -0.92795,-9.4e-4 -1.25976,0.0128 -1.62485,0.0671 -1.87052,0.27861 -3.3991,0.82476 -4.66518,1.66684 -2.36777,1.5748 -5.24063,4.55044 -7.03443,7.28609 -0.78749,1.20098 -1.26907,2.15039 -1.92958,3.80406 -2.74447,6.87125 -2.8385,15.72238 -0.24339,22.91192 l 0.2455,0.68015 -0.0108,0.4023 -0.0108,0.4023 z"
       id="path5430" /><path
       style="fill:#7dc343;fill-opacity:1;stroke-width:0.009573"
       d="m 290.80088,214.44922 4.1e-4,-4.69056 0.0976,-0.0764 c 0.5201,-0.40713 1.08368,-0.79647 1.5456,-1.06776 0.44181,-0.25948 0.79043,-0.42403 1.33059,-0.62805 1.14322,-0.4318 2.386,-0.70792 3.52962,-0.78421 0.24411,-0.0163 0.24349,-0.0181 -0.005,-0.0138 -0.38697,0.007 -0.69453,0.0419 -1.25001,0.14319 -1.45856,0.26598 -2.71643,0.71735 -3.78703,1.35893 -0.3597,0.21555 -0.87521,0.57538 -1.30637,0.91186 -0.0798,0.0623 -0.14754,0.11322 -0.15054,0.11322 -0.003,0 -0.005,-0.20676 -0.005,-0.45947 v -0.45947 l 0.12664,-0.0604 c 0.22533,-0.10747 0.71304,-0.29747 3.16607,-1.23339 0.65711,-0.25071 1.30607,-0.49841 1.44214,-0.55046 l 0.2474,-0.0946 h 2.62737 2.62737 l 1.38808,0.67955 c 2.46669,1.2076 2.60895,1.27764 3.47648,1.71141 0.86997,0.43499 1.18018,0.59518 1.34592,0.69501 l 0.0926,0.0557 0.63429,0.73499 c 0.34886,0.40425 1.23434,1.43038 1.96773,2.28029 l 1.33345,1.5453 0.38591,0.75633 0.38591,0.75632 v 0.43673 0.43673 l -0.1061,-0.20072 c -0.84721,-1.60266 -1.79452,-2.99446 -2.8818,-4.23394 -0.50007,-0.57007 -1.14737,-1.21763 -1.70505,-1.70572 -2.15099,-1.88262 -4.61573,-3.07527 -7.26882,-3.51729 -0.41569,-0.0693 -0.66845,-0.0942 -1.01792,-0.10057 -0.18904,-0.003 -0.20645,-0.003 -0.10992,0.005 0.36244,0.0275 0.60883,0.0526 0.89367,0.0912 1.8478,0.25054 3.67433,0.92417 5.37157,1.98104 2.70719,1.68578 5.02245,4.28638 6.72283,7.55137 l 0.10154,0.19498 v 1.06428 1.06428 H 301.42445 290.8008 Z"
       id="path5432" /><path
       style="fill:#7dc343;fill-opacity:1;stroke-width:0.009573"
       d="m 290.80064,214.44922 1.6e-4,-4.69056 0.0787,-0.0617 c 0.71854,-0.56388 1.43108,-1.03337 2.0222,-1.33242 0.61886,-0.31309 1.47412,-0.61913 2.31456,-0.82823 0.72394,-0.18012 1.25948,-0.26451 2.17443,-0.34266 l 0.0956,-0.008 -0.0908,-0.001 c -0.24267,-0.003 -0.60181,0.0272 -0.94624,0.0805 -1.54371,0.23922 -2.88203,0.68113 -4.01205,1.32479 -0.42572,0.24249 -0.9198,0.58 -1.45983,0.99722 -0.0918,0.0709 -0.16912,0.12893 -0.17187,0.12893 -0.003,0 -0.005,-0.20602 -0.005,-0.45784 v -0.45783 l 0.0311,-0.0181 c 0.14514,-0.0846 0.54261,-0.24129 2.69773,-1.06389 0.45735,-0.17457 1.15128,-0.43952 1.54208,-0.58878 l 0.71053,-0.27138 h 2.62697 2.62698 l 0.17504,0.0848 c 0.0963,0.0466 0.39224,0.19128 0.65771,0.32145 0.62212,0.30506 0.92213,0.45199 1.17085,0.5734 0.24608,0.12012 1.09708,0.5371 1.62007,0.79382 0.65467,0.32135 2.08627,1.03888 2.30787,1.15673 0.39164,0.20828 0.28966,0.11346 0.96789,0.8999 0.32474,0.37655 0.65946,0.76452 0.74382,0.86217 0.0844,0.0976 0.43913,0.50872 0.78835,0.9135 0.34922,0.40478 0.86691,1.00478 1.15042,1.33333 0.2835,0.32856 0.54768,0.6348 0.58705,0.68054 0.0686,0.0797 0.0876,0.11452 0.45724,0.83895 l 0.38565,0.75579 v 0.43703 0.43704 l -0.12715,-0.23895 c -0.93835,-1.76329 -1.94264,-3.20079 -3.17502,-4.54457 -0.19955,-0.21758 -0.77402,-0.79497 -0.99413,-0.99915 -1.74179,-1.61586 -3.68529,-2.76858 -5.76809,-3.42114 -1.08113,-0.33873 -2.31247,-0.56814 -2.99654,-0.5583 l -0.086,0.001 0.086,0.008 c 0.0473,0.004 0.1871,0.0171 0.31063,0.0281 2.33635,0.20716 4.66416,1.10205 6.75747,2.5978 1.10312,0.78822 2.12157,1.7217 3.07102,2.81478 1.05862,1.21876 2.00498,2.62116 2.81526,4.1719 l 0.10655,0.20392 v 1.06489 1.0649 h -10.62366 -10.62365 z"
       id="path5434" /><path
       style="fill:#7dc343;fill-opacity:1;stroke-width:0.0039124"
       d="m 308.72051,212.13967 c -0.18068,-0.19674 -0.67322,-0.6946 -0.8709,-0.88031 -0.71569,-0.67235 -1.40984,-1.2269 -2.16992,-1.73352 -0.50353,-0.33562 -0.98818,-0.62031 -1.49805,-0.87996 l -0.12891,-0.0656 0.2543,-8e-5 0.25429,-8e-5 0.29258,0.14399 c 1.56765,0.7715 2.27245,1.13116 2.45444,1.25249 l 0.041,0.0273 0.30461,0.35351 c 0.16754,0.19444 0.48441,0.56182 0.70415,0.81641 l 0.39954,0.46289 8e-5,0.27051 c 4e-5,0.14878 -4.6e-4,0.2705 -0.001,0.2705 -6.4e-4,0 -0.0169,-0.0171 -0.0361,-0.0381 z"
       id="path5436" /><path
       style="fill:#7dc343;fill-opacity:1;stroke-width:0.0039124"
       d="m 308.67022,212.11523 c -1.26774,-1.35892 -2.67253,-2.46356 -4.18389,-3.28995 -0.11212,-0.0613 -0.27973,-0.14962 -0.38086,-0.20066 -0.068,-0.0343 -0.0819,-0.0426 -0.073,-0.0437 0.0168,-0.002 0.34508,0.16822 0.62561,0.3245 0.57804,0.32203 1.17251,0.70901 1.72276,1.12148 0.78753,0.59033 1.54058,1.26746 2.24659,2.02008 0.13156,0.14024 0.13124,0.13988 0.12965,0.15122 -10e-4,0.007 -0.016,-0.007 -0.0869,-0.0829 z"
       id="path5438" /><path
       style="fill:#7dc343;fill-opacity:1;stroke-width:0.0039124"
       d="m 308.71295,212.13184 c -0.26861,-0.29081 -0.74169,-0.76255 -1.03132,-1.02841 -1.10369,-1.01309 -2.26933,-1.8308 -3.51171,-2.46349 l -0.11719,-0.0597 0.25442,-9e-5 0.25441,-9e-5 0.29637,0.14578 c 1.35759,0.6678 2.10708,1.04784 2.37644,1.20502 0.1065,0.0621 0.10289,0.0589 0.22648,0.20224 0.0613,0.0711 0.26283,0.30486 0.44789,0.51953 0.18506,0.21468 0.45179,0.52391 0.59272,0.68719 l 0.25626,0.29688 4e-5,0.27051 c 4e-5,0.14878 -5e-4,0.2705 -0.001,0.2705 -6.8e-4,0 -0.0203,-0.0206 -0.0436,-0.0459 z"
       id="path5440" /><path
       style="fill:#7dc343;fill-opacity:1;stroke-width:0.0110659"
       d="m 288.33405,216.278 2e-4,-4.2675 0.18486,-0.18879 c 1.06618,-1.08886 2.34269,-2.17176 3.36131,-2.8515 0.73557,-0.49085 1.26477,-0.75856 2.07713,-1.05074 1.08155,-0.38902 2.1296,-0.61693 3.28694,-0.71481 l 0.18782,-0.0159 -0.22097,0.005 c -0.32015,0.007 -0.52846,0.0293 -0.97779,0.10617 -1.79866,0.30751 -3.23392,0.86104 -4.50228,1.73638 -0.99831,0.68896 -1.96912,1.511 -3.09677,2.6222 l -0.30148,0.29709 7.4e-4,-0.30384 7.4e-4,-0.30383 1.15591,-1.22087 c 0.63574,-0.67147 1.1824,-1.24145 1.21478,-1.26661 0.0324,-0.0252 0.11567,-0.0734 0.18508,-0.10712 0.14424,-0.0702 0.72109,-0.30148 1.38237,-0.55437 0.24915,-0.0953 0.65187,-0.2493 0.89494,-0.34227 0.5115,-0.19564 1.44677,-0.55278 2.13829,-0.81653 l 0.48102,-0.18347 h 2.62479 2.62478 l 0.44078,0.21667 c 0.24243,0.11917 0.51039,0.25035 0.59546,0.29151 0.0851,0.0412 0.29638,0.14435 0.46957,0.22929 1.15304,0.56558 2.01292,0.98611 2.01632,0.98611 0.0109,0 1.88698,0.93492 2.16002,1.07639 0.44701,0.23161 0.5706,0.30253 0.6369,0.36544 0.0519,0.0492 0.26557,0.29542 1.16865,1.34637 0.27673,0.32204 2.24156,2.60097 2.55699,2.96576 l 0.19383,0.22416 0.14209,0.27854 c 0.23991,0.4703 0.48222,0.94563 0.99027,1.94253 l 0.48764,0.95688 -0.003,0.48781 -0.003,0.48782 -0.0545,-0.12439 c -0.33395,-0.76175 -0.82925,-1.74903 -1.2541,-2.49983 -0.8374,-1.47986 -1.81029,-2.82344 -2.86009,-3.94985 -0.19737,-0.21178 -0.83042,-0.84385 -1.01872,-1.01716 -2.0596,-1.89558 -4.38305,-3.13856 -6.90518,-3.69409 -0.69949,-0.15407 -1.33045,-0.24157 -1.70585,-0.23657 -0.0796,0.001 -0.12241,0.004 -0.0951,0.006 1.79899,0.13532 3.42567,0.59052 5.06576,1.41757 1.88581,0.95096 3.61089,2.32905 5.13126,4.0991 0.90702,1.05598 1.73151,2.24743 2.45044,3.54106 0.35434,0.63759 0.80159,1.54031 1.16415,2.34971 l 0.0875,0.19525 v 0.8737 0.8737 h -12.28046 -12.28045 z"
       id="path5446" /><path
       style="fill:#7dc343;fill-opacity:1;stroke-width:0.0110659"
       d="m 307.29866,209.96197 c -0.0807,-0.057 -0.43516,-0.2444 -1.04961,-0.55506 -0.33422,-0.16898 -0.60241,-0.30734 -0.59597,-0.30747 0.0152,-3e-4 1.60066,0.77632 1.62349,0.79527 0.027,0.0224 0.0858,0.0995 0.0755,0.0989 -0.005,-2.7e-4 -0.0291,-0.0145 -0.0534,-0.0317 z"
       id="path5448" /><path
       style="fill:#7dc343;fill-opacity:1;stroke-width:0.0078248"
       d="m 245.12891,314.56569 c -1.97026,-0.17581 -3.67123,-0.36381 -5.47266,-0.60486 -3.84727,-0.51479 -7.59796,-1.21309 -11.17578,-2.0807 -0.17617,-0.0427 -0.33526,-0.0817 -0.35352,-0.0866 l -0.0332,-0.009 v -0.15135 -0.15135 l 0.0449,0.0107 c 0.0247,0.006 1.12598,0.27996 2.44727,0.60909 l 2.40234,0.59842 4.7949,0.79261 4.79489,0.7926 1.40042,0.0587 c 0.77023,0.0323 1.41887,0.0606 1.44143,0.063 l 0.041,0.004 v 0.0893 0.0893 l -0.041,-9.2e-4 c -0.0226,-5e-4 -0.15351,-0.011 -0.29101,-0.0232 z"
       id="path5452" /><path
       style="fill:#7dc343;fill-opacity:1;stroke-width:0.0078248"
       d="m 240.98828,334.94924 -3.41406,-0.53769 -4.32422,-1.19483 -4.32422,-1.19484 -0.9375,-0.42541 -0.9375,-0.42542 -0.002,-0.23114 -0.002,-0.23114 0.24034,0.0971 c 3.52933,1.42621 7.42688,2.58261 11.63192,3.45118 0.78425,0.16199 1.67193,0.33213 2.13968,0.41013 0.83748,0.13963 1.91941,0.26953 3.10743,0.37307 l 0.24804,0.0216 v 0.2132 c 0,0.11725 -0.003,0.21289 -0.006,0.21252 -0.003,-3.7e-4 -1.54218,-0.24264 -3.41992,-0.53837 z"
       id="path5454" /><path
       style="fill:#7dc343;fill-opacity:1;stroke-width:0.0078248"
       d="m 223.01471,329.34135 -1.04388,-0.47416 -3.97715,-2.62035 -3.97714,-2.62035 -1.95163,-2.0891 c -1.0734,-1.14901 -1.96164,-2.1012 -1.97387,-2.11598 l -0.0222,-0.0269 h 0.19912 0.19912 l 0.20984,0.22823 c 1.13323,1.23255 2.34133,2.39382 3.62039,3.48006 3.02526,2.56918 6.53198,4.78749 10.40585,6.58263 0.14825,0.0687 0.271,0.12626 0.27279,0.12793 0.002,0.002 -0.20387,0.003 -0.45703,0.003 l -0.46029,-4.6e-4 -1.04388,-0.47416 z"
       id="path5456" /><path
       style="fill:#7dc343;fill-opacity:1;stroke-width:0.0625984"
       d="m 225.5625,330.46483 -1.34375,-0.61872 0.375,-7.2e-4 c 0.32703,-6.2e-4 0.50292,0.0548 1.375,0.43289 0.95785,0.41532 1.00083,0.44165 1.01958,0.62453 0.0108,0.10502 -0.003,0.18864 -0.0312,0.18584 -0.028,-0.003 -0.65552,-0.28353 -1.39458,-0.62382 z"
       id="path5458" /><path
       style="fill:#7dc343;fill-opacity:1;stroke-width:0.0625984"
       d="m 208.15171,317.29687 -1.91601,-2.04687 -2.49285,-4.98422 -2.49285,-4.98422 0.003,-0.76578 0.003,-0.76578 0.20589,0.5625 c 0.6295,1.71984 3.06127,6.70222 4.18456,8.57361 1.34389,2.2389 2.56522,3.94524 4.10315,5.73256 0.55164,0.6411 0.60618,0.72508 0.47089,0.72508 -0.12023,0 -0.56348,-0.43851 -2.06902,-2.04688 z"
       id="path5460" /><path
       style="fill:#7dc343;fill-opacity:1;stroke-width:0.0625984"
       d="m 210.18421,303.98121 c -0.35913,-0.23377 -0.96234,-0.65063 -1.34046,-0.92636 -1.47193,-1.07332 -2.841,-1.91597 -3.64115,-2.2411 -0.69312,-0.28164 -1.27541,-0.18775 -2.18606,0.35247 -0.53742,0.31882 -1.3306,1.13328 -1.56734,1.60939 l -0.1992,0.4006 v -0.30752 -0.30753 l 1.07878,-1.07746 1.07877,-1.07745 h 1.1323 1.1323 l 2.61705,1.97419 c 2.89835,2.18639 2.69157,2.02581 2.60855,2.02581 -0.0333,0 -0.35442,-0.19127 -0.71354,-0.42504 z"
       id="path5462" /><path
       style="fill:#7dc343;fill-opacity:1;stroke-width:0.0156496"
       d="m 222.99219,310.2105 c -0.0172,-0.008 -0.25625,-0.098 -0.53125,-0.20062 -4.41007,-1.64656 -9.16928,-3.97313 -12.32032,-6.02287 -0.48629,-0.31633 -1.16441,-0.78874 -1.15119,-0.80197 0.004,-0.004 0.14706,0.0903 0.31763,0.20991 0.77394,0.54254 1.52423,1.01911 1.60443,1.01911 0.0526,0 0.0221,-0.0346 -0.15406,-0.17418 -0.099,-0.0785 -0.17697,-0.14586 -0.17317,-0.14966 0.004,-0.004 0.22086,0.15497 0.48237,0.35281 l 0.47547,0.35971 5.75629,2.70565 c 3.16597,1.48811 5.75923,2.70847 5.76281,2.71191 0.0118,0.0114 -0.0372,0.004 -0.069,-0.01 z"
       id="path5464" /><path
       style="fill:#7dc343;fill-opacity:1;stroke-width:0.0156496"
       d="m 227.79687,311.70905 c -1.13411,-0.28817 -2.06587,-0.56207 -3.21875,-0.94619 -0.5864,-0.19538 -1.39063,-0.47899 -1.38219,-0.48743 0.004,-0.004 1.10715,0.26682 2.45215,0.60112 l 2.44547,0.60782 9e-5,0.14454 c 1e-4,0.12781 -0.003,0.14436 -0.0272,0.1431 -0.015,-7.8e-4 -0.13633,-0.0291 -0.26953,-0.063 z"
       id="path5466" /><path
       style="fill:#7dc343;fill-opacity:1;stroke-width:0.0156496"
       d="m 259.08594,335.88992 c -1.57266,-0.0107 -4.09688,-0.0275 -5.60938,-0.0374 -1.5125,-0.01 -3.70625,-0.0242 -4.875,-0.0319 l -2.125,-0.014 -1.02734,-0.16085 -1.02735,-0.16085 v -0.2073 c 0,-0.14927 0.005,-0.20731 0.0185,-0.20731 0.0102,0 0.30022,0.021 0.64454,0.0466 4.4222,0.32891 10.27702,0.40201 15.61821,0.19499 2.48836,-0.0964 4.80693,-0.26122 6.59375,-0.4686 0.18477,-0.0214 0.352,-0.0426 0.37161,-0.047 l 0.0357,-0.008 -0.004,0.17571 -0.004,0.17571 -2.5625,0.38674 -2.5625,0.38675 -0.3125,-0.002 c -0.17187,-10e-4 -1.59922,-0.0106 -3.17187,-0.0213 z"
       id="path5468" /><path
       style="fill:#7dc343;fill-opacity:1;stroke-width:0.00553297"
       d="m 267.70141,335.05184 c 4.1e-4,-0.0512 0.002,-0.13165 0.004,-0.1787 l 0.003,-0.0855 0.0801,-0.01 c 0.33962,-0.0418 0.76968,-0.10413 1.27058,-0.18415 3.41482,-0.54548 5.40501,-0.94193 7.21194,-1.43664 0.19754,-0.0541 0.53751,-0.15105 0.70987,-0.20247 l 0.11877,-0.0354 10e-4,0.14092 c 8.1e-4,0.0775 4.3e-4,0.14195 -8.3e-4,0.14322 -10e-4,10e-4 -0.79867,0.23962 -1.77201,0.52968 l -1.7697,0.52738 -2.91129,0.43908 c -1.60121,0.24149 -2.91937,0.44056 -2.92924,0.44238 l -0.018,0.003 z"
       id="path5470" /><path
       style="fill:#7dc343;fill-opacity:1;stroke-width:0.0221319"
       d="m 277.12396,333.05636 c 0.007,-0.1397 0.007,-0.14023 0.084,-0.16062 0.22321,-0.059 1.58889,-0.52319 2.08818,-0.7097 2.55082,-0.95291 6.46604,-2.71747 8.49876,-3.83034 1.7551,-0.96087 3.37959,-1.97538 4.89842,-3.05911 0.59907,-0.42746 1.39087,-1.01758 1.77247,-1.32101 0.11546,-0.0918 0.22235,-0.17451 0.23754,-0.18377 0.0215,-0.0131 0.0276,0.0415 0.0276,0.24638 v 0.26324 l -2.19026,1.66275 -2.19026,1.66275 -4.48858,2.14909 -4.48858,2.14909 -2.09557,0.62327 c -1.15256,0.34279 -2.11014,0.62886 -2.12797,0.6357 -0.0268,0.0103 -0.0312,-0.0119 -0.0258,-0.12772 z"
       id="path5472" /><path
       style="fill:#7dc343;fill-opacity:1;stroke-width:0.0221319"
       d="m 260.01642,314.85076 c 0.71098,-0.0718 3.69905,-0.36603 6.64018,-0.65383 l 5.34749,-0.52326 5.01605,-1.04437 5.01604,-1.04437 3.60182,-1.20849 3.60182,-1.20849 2.72899,-1.30562 c 1.50094,-0.71809 2.73692,-1.30985 2.74662,-1.31501 0.01,-0.005 0.0147,0.0567 0.011,0.13742 l -0.007,0.14681 -0.64082,0.31013 c -3.19189,1.54477 -6.37795,2.88134 -8.7394,3.66623 -4.94739,1.6444 -11.00012,2.89346 -17.27992,3.56595 -2.94375,0.31523 -6.09399,0.52666 -8.88303,0.59617 l -0.45299,0.0113 z"
       id="path5476" /><path
       style="fill:#7dc343;fill-opacity:1;stroke-width:0.0221319"
       d="m 254.29328,315.01376 c -2.24311,-0.0328 -4.57233,-0.12515 -6.65123,-0.26375 -0.71127,-0.0474 -1.93709,-0.14003 -2.06055,-0.15568 -0.10487,-0.0133 -0.10496,-0.0134 -0.10496,-0.0989 v -0.0856 l 0.17125,0.0113 c 0.0942,0.006 1.12088,0.0509 2.28152,0.0993 1.16065,0.0484 2.5478,0.10668 3.08255,0.12947 0.53475,0.0228 2.46382,0.10457 4.28683,0.18172 2.13697,0.0904 3.25176,0.14516 3.13779,0.15403 -0.20365,0.0159 -3.46684,0.038 -4.1432,0.0281 z"
       id="path5478" /><path
       style="fill:#7dc343;fill-opacity:1;stroke-width:0.0221319"
       d="m 294.7314,324.02616 4.6e-4,-0.25964 0.43559,-0.35313 c 3.92982,-3.1859 7.2611,-6.99984 9.65074,-11.04897 0.85984,-1.45697 2.23751,-4.23812 2.92258,-5.89992 0.0852,-0.20661 0.16796,-0.41294 0.18398,-0.45852 l 0.0291,-0.0829 h 0.24968 c 0.28092,0 0.267,-0.0115 0.21993,0.18246 -0.014,0.0578 -0.88536,1.85966 -1.93629,4.0041 l -1.9108,3.899 -3.24101,3.86964 -3.24101,3.86965 -1.67127,1.26891 c -0.91921,0.69791 -1.67598,1.26892 -1.68172,1.26892 -0.006,0 -0.0102,-0.11684 -0.01,-0.25964 z"
       id="path5480" /><path
       style="fill:#7dc343;fill-opacity:1;stroke-width:0.0221319"
       d="m 268.59009,318.68519 v -4.34108 l 0.0718,-0.0116 c 0.0395,-0.006 0.37012,-0.047 0.73472,-0.0904 5.55807,-0.66057 10.92652,-1.79381 15.60608,-3.29432 2.67898,-0.85902 6.48177,-2.4777 10.28066,-4.37602 3.27893,-1.63849 5.5693,-2.96787 6.9296,-4.02206 1.04107,-0.8068 1.61543,-1.18383 2.21649,-1.45496 0.96957,-0.43737 1.72637,-0.47363 2.44383,-0.11707 0.56752,0.28203 1.16198,0.86499 1.42307,1.39553 0.5175,1.05157 0.20455,2.46301 -1.2356,5.57262 -0.33013,0.71282 -1.43859,2.93669 -1.71223,3.43519 -1.27978,2.33144 -2.84336,4.56477 -4.67195,6.67315 -0.71086,0.81963 -1.36363,1.51238 -2.2807,2.42039 -0.92149,0.9124 -1.67533,1.60524 -2.54186,2.33618 l -0.2554,0.21544 h -13.50427 -13.50426 z"
       id="path5482" /><path
       style="fill:#7dc343;fill-opacity:1;stroke-width:0.0221319"
       d="m 294.7354,306.68345 0.007,-0.15048 2.26103,-1.08385 2.26103,-1.08385 2.60415,-1.99426 2.60415,-1.99426 h 1.13426 1.13426 l 1.16714,1.16729 1.16713,1.1673 -0.30082,1.56722 c -0.16545,0.86197 -0.30605,1.58462 -0.31244,1.60589 -0.0102,0.0338 -0.0424,0.0387 -0.25557,0.0387 -0.2233,0 -0.24267,-0.003 -0.22896,-0.0387 0.008,-0.0213 0.0826,-0.23754 0.16521,-0.48061 0.39731,-1.16878 0.49778,-1.95904 0.33334,-2.62218 -0.0592,-0.23861 -0.2299,-0.5869 -0.39511,-0.80601 -0.16678,-0.22118 -0.53738,-0.58888 -0.76555,-0.75954 -0.21781,-0.16291 -0.60733,-0.35941 -0.82864,-0.41804 -0.68796,-0.18223 -1.36191,-0.0731 -2.24286,0.36316 -0.57352,0.28402 -1.06501,0.60722 -1.83394,1.20598 -0.90348,0.70354 -1.76274,1.26513 -3.19105,2.08555 -1.0799,0.6203 -2.0915,1.16272 -3.55527,1.90634 l -0.93466,0.47482 z"
       id="path5484" /><path
       style="fill:#7dc343;fill-opacity:1;stroke-width:0.0312992"
       d="m 209.32812,256.40301 -2.03125,-0.48114 -2.13552,-1.08594 -2.13553,-1.08593 -2.23722,-2.53945 -2.23722,-2.53946 -1.47457,-3.11679 -1.47457,-3.1168 -0.80127,-3.40625 -0.80127,-3.40625 1.5e-4,-3.86946 1.5e-4,-3.86947 0.82653,-3.50553 c 0.45459,-1.92805 0.85888,-3.57904 0.89843,-3.66887 l 0.0719,-0.16332 0.19792,-7.4e-4 c 0.14628,-5.4e-4 0.19373,0.009 0.18187,0.0383 -0.009,0.0215 -0.0795,0.23593 -0.15713,0.47656 -1.15589,3.58479 -1.61585,7.74846 -1.39296,12.60937 0.22556,4.91925 0.6414,6.9508 2.09169,10.21875 2.66609,6.00757 6.20281,9.91578 10.54736,11.65523 2.25218,0.90171 4.44451,1.10123 6.71875,0.61147 3.04541,-0.65584 6.09808,-2.62334 8.65812,-5.58031 3.5089,-4.05296 5.88976,-9.70921 6.54362,-15.54576 0.16581,-1.48006 0.23675,-3.52551 0.16042,-4.625 -0.1841,-2.65175 -0.82788,-5.8635 -1.78645,-8.91233 -0.11994,-0.38146 -0.23877,-0.74312 -0.26407,-0.80368 -0.0253,-0.0606 -0.046,-0.11823 -0.046,-0.12816 0,-0.01 0.0937,-0.0139 0.20831,-0.009 l 0.20831,0.009 0.91595,3.57812 0.91594,3.57813 4.1e-4,3.95312 4e-4,3.95313 -0.8072,3.42187 -0.8072,3.42188 -1.46776,3.10043 -1.46776,3.10042 -2.10346,2.38998 -2.10347,2.38999 -2.69616,1.44029 -2.69616,1.4403 -1.886,0.28007 c -1.0373,0.15404 -1.93522,0.27868 -1.99537,0.27699 -0.0602,-0.002 -1.02344,-0.21959 -2.14063,-0.48421 z"
       id="path5486" /><path
       style="fill:#7dc343;fill-opacity:1;stroke-width:0.0221319"
       d="m 195.99734,220.53998 -0.19164,-0.0111 1.33228,-2.81738 1.33228,-2.81738 2.40594,-2.67863 2.40595,-2.67863 2.68177,-1.33752 2.68178,-1.33751 h 3.06568 3.06568 l 2.82621,1.4403 2.82622,1.44029 1.98512,2.2002 1.98512,2.2002 1.44619,2.46972 1.44619,2.46972 0.17674,0.69016 c 0.0972,0.37959 0.18219,0.70794 0.18884,0.72966 0.0111,0.0363 -0.005,0.039 -0.20274,0.0331 l -0.21483,-0.006 -0.19268,-0.51928 c -0.68713,-1.85181 -1.16605,-2.7766 -2.30589,-4.45257 -1.02421,-1.50595 -2.01375,-2.70238 -3.19857,-3.86733 -0.63339,-0.62277 -1.08177,-1.01834 -1.69349,-1.49405 -2.11236,-1.64271 -4.39513,-2.64358 -6.68994,-2.9332 -1.04561,-0.13196 -2.21732,-0.1166 -3.21513,0.0421 -1.66055,0.26417 -3.26076,0.8621 -4.81661,1.79977 -2.49836,1.50569 -4.97326,3.9992 -6.68964,6.73994 -0.86261,1.37744 -1.48645,2.65261 -2.08098,4.25369 l -0.1682,0.45299 z"
       id="path5488" /></g></svg>
