<?xml version="1.0" encoding="UTF-8" standalone="no"?>
<!-- Created with Inkscape (http://www.inkscape.org/) -->

<svg
   version="1.1"
   id="svg2"
   width="439.8967"
   height="439.89246"
   viewBox="0 0 439.8967 439.89246"
   xmlns="http://www.w3.org/2000/svg"
   xmlns:svg="http://www.w3.org/2000/svg">
  <defs
     id="defs6" />
  <g
     id="g8"
     transform="translate(-35.967255,-35.967255)">
    <path
       style="fill:#fffc29;fill-opacity:1"
       d="M 232.5,475.3318 C 206.49447,472.13713 183.18029,465.48678 161.20468,454.99485 94.075657,422.94508 47.0959,358.34008 37.579314,284.98935 34.63676,262.30911 35.795613,232.12823 40.458674,210 58.198712,125.8159 125.8159,58.198712 210,40.458674 c 22.12823,-4.663061 52.30911,-5.821914 74.98935,-2.87936 73.35073,9.516586 137.95573,56.496343 170.0055,123.625366 8.69375,18.20928 14.5135,36.50147 18.54695,58.29532 2.21679,11.97794 3.09909,47.71813 1.52128,61.62439 C 466.61939,355.54424 420.12126,421.14602 352.5,454.04222 319.99173,469.85674 291.81425,476.13983 254.69878,475.85017 244.13945,475.76776 234.15,475.53449 232.5,475.3318 Z M 347.96017,352.36446 c 5.61853,-3.31895 7.59984,-10.44706 4.54554,-16.35342 C 349.19364,329.60621 355.50388,330 256.18186,330 c -88.37426,0 -90.43444,0.0437 -93.14542,1.97405 -7.36159,5.24192 -5.91609,17.60587 2.46356,21.07192 1.1,0.45499 41.98057,0.85578 90.84571,0.89064 80.52276,0.0575 89.10508,-0.0898 91.61446,-1.57215 z M 182.94195,279.4246 c 17.35695,-5.15446 28.13091,-31.52451 22.55041,-55.19376 -7.76985,-32.95516 -39.61024,-39.61259 -53.96565,-11.28355 -11.33148,22.36161 -4.37488,55.268 13.67103,64.6673 6.7166,3.49837 10.69302,3.90399 17.74421,1.81001 z M 347.3987,277.17245 C 358.65905,271.07606 366,255.54405 366,237.81575 c 0,-15.14363 -4.75232,-27.64686 -13.57197,-35.70753 -12.60922,-11.52412 -28.90257,-8.91819 -38.94703,6.2291 -13.07349,19.71517 -10.37647,50.68138 5.67072,65.10918 8.80417,7.91571 18.21535,9.1571 28.24698,3.72595 z"
       id="path848" />
    <path
       style="fill:#6b6a31;fill-opacity:1;stroke-width:1.41644"
       d="m 168.29141,278.28678 c -12.43855,-4.67389 -21.2132,-21.901 -21.2132,-41.64752 0,-27.62912 20.49206,-47.72202 38.99529,-38.23572 7.45447,3.82178 10.99931,7.87818 15.70834,17.9753 3.42869,7.3518 3.94885,10.17592 3.90631,21.20904 -0.0418,10.84233 -0.62751,13.98498 -3.95361,21.2132 -4.55122,9.8906 -9.695,15.82974 -16.07359,18.55895 -4.55938,1.95083 -13.39025,2.422 -17.36954,0.92675 z"
       id="path1876" />
    <path
       style="fill:#6b6a31;fill-opacity:1;stroke-width:0.0442638"
       d="m 146.06203,236.53827 c 4.9e-4,-1.42266 0.11229,-3.42869 0.29003,-5.20387 0.38944,-3.88955 1.2292,-7.9627 2.36498,-11.47117 1.98093,-6.11912 5.07926,-11.63788 8.88092,-15.81873 6.71167,-7.38111 15.54892,-10.37618 24.23897,-8.21494 8.04782,2.00153 15.12418,8.22279 19.66014,17.28447 2.50125,4.99682 4.25875,10.91484 4.99758,16.82826 0.26922,2.15482 0.38665,3.78844 0.44871,6.24242 l 0.0304,1.20429 h -0.61832 -0.61832 l -0.0302,-2.39753 c -0.11363,-9.0139 -0.66086,-11.61982 -3.91871,-18.66099 -0.96378,-2.08301 -2.46468,-4.96726 -3.37674,-6.48905 -2.64224,-4.40856 -5.30627,-7.22511 -9.11443,-9.63621 -3.9712,-2.51434 -7.29718,-3.76434 -10.95148,-4.1159 -0.93194,-0.0896 -2.78038,-0.0896 -3.71231,0 -4.61124,0.44362 -9.06621,2.40835 -13.12567,5.78868 -3.23662,2.69515 -6.10791,6.2408 -8.42906,10.40871 -3.83235,6.88149 -5.99867,15.46991 -6.00011,23.78752 l -2.3e-4,1.31477 h -0.50823 -0.50824 l 2.9e-4,-0.85073 z"
       id="path2085" />
    <path
       style="fill:#6b6a31;fill-opacity:1;stroke-width:0.0885275"
       d="m 174.01617,280.57887 c -3.51269,-0.33881 -8.5723,-2.47076 -12.13402,-5.11288 -8.41606,-6.24311 -14.19722,-18.26656 -15.55649,-32.35384 -0.0774,-0.80212 -0.16452,-2.40306 -0.19362,-3.55763 l -0.0529,-2.09922 h 0.48563 0.48563 l 0.0555,1.78986 c 0.175,5.64832 1.21247,11.53356 2.97215,16.86008 3.42126,10.35607 9.40391,18.12555 16.57823,21.52961 2.65328,1.25893 4.70649,1.60438 9.00401,1.5149 3.16997,-0.066 5.52098,-0.37635 7.958,-1.0505 1.91882,-0.5308 3.66844,-1.35095 5.53282,-2.59357 4.39691,-2.93055 8.06735,-7.5277 11.53989,-14.45345 1.92106,-3.83141 3.2601,-7.16898 3.9174,-9.76416 0.66075,-2.60875 1.07045,-6.64658 1.07174,-10.56241 2.7e-4,-0.85073 0.0262,-1.9346 0.0576,-2.40858 l 0.0571,-0.86178 h 0.56119 0.56119 l -1.8e-4,0.86178 c -3.5e-4,2.20357 -0.35185,5.85973 -0.83932,8.73084 -2.17508,12.81099 -8.42404,23.75486 -16.70559,29.25672 -2.53386,1.68338 -4.77936,2.66681 -7.97368,3.49214 -2.95988,0.76475 -5.15299,0.9971 -7.38218,0.78209 z"
       id="path2087" />
    <path
       style="fill:#6b6a31;fill-opacity:1;stroke-width:0.0039124"
       d="m 146.12736,240.94629 c -0.001,-0.009 -0.003,-0.0359 -0.004,-0.0596 -0.001,-0.0236 -0.007,-0.12559 -0.0118,-0.22656 -0.0345,-0.6583 -0.0587,-1.32408 -0.0723,-1.99219 -0.0157,-0.76868 -0.0158,-1.78334 -5e-5,-2.49219 0.002,-0.0945 0.005,-0.22856 0.006,-0.29785 l 0.003,-0.12598 h 0.0117 0.0117 l -0.003,0.0791 c -0.005,0.15749 -0.01,0.67847 -0.0101,1.11527 l -8e-5,0.44632 0.51111,-0.001 0.5111,-10e-4 0.003,0.20508 c 0.009,0.72801 0.0372,1.59238 0.0769,2.38086 0.0141,0.28138 0.0505,0.91201 0.0559,0.96973 l 0.002,0.0166 h -0.0148 -0.0147 l -0.002,-0.0264 c -0.005,-0.0529 -0.028,-0.47907 -0.0412,-0.75879 -0.0227,-0.47871 -0.0287,-0.65039 -0.0665,-1.90234 -0.0131,-0.43291 -0.0247,-0.79458 -0.0258,-0.80371 l -0.002,-0.0166 h -0.48609 -0.48609 v 0.0193 c 0,0.023 0.0488,1.96999 0.0546,2.178 0.005,0.17693 0.01,0.33274 0.0178,0.54297 0.01,0.25989 0.0272,0.67348 0.0313,0.7334 l 0.002,0.0342 h -0.0274 -0.0274 z"
       id="path2089" />
    <path
       style="fill:#6b6a31;fill-opacity:1;stroke-width:0.0039124"
       d="m 147.22099,240.9541 c -0.004,-0.017 -0.0405,-0.653 -0.0568,-0.97754 -0.0362,-0.71826 -0.0566,-1.31747 -0.0747,-2.1914 -0.005,-0.25954 -0.009,-1.50576 -0.006,-1.80004 l 0.003,-0.23317 h 2.81399 2.81398 v 2.60547 2.60547 h -2.74602 -2.74601 z"
       id="path2091" />
    <path
       style="fill:#6b6a31;fill-opacity:1;stroke-width:0.0039124"
       d="m 147.22103,240.9541 c -9.8e-4,-0.005 -0.003,-0.0264 -0.004,-0.0479 -0.001,-0.0215 -0.007,-0.1252 -0.0138,-0.23047 -0.0644,-1.05284 -0.1012,-2.04243 -0.11735,-3.15625 -0.004,-0.29851 -0.005,-1.34139 -0.001,-1.59701 l 0.003,-0.17057 h 2.81382 2.81381 v 2.60547 2.60547 h -2.74602 -2.74601 z"
       id="path2093" />
    <path
       style="fill:#6b6a31;fill-opacity:1;stroke-width:0.0039124"
       d="m 147.22103,240.9541 c -0.002,-0.01 -0.004,-0.0415 -0.0237,-0.37402 -0.0615,-1.03862 -0.0962,-1.99026 -0.11144,-3.0586 -0.004,-0.30402 -0.005,-1.3509 -0.001,-1.60253 l 0.003,-0.167 h 2.81382 2.81381 v 2.60547 2.60547 h -2.74602 -2.74601 z"
       id="path2095" />
    <path
       style="fill:#6b6a31;fill-opacity:1;stroke-width:0.0039124"
       d="m 146.1314,240.95605 c -0.003,-0.0113 -0.006,-0.0584 -0.0181,-0.29785 -0.0387,-0.76798 -0.0566,-1.27012 -0.0746,-2.09375 -0.006,-0.2889 -0.009,-1.66534 -0.004,-2.00586 0.006,-0.37202 0.0115,-0.67951 0.0145,-0.75097 l 0.002,-0.0557 h 0.01 0.01 l -0.002,0.0283 c -0.004,0.0466 -0.01,0.54561 -0.0124,1.09571 l -0.002,0.5166 h 0.51165 0.51164 l 0.002,0.0908 c 10e-4,0.05 0.004,0.20859 0.006,0.35254 0.0111,0.70016 0.0396,1.51367 0.0802,2.28125 0.0146,0.2766 0.0415,0.73928 0.0472,0.81347 l 0.003,0.0322 h -0.012 c -0.0116,0 -0.012,-7e-4 -0.0142,-0.0205 -0.009,-0.0878 -0.0498,-0.89353 -0.0647,-1.28808 -0.006,-0.15363 -0.018,-0.52866 -0.0294,-0.90235 -0.0228,-0.74769 -0.0335,-1.08998 -0.0371,-1.18554 -0.002,-0.0559 -0.004,-0.10376 -0.004,-0.10645 -1e-5,-0.004 -0.10028,-0.005 -0.48829,-0.005 h -0.48829 l 1e-5,0.0283 c 0,0.0552 0.052,2.12011 0.0586,2.32715 0.0121,0.38045 0.0398,1.07084 0.0452,1.12793 l 0.002,0.0244 h -0.0254 c -0.0209,0 -0.0258,-0.001 -0.0274,-0.007 z"
       id="path2097" />
    <path
       style="fill:#6b6a31;fill-opacity:1;stroke-width:0.0156496"
       d="m 205.69827,249.10547 c 0.47403,-2.29941 0.81804,-4.69684 1.04311,-7.26953 0.12579,-1.43784 0.18021,-2.5539 0.18039,-3.69922 l 1e-4,-0.69141 h -0.56751 -0.56751 l -0.036,0.55789 c -0.0198,0.30684 -0.0414,0.70235 -0.048,0.87891 -0.007,0.17656 -0.008,-0.41727 -0.004,-1.31961 0.004,-0.90234 0.0107,-1.64355 0.014,-1.64714 0.003,-0.004 0.006,0.24955 0.006,0.5625 4e-5,0.31296 0.005,0.64812 0.0102,0.7448 l 0.0101,0.17578 h 0.6148 0.6148 l -2.8e-4,0.0977 c -7.3e-4,0.2594 -0.0323,1.55114 -0.0469,1.91797 -0.12478,3.1396 -0.4777,6.14324 -1.07951,9.1875 -0.12598,0.63732 -0.13778,0.6875 -0.16156,0.6875 -0.0154,0 -0.0112,-0.0432 0.0178,-0.18359 z"
       id="path2101" />
    <path
       style="fill:#6b6a31;fill-opacity:1;stroke-width:0.0156496"
       d="m 206.92432,238.17578 -0.002,-0.73047 h -0.56906 -0.56907 l -0.01,0.0977 c -0.005,0.0537 -0.0226,0.30508 -0.0384,0.55859 l -0.0286,0.46094 8.4e-4,-0.86719 c 5.8e-4,-0.59822 0.004,-0.77995 0.0117,-0.58594 0.006,0.15469 0.0118,0.28301 0.0128,0.28516 0.001,0.002 0.27793,0.004 0.61524,0.004 l 0.61328,-1e-5 -0.005,0.32423 c -0.003,0.17833 -0.0103,0.51759 -0.0171,0.75392 l -0.0122,0.42969 z"
       id="path2103" />
    <path
       style="fill:#6b6a31;fill-opacity:1;stroke-width:0.0156496"
       d="m 205.74412,237.17578 c -0.005,-0.11387 -0.013,-0.61836 -0.0177,-1.12109 -0.0315,-3.32734 -0.10827,-5.54905 -0.25045,-7.2494 -0.0126,-0.15006 -0.0228,-0.29244 -0.0228,-0.3164 v -0.0436 h 0.41407 c 0.22773,0 0.41406,0.005 0.41406,0.0118 0,0.006 0.0278,0.2016 0.0617,0.4336 0.35308,2.41366 0.52254,4.52451 0.59396,7.39837 0.009,0.34805 0.0199,0.73653 0.0249,0.86328 l 0.009,0.23047 h -0.60893 -0.60894 z"
       id="path2105" />
    <path
       style="fill:#6b6a31;fill-opacity:1;stroke-width:0.0156496"
       d="m 205.74412,237.19141 c -0.005,-0.10528 -0.0129,-0.60625 -0.0177,-1.11329 -0.0319,-3.389 -0.11359,-5.72004 -0.25788,-7.35937 -0.008,-0.0945 -0.0152,-0.19473 -0.0153,-0.22266 l -1.4e-4,-0.0508 h 0.41407 c 0.22773,0 0.41406,0.004 0.41406,0.008 0,0.005 0.0315,0.22562 0.07,0.49115 0.0704,0.48572 0.19827,1.49487 0.25739,2.03172 0.1802,1.63628 0.27447,3.15766 0.32823,5.29688 0.009,0.34804 0.0201,0.74004 0.0252,0.87109 l 0.009,0.23828 h -0.60915 -0.60915 z"
       id="path2107" />
    <path
       style="fill:#6b6a31;fill-opacity:1;stroke-width:0.0156496"
       d="m 205.69176,236.86719 c 0,-0.0387 0.003,-0.0545 0.007,-0.0352 0.004,0.0193 0.004,0.051 0,0.0703 -0.004,0.0193 -0.007,0.004 -0.007,-0.0352 z"
       id="path2109" />
    <path
       style="fill:#6b6a31;fill-opacity:1;stroke-width:0.0156496"
       d="m 189.45312,238.86719 v -10.42188 h 7.98438 7.98437 l 1.9e-4,0.043 c 1.6e-4,0.0236 0.0104,0.15899 0.023,0.30078 0.0737,0.83469 0.14064,2.04139 0.17977,3.24219 0.0822,2.52165 0.075,7.30437 -0.0154,10.20312 -0.0866,2.77616 -0.27677,5.00062 -0.5789,6.76996 -0.0254,0.14847 -0.0461,0.27327 -0.0461,0.27734 0,0.004 -3.49453,0.007 -7.76562,0.007 h -7.76563 z"
       id="path2111" />
    <path
       style="fill:#6b6a31;fill-opacity:1;stroke-width:0.0156496"
       d="m 189.45312,238.86719 v -10.42188 h 7.98438 7.98437 l 1.9e-4,0.043 c 1.6e-4,0.0236 0.0104,0.15899 0.023,0.30078 0.0746,0.84418 0.14163,2.05284 0.1799,3.24219 0.0934,2.90368 0.0709,8.19937 -0.0472,11.09375 -0.0977,2.3943 -0.29996,4.52613 -0.57181,6.02734 l -0.0248,0.13672 h -7.764 -7.764 z"
       id="path2113" />
    <path
       style="fill:#6b6a31;fill-opacity:1;stroke-width:0.0156496"
       d="m 189.45312,238.86719 v -10.42188 h 7.98192 7.98191 l 0.0183,0.21485 c 0.20421,2.39502 0.28134,5.63154 0.23811,9.99231 -0.0412,4.1542 -0.14842,6.46612 -0.40064,8.63659 -0.0751,0.64647 -0.21974,1.64964 -0.28213,1.95703 l -0.009,0.043 h -7.76438 -7.76439 z"
       id="path2115" />
    <path
       style="fill:#6b6a31;fill-opacity:1;stroke-width:0.0156496"
       d="m 205.74408,237.19141 c -0.005,-0.10528 -0.013,-0.60274 -0.0178,-1.10547 -0.0317,-3.33367 -0.10981,-5.60212 -0.25018,-7.26502 -0.0127,-0.15006 -0.023,-0.29596 -0.023,-0.32422 v -0.0514 h 0.41407 c 0.22773,0 0.41406,0.003 0.41406,0.006 0,0.003 0.0248,0.17714 0.055,0.38672 0.37702,2.61216 0.53365,4.59987 0.6087,7.7248 0.005,0.19766 0.0128,0.46309 0.018,0.58984 l 0.009,0.23047 h -0.60957 -0.60957 z"
       id="path2117" />
    <path
       style="fill:#6b6a31;fill-opacity:1;stroke-width:0.0156496"
       d="m 205.74406,237.20703 c -0.005,-0.0967 -0.0129,-0.57656 -0.0177,-1.06641 -0.01,-1.01924 -0.0345,-2.63559 -0.0462,-3.03906 -0.004,-0.15039 -0.0118,-0.41054 -0.0164,-0.57812 -0.0371,-1.33785 -0.10378,-2.6731 -0.17987,-3.60157 -0.0169,-0.20625 -0.0307,-0.39785 -0.0308,-0.42578 l -3e-5,-0.0508 h 0.41233 0.41232 l 0.009,0.0508 c 0.0395,0.22017 0.17659,1.24266 0.25923,1.9336 0.22137,1.85071 0.33161,3.49255 0.39079,5.82031 0.009,0.34375 0.0202,0.73926 0.0255,0.87891 l 0.01,0.2539 h -0.6095 -0.6095 z"
       id="path2119" />
    <path
       style="fill:#6b6a31;fill-opacity:1;stroke-width:0.0156496"
       d="m 205.744,237.22266 c -0.005,-0.0881 -0.0129,-0.55743 -0.0177,-1.04297 -0.0341,-3.46407 -0.1161,-5.83356 -0.2578,-7.44532 -0.008,-0.0945 -0.0152,-0.19824 -0.0152,-0.23046 l -1.4e-4,-0.0586 h 0.41233 0.41232 l 0.009,0.0508 c 0.0222,0.12116 0.13925,0.96628 0.19639,1.41797 0.22626,1.78834 0.34461,3.24434 0.41469,5.10156 0.018,0.47586 0.0706,2.22688 0.0706,2.34818 0,0.0146 -0.14087,0.019 -0.60787,0.019 h -0.60787 z"
       id="path2121" />
    <path
       style="fill:#6b6a31;fill-opacity:1;stroke-width:0.0156496"
       d="m 205.74391,237.22266 c -0.005,-0.0881 -0.013,-0.54336 -0.0177,-1.01172 -0.0344,-3.39098 -0.10221,-5.46347 -0.23438,-7.16077 -0.0213,-0.27318 -0.0387,-0.52103 -0.0387,-0.55078 v -0.0541 h 0.41246 0.41246 l 0.0166,0.0977 c 0.0244,0.14384 0.11917,0.82493 0.17332,1.24609 0.22285,1.73297 0.34876,3.21762 0.42271,4.98438 0.0141,0.3368 0.0778,2.425 0.078,2.55859 l 9e-5,0.0508 h -0.60787 -0.60787 z"
       id="path2123" />
    <path
       style="fill:#6b6a31;fill-opacity:1;stroke-width:0.0156496"
       d="m 205.74388,237.25391 c -0.005,-0.0709 -0.0128,-0.50508 -0.0176,-0.96485 -0.0367,-3.52642 -0.10503,-5.59594 -0.24218,-7.33856 -0.017,-0.21628 -0.0309,-0.41843 -0.0309,-0.44921 v -0.056 h 0.41283 0.41282 l 0.009,0.043 c 0.0189,0.093 0.13607,0.94736 0.20304,1.48047 0.24791,1.97352 0.36436,3.51406 0.43107,5.70312 0.0385,1.2635 0.0471,1.56263 0.0471,1.63459 v 0.0764 h -0.60797 -0.60797 z"
       id="path2125" />
    <path
       style="fill:#6b6a31;fill-opacity:1;stroke-width:0.0039124"
       d="m 173.58203,198.01367 c 0,-0.97754 0.001,-1.77735 0.003,-1.77736 0.002,-2e-5 0.0583,-0.008 0.12598,-0.0173 0.85887,-0.12081 1.78117,-0.18911 2.63086,-0.19481 0.10883,-7.3e-4 0.10328,-9.5e-4 -0.043,-0.002 -0.37755,-0.002 -0.97309,0.0158 -1.34766,0.0402 -0.35634,0.0232 -0.84404,0.0769 -1.30566,0.14368 l -0.0635,0.009 v -0.45377 -0.45377 l 0.04,-0.004 c 0.022,-0.002 0.0936,-0.0106 0.15918,-0.0181 0.54535,-0.0623 1.1434,-0.10613 1.73242,-0.12711 0.45546,-0.0162 1.07079,-0.0162 1.54492,1e-5 1.70595,0.0584 3.40729,0.31071 5.10352,0.75687 l 0.10156,0.0267 9.9e-4,0.45431 c 9.5e-4,0.43172 6.6e-4,0.45417 -0.006,0.45163 -0.004,-0.001 -0.0886,-0.0261 -0.1885,-0.0548 -1.12504,-0.32309 -2.24814,-0.54442 -3.41797,-0.67358 -0.3897,-0.043 -0.61751,-0.0604 -0.99804,-0.0763 -0.32693,-0.0136 -0.78898,-0.023 -1.02149,-0.0209 l -0.13867,0.001 0.17383,9.5e-4 c 1.02342,0.006 2.12964,0.1034 3.17187,0.2805 0.81585,0.13864 1.5726,0.31479 2.41895,0.56306 0.006,0.002 0.007,0.0749 0.007,1.46248 v 1.46049 h -4.34179 -4.3418 z"
       id="path2127" />
    <path
       style="fill:#6b6a31;fill-opacity:1;stroke-width:0.0039124"
       d="m 182.1543,196.83346 c -1.44453,-0.42412 -2.97611,-0.69082 -4.47266,-0.77885 -0.23387,-0.0137 -0.22821,-0.0133 -0.13672,-0.0113 0.2385,0.005 0.59032,0.0274 0.86328,0.0543 1.25842,0.12399 2.48622,0.35949 3.68946,0.70765 0.0784,0.0227 0.14829,0.0429 0.15527,0.0449 0.007,0.002 0.0127,0.006 0.0127,0.009 0,0.003 -10e-4,0.005 -0.003,0.005 -0.002,-2.2e-4 -0.0504,-0.0143 -0.1084,-0.0314 z"
       id="path2129" />
    <path
       style="fill:#6b6a31;fill-opacity:1;stroke-width:0.0039124"
       d="m 173.58203,198.01367 c 0,-0.97754 0.001,-1.77735 0.003,-1.77736 0.002,-2e-5 0.0583,-0.008 0.12598,-0.0173 0.84722,-0.11917 1.75235,-0.18701 2.59961,-0.19482 0.0703,-6.4e-4 0.0596,-0.001 -0.043,-0.002 -0.3403,-0.002 -0.95409,0.0166 -1.31641,0.0402 -0.33593,0.0219 -0.79671,0.0718 -1.2373,0.13405 l -0.13184,0.0186 v -0.45376 -0.45377 l 0.0225,-0.002 c 0.0124,-0.001 0.084,-0.009 0.15918,-0.018 0.56107,-0.0641 1.15199,-0.10765 1.75,-0.12907 0.45194,-0.0162 1.08896,-0.0162 1.54883,8e-5 1.72215,0.0608 3.43132,0.31494 5.11523,0.76065 l 0.0859,0.0227 9.9e-4,0.45438 c 8e-4,0.36572 4e-5,0.45401 -0.004,0.45248 -0.0246,-0.009 -0.39919,-0.1153 -0.56148,-0.15867 -1.0784,-0.28821 -2.19848,-0.49052 -3.31055,-0.59796 -0.43016,-0.0416 -0.95315,-0.0644 -1.56055,-0.0682 l -0.25585,-0.002 0.21093,0.003 c 1.42014,0.0212 2.81443,0.18967 4.20313,0.50797 0.39009,0.0894 0.80928,0.19864 1.18554,0.30892 0.044,0.0129 0.0832,0.0244 0.0869,0.0255 0.006,0.002 0.007,0.0749 0.007,1.46266 v 1.46068 h -4.34179 -4.3418 z m 2.97363,-1.99087 c -0.003,-10e-4 -0.007,-10e-4 -0.01,0 -0.003,0.001 -4.9e-4,0.002 0.005,0.002 0.005,0 0.008,-8.8e-4 0.005,-0.002 z"
       id="path2131" />
    <path
       style="fill:#6b6a31;fill-opacity:1;stroke-width:0.0039124"
       d="m 173.58203,198.01367 c 0,-0.97754 0.001,-1.77734 0.003,-1.77734 0.002,0 0.0207,-0.003 0.042,-0.006 0.12495,-0.0186 0.40486,-0.0548 0.57393,-0.0742 0.6691,-0.0766 1.30118,-0.11828 1.98242,-0.13066 0.15138,-0.003 0.15526,-0.003 0.0586,-0.004 -0.33544,-0.002 -0.99347,0.0197 -1.34766,0.0444 -0.33065,0.0231 -0.84319,0.0806 -1.26269,0.14173 l -0.0498,0.007 v -0.45387 -0.45387 l 0.0225,-0.002 c 0.0124,-0.001 0.084,-0.009 0.15918,-0.018 0.66586,-0.0759 1.33425,-0.12084 2.04297,-0.13734 0.21972,-0.005 0.95486,-0.003 1.14258,0.004 0.65498,0.0229 1.16984,0.0582 1.74414,0.11966 1.18148,0.12644 2.32623,0.3394 3.52148,0.65512 l 0.0488,0.0129 9.9e-4,0.45422 c 9.5e-4,0.43147 6.5e-4,0.45412 -0.006,0.45212 -0.0572,-0.0176 -0.20413,-0.0599 -0.33889,-0.0974 -1.1525,-0.32125 -2.29744,-0.53579 -3.49414,-0.65473 -0.43744,-0.0435 -0.94996,-0.0672 -1.55078,-0.0717 -0.1085,-8.3e-4 -0.17002,-9.6e-4 -0.13672,-3e-4 0.40586,0.008 0.67474,0.0181 0.98047,0.0368 1.21232,0.074 2.41662,0.25896 3.61133,0.55465 0.30858,0.0764 0.54303,0.14002 0.92285,0.2505 l 0.0127,0.004 v 1.46075 1.46076 h -4.34179 -4.3418 z m 3.08879,-1.99064 c -0.001,-0.001 -0.005,-0.001 -0.007,-3.1e-4 -0.003,0.001 -0.002,0.002 0.002,0.002 0.004,1.7e-4 0.006,-7.5e-4 0.005,-0.002 z"
       id="path2133" />
    <path
       style="fill:#6b6a31;fill-opacity:1;stroke-width:0.0039124"
       d="m 185.82422,198.27598 c -1.11505,-0.55707 -2.27754,-1.0217 -3.43555,-1.37316 -0.0871,-0.0264 -0.12144,-0.0385 -0.12233,-0.0429 -0.001,-0.005 6.7e-4,-0.006 0.01,-0.003 0.006,0.002 0.0611,0.0188 0.12234,0.0374 1.13224,0.34365 2.30831,0.81285 3.51465,1.40218 0.0983,0.048 0.10253,0.0505 0.10253,0.0612 0,0.006 -0.001,0.011 -0.003,0.0109 -0.002,-1.3e-4 -0.0864,-0.0419 -0.18848,-0.0929 z"
       id="path2137" />
    <path
       style="fill:#6b6a31;fill-opacity:1;stroke-width:0.250394"
       d="m 331.75,280.01673 c -11.36946,-2.41964 -21.13858,-13.6435 -24.75093,-28.43663 -1.23297,-5.04921 -1.59914,-8.24802 -1.59745,-13.9551 0.003,-9.05026 1.60895,-16.39872 5.22284,-23.89386 8.15209,-16.90728 23.43553,-23.18382 36.83822,-15.12857 8.27889,4.97576 14.56169,14.50391 17.00067,25.78231 1.25482,5.80254 1.69982,14.45397 1.0411,20.24012 -2.07743,18.24798 -11.46643,31.58103 -24.65835,35.0166 -2.55055,0.66424 -6.89561,0.84344 -9.0961,0.37513 z"
       id="path2139" />
    <path
       style="fill:#6b6a31;fill-opacity:1;stroke-width:0.0039124"
       d="m 345.33203,197.44678 c -0.19842,-0.0964 -0.49594,-0.23424 -0.73047,-0.33839 -2.39597,-1.06401 -4.85418,-1.70495 -7.34375,-1.91475 -0.16045,-0.0135 -0.51372,-0.0389 -0.54785,-0.0393 -0.002,-2e-5 -0.003,-0.0379 -0.003,-0.0841 v -0.0841 l 0.0244,0.002 c 0.0134,0.001 0.0666,0.005 0.11816,0.008 0.0516,0.003 0.1623,0.0111 0.24609,0.0176 2.48181,0.19063 4.93791,0.80511 7.33399,1.83485 0.28597,0.1229 0.65508,0.29024 0.88574,0.40154 l 0.0752,0.0363 v 0.094 c 0,0.0517 -4.3e-4,0.094 -9.7e-4,0.0939 -5.4e-4,-8e-5 -0.0265,-0.0125 -0.0576,-0.0277 z"
       id="path2141" />
    <path
       style="fill:#6b6a31;fill-opacity:1;stroke-width:0.0156496"
       d="m 327.04687,203.66642 v -6.8414 l 0.3086,-0.12137 c 2.09895,-0.82553 4.19656,-1.32351 6.3164,-1.49953 0.68293,-0.0567 0.86645,-0.0632 1.78125,-0.0634 0.9169,-1.3e-4 1.16647,0.009 1.8125,0.0635 3.4889,0.29663 6.93181,1.44731 10.1875,3.40485 4.08959,2.45893 7.74641,6.05991 10.69478,10.53147 0.30232,0.45852 0.8521,1.33407 0.8521,1.35703 0,0.006 -7.18945,0.0102 -15.97656,0.0102 h -15.97657 z"
       id="path2143" />
    <path
       style="fill:#6b6a31;fill-opacity:1;stroke-width:0.0156496"
       d="m 358.89734,210.28516 c -2.18743,-3.56003 -4.74278,-6.56096 -7.67078,-9.00831 -1.68962,-1.41226 -3.60904,-2.68731 -5.41004,-3.59384 l -0.42566,-0.21426 -1.2e-4,-0.0899 -1.2e-4,-0.0899 0.30079,0.15048 c 3.45938,1.73078 6.66684,4.26815 9.52808,7.53751 1.46748,1.67679 2.91147,3.66434 4.00979,5.51919 0.004,0.006 -0.0385,0.0117 -0.0941,0.0117 h -0.10103 z"
       id="path2145" />
    <path
       style="fill:#6b6a31;fill-opacity:1;stroke-width:0.0039124"
       d="m 327.44922,196.55339 v -0.10137 l 0.0166,-0.007 c 0.009,-0.004 0.0764,-0.0291 0.14941,-0.0566 2.00114,-0.75267 4.07004,-1.21557 6.14454,-1.3748 0.35182,-0.027 0.63185,-0.0421 1.0332,-0.0557 0.16685,-0.006 0.9975,-0.007 1.2041,-0.002 l 0.13574,0.003 v 0.0838 0.0838 l -0.15918,-0.003 c -0.2368,-0.005 -0.94494,-0.004 -1.11426,0.002 -0.28688,0.009 -0.52632,0.0206 -0.76562,0.036 -2.12366,0.13662 -4.22566,0.58927 -6.2789,1.35211 -0.13178,0.049 -0.35671,0.13491 -0.3627,0.1386 -0.002,9.9e-4 -0.003,-0.0438 -0.003,-0.0996 z"
       id="path2147" />
    <path
       style="fill:#6b6a31;fill-opacity:1;stroke-width:0.0039124"
       d="m 336.66211,195.15175 c -0.0226,-0.002 -0.34467,-0.0169 -0.42774,-0.0191 -0.0462,-0.001 -0.0879,-0.003 -0.0928,-0.004 -0.009,-0.002 -0.009,-0.002 -0.009,-0.0837 v -0.082 l 0.0381,1e-5 c 0.0615,1e-5 0.52816,0.0217 0.5307,0.0246 3.6e-4,4.2e-4 0.002,0.0381 0.004,0.0838 l 0.003,0.083 -0.0171,-6.3e-4 c -0.009,-3.4e-4 -0.0223,-0.001 -0.0288,-0.002 z"
       id="path2149" />
    <path
       style="fill:#6b6a31;fill-opacity:1;stroke-width:0.0039124"
       d="m 335.06055,280.48243 c -1.4288,-0.0311 -2.78169,-0.19936 -4.16602,-0.51811 -0.25546,-0.0588 -0.54033,-0.1308 -0.84863,-0.21443 l -0.0693,-0.0188 v -0.0814 c 0,-0.0448 10e-4,-0.0814 0.002,-0.0814 0.001,0 0.0439,0.0122 0.0947,0.027 0.65114,0.19049 1.44303,0.38475 1.91849,0.47064 0.5527,0.0998 1.26169,0.1685 2.04101,0.19766 0.27992,0.0105 0.38037,0.0123 0.79492,0.0144 0.42523,0.002 0.69077,-6.3e-4 1.00782,-0.0106 0.95956,-0.03 1.86871,-0.0998 2.77148,-0.21274 0.0258,-0.003 0.0482,-0.006 0.0498,-0.006 0.002,-2e-5 0.003,0.043 0.003,0.0957 0,0.0742 -0.001,0.0957 -0.005,0.0957 -0.003,0 -0.0711,0.01 -0.15192,0.0214 -0.84174,0.12259 -1.61025,0.18966 -2.48576,0.21694 -0.17425,0.005 -0.77355,0.008 -0.95703,0.004 z"
       id="path2151" />
    <path
       style="fill:#6b6a31;fill-opacity:1;stroke-width:0.0039124"
       d="m 329.85547,279.69674 c -1.72043,-0.49721 -3.31595,-1.16773 -4.96485,-2.08648 -0.47625,-0.26536 -0.91041,-0.52567 -1.45788,-0.87409 l -0.0458,-0.0291 0.15848,-10e-4 0.15848,-0.001 0.14706,0.0906 c 1.54398,0.95146 3.12867,1.72419 4.74668,2.31459 0.41274,0.15061 0.89458,0.31117 1.28218,0.42725 l 0.0966,0.029 5e-5,0.0811 c 4e-5,0.0747 -4.9e-4,0.081 -0.007,0.0807 -0.004,-2e-4 -0.0552,-0.0143 -0.11426,-0.0314 z"
       id="path2153" />
    <path
       style="fill:#6b6a31;fill-opacity:1;stroke-width:0.0039124"
       d="m 323.2415,276.61199 c -0.85794,-0.56032 -1.71912,-1.18776 -2.55791,-1.86364 l -0.11914,-0.096 0.12779,-0.001 0.12779,-10e-4 0.12416,0.0989 c 0.84844,0.67597 1.73649,1.30855 2.63165,1.87457 l 0.12858,0.0813 h -0.1602 -0.1602 z"
       id="path2155" />
    <path
       style="fill:#6b6a31;fill-opacity:1;stroke-width:0.0039124"
       d="m 320.50586,274.60496 c -1.23134,-1.01226 -2.24117,-1.94644 -3.24766,-3.00437 l -0.0715,-0.0752 h 0.13042 0.13041 l 0.0582,0.0615 c 0.35753,0.37784 0.86735,0.88898 1.25601,1.25927 0.6226,0.59318 1.30136,1.19087 1.93555,1.70438 0.058,0.047 0.10893,0.0886 0.11317,0.0926 0.007,0.007 0.004,0.007 -0.1211,0.007 l -0.12879,-2.4e-4 z"
       id="path2157" />
    <path
       style="fill:#6b6a31;fill-opacity:1;stroke-width:0.0039124"
       d="m 317.10099,271.43432 c -0.90561,-0.97001 -1.68313,-1.89352 -2.48036,-2.94604 -0.11518,-0.15207 -0.29641,-0.39561 -0.29641,-0.39834 0,-0.001 0.0567,-0.002 0.12598,-0.002 l 0.12597,1.8e-4 0.11007,0.1476 c 0.80583,1.0806 1.72501,2.18168 2.62199,3.14086 0.0571,0.0611 0.11151,0.11955 0.12084,0.12988 l 0.017,0.0188 -0.13025,-2.5e-4 -0.13024,-2.6e-4 -0.0846,-0.0906 z"
       id="path2159" />
    <path
       style="fill:#6b6a31;fill-opacity:1;stroke-width:0.0039124"
       d="m 314.28512,268.03809 c -0.86144,-1.16865 -1.78261,-2.59116 -2.52513,-3.89942 -0.0274,-0.0483 -0.0534,-0.0936 -0.0576,-0.10064 l -0.008,-0.0128 0.11403,10e-4 0.11402,10e-4 0.0509,0.0879 c 0.75042,1.29703 1.5329,2.50352 2.38144,3.67188 0.057,0.0784 0.12568,0.17246 0.15272,0.20898 0.0271,0.0365 0.0532,0.0721 0.0581,0.0791 l 0.009,0.0127 h -0.12646 -0.12646 z"
       id="path2161" />
    <path
       style="fill:#6b6a31;fill-opacity:1;stroke-width:0.0625984"
       d="m 333.09375,280.17773 c -1.32206,-0.1572 -2.27871,-0.37702 -3.75229,-0.86223 -8.75319,-2.88218 -16.28239,-10.92457 -20.48198,-21.878 -1.579,-4.1184 -2.81697,-9.42544 -3.20014,-13.71875 -0.26843,-3.00769 -0.29666,-8.16064 -0.0595,-10.85938 l 0.0398,-0.45312 h 29.95201 29.95201 l 0.0392,0.60937 c 0.20658,3.21493 0.21406,8.19281 0.0155,10.32813 -0.92056,9.90119 -4.04481,18.70155 -8.96142,25.24239 -1.80115,2.39618 -4.07233,4.69182 -6.32447,6.3926 -2.88654,2.17988 -6.12429,3.75736 -9.46875,4.61334 -0.9768,0.25 -2.28227,0.45628 -3.5625,0.56291 -0.69116,0.0576 -3.75465,0.0742 -4.1875,0.0227 z"
       id="path2163" />
    <path
       style="fill:#6b6a31;fill-opacity:1;stroke-width:0.0625984"
       d="m 333.95993,280.40258 c -1.4762,-0.12275 -1.31702,-0.15479 0.72757,-0.14644 l 2.09375,0.009 -2,-0.0463 c -2.13908,-0.0495 -2.54608,-0.0954 -3.88204,-0.43791 -8.03777,-2.06075 -15.31591,-8.52123 -20.01698,-17.76819 -1.73258,-3.40796 -3.06962,-7.11047 -4.0051,-11.09082 -1.08187,-4.60325 -1.44011,-7.85308 -1.43816,-13.04651 7.3e-4,-1.93205 0.0685,-4.08013 0.15914,-5.04688 l 0.0396,-0.42187 h 29.95391 29.95391 l 0.0422,0.70312 c 0.12847,2.14314 0.15944,3.18485 0.16024,5.39063 10e-4,3.72198 -0.15426,5.77749 -0.68723,9.07777 -1.44449,8.94455 -4.7471,16.67647 -9.61746,22.51598 -0.72355,0.86753 -2.49619,2.68787 -3.33,3.4196 -1.97546,1.73363 -3.88843,3.02764 -6.11321,4.13524 -2.91901,1.45322 -5.35663,2.17976 -8.28651,2.46979 -0.47836,0.0473 -0.7491,0.0893 -0.60165,0.0932 0.14745,0.004 0.53699,-0.0229 0.86566,-0.0595 0.55068,-0.0614 0.72323,-0.0508 0.63342,0.039 -0.16256,0.16256 -3.44451,0.31175 -4.65099,0.21142 z"
       id="path2165" />
    <path
       style="fill:#6b6a31;fill-opacity:1;stroke-width:0.0039124"
       d="m 311.69644,264.02226 c -0.0109,-0.007 -0.33212,-0.58809 -0.52939,-0.95781 -0.37636,-0.70537 -0.76637,-1.48744 -1.10352,-2.21289 -0.0709,-0.1525 -0.11431,-0.24745 -0.11431,-0.24992 0,-10e-4 0.0446,-0.002 0.0991,-0.002 h 0.0991 l 0.0118,0.0264 c 0.007,0.0145 0.0408,0.0879 0.0762,0.16308 0.46828,0.99406 0.97247,1.97159 1.50202,2.91211 0.0695,0.12344 0.16592,0.29288 0.17729,0.31153 l 0.008,0.0127 -0.11067,-6e-5 c -0.0609,-3e-5 -0.1128,-10e-4 -0.1154,-0.003 z"
       id="path2167" />
    <path
       style="fill:#6b6a31;fill-opacity:1;stroke-width:0.0039124"
       d="m 309.92702,260.55566 c -0.36962,-0.81713 -0.62196,-1.40779 -0.91244,-2.13574 -0.19757,-0.49512 -0.43664,-1.1244 -0.59105,-1.55574 l -0.005,-0.0147 0.0883,10e-4 0.0883,10e-4 0.0331,0.0899 c 0.44335,1.20503 0.92515,2.37129 1.44866,3.50668 0.0374,0.081 0.0679,0.14825 0.0679,0.14941 0,0.001 -0.0445,0.002 -0.0988,0.002 h -0.0988 z"
       id="path2169" />
    <path
       style="fill:#6b6a31;fill-opacity:1;stroke-width:0.0039124"
       d="m 308.40624,256.81543 c -0.19573,-0.53672 -0.48062,-1.38525 -0.69082,-2.05762 -0.10673,-0.34138 -0.30917,-1.01567 -0.30917,-1.02977 0,-0.002 0.0343,-0.003 0.0825,-0.003 l 0.0825,0.001 0.0153,0.0527 c 0.19113,0.65831 0.46631,1.52389 0.69978,2.20117 0.0935,0.27115 0.25549,0.72862 0.29727,0.83933 0.006,0.0148 0.0101,0.0275 0.0101,0.0283 0,8.2e-4 -0.0394,0.001 -0.0875,0.001 h -0.0875 z"
       id="path2171" />
    <path
       style="fill:#6b6a31;fill-opacity:1;stroke-width:0.0039124"
       d="m 307.35949,253.56934 c -0.35993,-1.2594 -0.67792,-2.53953 -0.93564,-3.76661 -0.0142,-0.0677 -0.0268,-0.12703 -0.028,-0.13191 l -0.002,-0.009 0.0791,0.001 0.0791,10e-4 0.0596,0.26758 c 0.20042,0.89953 0.42011,1.81119 0.61374,2.54688 0.0966,0.36694 0.29815,1.094 0.34357,1.23925 0.002,0.006 -0.004,0.007 -0.0813,0.007 h -0.0835 z"
       id="path2173" />
    <path
       style="fill:#6b6a31;fill-opacity:1;stroke-width:0.0039124"
       d="m 306.40062,249.65859 c -0.009,-0.003 -0.005,0.0139 -0.0761,-0.33828 -0.27393,-1.35575 -0.49418,-2.69265 -0.67185,-4.07812 -0.0271,-0.21162 -0.0706,-0.56639 -0.0706,-0.57629 0,-0.002 0.0261,-0.004 0.0664,-0.004 0.0365,0 0.0664,0.001 0.0664,0.003 10e-6,0.005 0.0351,0.31107 0.049,0.42676 0.16729,1.39146 0.4116,2.82595 0.74244,4.35937 0.0225,0.1042 0.0419,0.19429 0.0432,0.2002 l 0.002,0.0107 -0.0718,-2.7e-4 c -0.0395,-1.6e-4 -0.0752,-0.002 -0.0794,-0.003 z"
       id="path2175" />
    <path
       style="fill:#6b6a31;fill-opacity:1;stroke-width:0.0039124"
       d="m 305.58039,244.6511 c -0.001,-0.006 -0.0109,-0.0878 -0.0217,-0.18235 -0.0991,-0.87106 -0.17644,-1.70675 -0.23628,-2.55273 -0.009,-0.13108 -0.0255,-0.36963 -0.0255,-0.37598 -1e-5,-0.002 0.0404,-0.003 0.0898,-0.003 0.0494,0 0.0898,0.001 0.0899,0.003 7e-5,0.009 0.0169,0.34157 0.0236,0.46582 0.0421,0.7828 0.10046,1.5458 0.17391,2.27344 0.016,0.15798 0.0359,0.34739 0.0388,0.3679 l 0.002,0.0144 h -0.0662 -0.0661 z"
       id="path2177" />
    <path
       style="fill:#6b6a31;fill-opacity:1;stroke-width:0.0039124"
       d="m 305.29528,241.51074 c -0.008,-0.0875 -0.0431,-0.72602 -0.0589,-1.06933 -0.0388,-0.84382 -0.0565,-1.56495 -0.063,-2.56543 l -0.003,-0.40137 h 0.1133 0.11329 l 0.003,0.53613 c 0.007,1.41356 0.0284,2.44584 0.0707,3.3877 0.003,0.0709 0.006,0.1311 0.006,0.13379 0,0.004 -0.0205,0.005 -0.0894,0.005 h -0.0894 z"
       id="path2179" />
    <path
       style="fill:#6b6a31;fill-opacity:1;stroke-width:0.0039124"
       d="m 305.17707,237.12598 c 0.005,-0.73888 0.0347,-1.7449 0.0691,-2.37207 0.002,-0.0387 0.004,-0.0751 0.004,-0.0811 v -0.0107 h 0.1059 0.1059 l -0.002,0.0459 c -0.006,0.11415 -0.0224,0.58024 -0.0315,0.90722 -0.0131,0.46997 -0.0207,0.88156 -0.0235,1.28516 -10e-4,0.16436 -0.003,0.36079 -0.004,0.43652 l -0.002,0.1377 h -0.11151 -0.11151 z"
       id="path2181" />
    <path
       style="fill:#6b6a31;fill-opacity:1;stroke-width:0.0039124"
       d="m 305.25177,234.63184 c 10e-4,-0.0166 0.005,-0.0821 0.008,-0.14551 0.0296,-0.57672 0.0816,-1.3148 0.14063,-1.99414 0.0217,-0.24944 0.083,-0.88864 0.0901,-0.93848 l 0.002,-0.0166 h 0.0874 c 0.0812,0 0.0875,5e-4 0.0875,0.007 0,0.004 -0.006,0.0746 -0.0135,0.15723 -0.068,0.75655 -0.12408,1.55422 -0.16416,2.33389 -0.009,0.16634 -0.0294,0.60712 -0.0294,0.62177 0,0.004 -0.0206,0.005 -0.10574,0.005 h -0.10574 z"
       id="path2183" />
    <path
       style="fill:#6b6a31;fill-opacity:1;stroke-width:0.0039124"
       d="m 305.49384,231.51855 c 0.001,-0.0102 0.0103,-0.0933 0.02,-0.18457 0.0833,-0.78395 0.19798,-1.67193 0.32013,-2.47851 0.0276,-0.18193 0.0617,-0.40327 0.0665,-0.43067 l 0.002,-0.0127 h 0.0725 0.0725 l -0.002,0.0127 c -0.01,0.0523 -0.0844,0.57871 -0.1214,0.8545 -0.0889,0.66255 -0.19078,1.55963 -0.24431,2.15039 -0.004,0.0494 -0.009,0.0938 -0.01,0.0986 l -0.002,0.009 h -0.0882 -0.0882 z"
       id="path2185" />
    <path
       style="fill:#6b6a31;fill-opacity:1;stroke-width:0.0039124"
       d="m 305.91975,228.30176 c 10e-4,-0.005 0.023,-0.13623 0.0488,-0.29199 0.22005,-1.32949 0.48886,-2.65303 0.80884,-3.98243 0.0275,-0.11413 0.14091,-0.56808 0.22573,-0.90332 l 0.006,-0.0244 h 0.064 c 0.0591,0 0.0638,5.2e-4 0.0618,0.007 -0.0133,0.0421 -0.17632,0.68724 -0.23076,0.91308 -0.33038,1.37057 -0.60327,2.74922 -0.81458,4.11524 -0.0128,0.0827 -0.0242,0.1561 -0.0254,0.16308 l -0.002,0.0127 h -0.0722 -0.0722 z"
       id="path2187" />
    <path
       style="fill:#6b6a31;fill-opacity:1;stroke-width:0.0039124"
       d="m 305.90237,228.41113 c 10e-6,-5.3e-4 0.004,-0.0212 0.008,-0.0459 0.004,-0.0247 0.008,-0.0462 0.008,-0.0478 2e-5,-0.002 0.0326,-0.003 0.0724,-0.003 h 0.0723 l -0.002,0.009 c -10e-4,0.005 -0.004,0.022 -0.006,0.0381 -0.002,0.0161 -0.005,0.0341 -0.006,0.04 l -0.002,0.0107 h -0.0719 c -0.0396,0 -0.0719,-4.4e-4 -0.0719,-9.8e-4 z"
       id="path2189" />
    <path
       style="fill:#6b6a31;fill-opacity:1;stroke-width:0.0039124"
       d="m 307.01172,223.09567 c 0,-0.0135 0.16825,-0.6387 0.26794,-0.99561 0.36215,-1.29658 0.8178,-2.70934 1.26821,-3.93209 l 0.0245,-0.0664 0.0834,-0.001 c 0.0785,-0.001 0.0833,-6.5e-4 0.0807,0.006 -0.0181,0.0458 -0.16994,0.45441 -0.22466,0.60457 -0.53296,1.46271 -0.97456,2.87107 -1.37149,4.37402 l -0.004,0.0147 h -0.0623 c -0.0393,0 -0.0623,-0.001 -0.0623,-0.004 z"
       id="path2191" />
    <path
       style="fill:#6b6a31;fill-opacity:1;stroke-width:0.0039124"
       d="m 308.57422,218.09738 c 0,-0.004 0.17826,-0.47817 0.25122,-0.66769 0.48685,-1.2645 0.99927,-2.45322 1.57106,-3.64453 0.0726,-0.15123 0.2495,-0.51326 0.30303,-0.62012 l 0.0328,-0.0654 h 0.0987 c 0.0543,0 0.0987,6.8e-4 0.0987,0.002 0,8.3e-4 -0.038,0.0786 -0.0844,0.17285 -0.78883,1.60133 -1.49191,3.209 -2.07877,4.75337 l -0.0267,0.0703 -0.0828,0.001 c -0.0455,5.8e-4 -0.0828,-2e-5 -0.0828,-0.001 z"
       id="path2193" />
    <path
       style="fill:#6b6a31;fill-opacity:1;stroke-width:0.0039124"
       d="m 310.73437,213.09703 c 0,-10e-4 0.0442,-0.0897 0.0982,-0.19629 0.45921,-0.90575 0.91876,-1.74569 1.42145,-2.59801 0.10474,-0.17758 0.19076,-0.32136 0.19454,-0.32514 0.002,-0.002 0.0481,-0.003 0.10309,-0.002 l 0.1,10e-4 -0.0587,0.0977 c -0.5419,0.90108 -1.05372,1.82821 -1.56069,2.82709 l -0.10059,0.19819 -0.0986,5e-5 c -0.0543,3e-5 -0.0986,-10e-4 -0.0986,-0.003 z"
       id="path2195" />
    <path
       style="fill:#6b6a31;fill-opacity:1;stroke-width:0.00553297"
       d="m 318.86935,201.92162 c 0.11909,-0.114 0.46896,-0.43009 0.69596,-0.62875 2.10964,-1.84631 4.37243,-3.3112 6.75066,-4.37026 0.18202,-0.0811 0.42894,-0.18679 0.62977,-0.26966 0.15845,-0.0654 0.48873,-0.19604 0.49559,-0.19604 0.002,0 0.004,0.0443 0.004,0.0984 v 0.0984 l -0.15053,0.06 c -1.91119,0.76165 -3.77441,1.79722 -5.54499,3.08189 -0.84856,0.61568 -1.70536,1.31344 -2.49808,2.03439 l -0.14198,0.12912 -0.13976,-1.8e-4 -0.13976,-1.7e-4 z"
       id="path2197" />
    <path
       style="fill:#6b6a31;fill-opacity:1;stroke-width:0.00553297"
       d="m 313.91674,207.70146 c 0,-0.008 0.32957,-0.47443 0.51853,-0.73462 1.32966,-1.83093 2.76117,-3.46975 4.28898,-4.91009 l 0.10359,-0.0977 h 0.14096 0.14096 l -0.0374,0.0348 c -0.45978,0.42847 -0.66222,0.62484 -1.10022,1.06725 -1.17057,1.18234 -2.32725,2.54914 -3.38705,4.00233 -0.11478,0.15739 -0.35352,0.49158 -0.41148,0.576 l -0.0442,0.0644 -0.10635,2.3e-4 c -0.0585,1.3e-4 -0.10634,-0.001 -0.10634,-0.003 z"
       id="path2199" />
    <path
       style="fill:#6b6a31;fill-opacity:1;stroke-width:0.00553297"
       d="m 312.45281,209.97243 c 0,-0.003 0.12683,-0.21228 0.25847,-0.42575 0.34815,-0.5646 0.73568,-1.16173 1.08964,-1.67899 l 0.11179,-0.16336 h 0.10736 0.10735 l -0.0107,0.0152 c -0.40789,0.58052 -0.92934,1.37865 -1.35074,2.06746 l -0.11322,0.18506 -0.1,0.002 c -0.055,8.3e-4 -0.1,3.2e-4 -0.1,-0.001 z"
       id="path2201" />
    <path
       style="fill:#6b6a31;fill-opacity:1;stroke-width:0.70822"
       d="m 201.04606,353.21874 c -34.66917,-0.36393 -35.52683,-0.40651 -37.47666,-1.86059 -3.14616,-2.34622 -4.77342,-5.74007 -4.77342,-9.95554 0,-4.02074 1.245,-6.35117 4.81812,-9.01873 1.94867,-1.45481 2.14412,-1.45787 91.8802,-1.44079 60.63857,0.0115 90.61826,0.25766 92.04868,0.7557 2.48791,0.86623 5.08232,4.40122 5.71833,7.79148 0.7409,3.94933 -0.28912,7.26538 -3.23914,10.42808 l -2.73105,2.92793 -21.79438,0.46404 c -24.06638,0.5124 -70.14302,0.4785 -124.45068,-0.0916 z"
       id="path2203" />
    <path
       style="fill:#6b6a31;fill-opacity:1;stroke-width:0.0039124"
       d="m 280.11328,353.80859 v -0.13476 l 0.63379,-8e-5 c 0.93804,-1.1e-4 5.62186,-0.007 6.92188,-0.01 l 1.12792,-0.003 v 0.14119 0.14119 h -4.34179 -4.3418 z"
       id="path2205" />
    <path
       style="fill:#6b6a31;fill-opacity:1;stroke-width:0.00553297"
       d="m 287.99962,330.97474 c -0.079,-6.3e-4 -1.76072,-0.004 -3.73717,-0.007 -1.97645,-0.003 -4.417,-0.007 -5.42345,-0.009 l -1.82992,-0.004 v -0.47705 -0.47705 h 6.14023 6.14023 v 0.4889 0.48889 l -0.57315,-10e-4 c -0.31522,-7.1e-4 -0.63777,-0.002 -0.71677,-0.002 z"
       id="path2207" />
    <path
       style="fill:#6b6a31;fill-opacity:1;stroke-width:0.0625984"
       d="m 260.46875,353.61842 c -33.52871,-0.12204 -86.17982,-0.64284 -88.39063,-0.87431 L 171.75,352.70975 V 341.9742 331.23865 l 1.85937,-0.0414 c 7.96852,-0.17736 15.04389,-0.19722 69.64063,-0.19548 30.85156,9.8e-4 58.64609,0.0255 61.76562,0.0545 l 5.67188,0.0527 v 11.20105 11.20104 l -5.01563,0.0414 c -5.60119,0.0463 -37.73535,0.0932 -45.20312,0.066 z"
       id="path2209" />
    <path
       style="fill:#6b6a31;fill-opacity:1;stroke-width:0.0625984"
       d="m 171.74994,330.83429 6e-5,-0.35321 0.70312,-0.0387 c 5.34086,-0.29399 25.25432,-0.40809 71.53125,-0.40987 L 277,330.03125 v 0.43059 0.4306 l -45.39063,0.0324 c -42.40603,0.0303 -52.24669,0.0673 -58.1563,0.21898 l -1.70319,0.0437 z"
       id="path2211" />
    <path
       style="fill:#6b6a31;fill-opacity:1;stroke-width:0.250394"
       d="m 328.875,331.11115 c -6.7375,-0.0919 -18.35313,-0.18269 -25.8125,-0.20166 -12.42067,-0.0316 -13.5625,-0.0692 -13.5625,-0.44682 0,-0.38116 1.68701,-0.40091 22.3125,-0.26134 20.64353,0.1397 29.0021,0.37102 32.63251,0.90311 1.71504,0.25137 2.33824,0.2511 -15.57001,0.007 z"
       id="path2213" />
    <path
       style="fill:#6b6a31;fill-opacity:1;stroke-width:0.250394"
       d="m 244.625,353.47595 c -31.05747,-0.2176 -67.9581,-0.65303 -72.62692,-0.85701 -6.73382,-0.29419 -7.55017,-0.50603 -9.51265,-2.46851 -1.59656,-1.59656 -2.76876,-3.69729 -3.23677,-5.80069 -0.45524,-2.04604 -0.22862,-5.79752 0.44022,-7.28743 0.58207,-1.29661 2.54809,-3.51495 4.01054,-4.52525 1.92785,-1.3318 -1.15722,-1.2885 90.42558,-1.26927 52.96256,0.0111 86.39094,0.11121 89.125,0.26687 4.18628,0.23833 4.42116,0.27965 5.44502,0.95791 1.3419,0.88893 3.09202,3.19429 3.85017,5.07167 0.48957,1.2123 0.57981,1.88322 0.57981,4.31076 0,2.75976 -0.0334,2.94155 -0.83351,4.53546 -1.17683,2.34441 -4.58345,6.03249 -5.77789,6.25528 -2.71045,0.50555 -69.53205,1.03691 -101.8886,0.81021 z"
       id="path2215" />
    <path
       style="fill:#6b6a31;fill-opacity:1;stroke-width:0.250394"
       d="m 251.48391,353.53809 c -0.0776,-0.0845 -8.23385,-0.17542 -18.125,-0.20209 -25.39768,-0.0685 -53.67881,-0.39057 -60.73391,-0.69171 -7.41636,-0.31656 -8.14033,-0.49462 -10.13957,-2.49386 -1.59656,-1.59656 -2.76876,-3.69729 -3.23677,-5.80069 -0.45524,-2.04604 -0.22862,-5.79752 0.44022,-7.28743 0.58207,-1.29661 2.54809,-3.51495 4.01054,-4.52525 1.92787,-1.33181 -1.16581,-1.28841 90.55058,-1.27035 53.75324,0.0106 86.43917,0.10899 89.1408,0.26836 4.19647,0.24756 4.28444,0.26447 5.4123,1.04046 1.33688,0.9198 2.6684,2.64467 3.63586,4.70996 0.62858,1.34184 0.68604,1.71579 0.68604,4.46451 0,2.90144 -0.0274,3.05455 -0.83351,4.66046 -1.17683,2.34441 -4.58345,6.03249 -5.77789,6.25528 -2.5393,0.47363 -94.61951,1.3189 -95.02969,0.87235 z"
       id="path2217" />
    <path
       style="fill:#6b6a31;fill-opacity:1;stroke-width:0.250394"
       d="m 224.25,353.36256 c -30.77985,-0.26173 -54.25796,-0.67366 -56.99078,-0.99991 -3.41076,-0.40719 -5.43995,-2.01723 -7.23138,-5.73765 -0.89467,-1.85802 -0.90284,-1.90443 -0.90284,-5.125 0,-3.04693 0.0434,-3.33832 0.69413,-4.66348 0.91474,-1.8627 3.75781,-4.57833 5.19964,-4.96658 2.27991,-0.61391 14.97122,-0.72615 82.23123,-0.72722 69.7584,-10e-4 98.47642,0.21054 100.32122,0.73936 1.40661,0.40321 3.44758,2.58038 4.59459,4.9012 0.95184,1.92591 0.95919,1.96389 0.95919,4.95375 0,2.91614 -0.0268,3.06633 -0.83351,4.67343 -1.17616,2.34306 -4.58319,6.03213 -5.77789,6.25619 -3.48799,0.65415 -77.5796,1.07588 -122.2636,0.69591 z"
       id="path2219" />
    <path
       style="fill:#6b6a31;fill-opacity:1;stroke-width:0.250394"
       d="m 226,353.38422 c -55.10256,-0.47566 -59.73327,-0.61587 -61.87926,-1.8735 -1.54499,-0.90542 -3.05568,-2.69805 -4.07819,-4.83927 -0.91115,-1.90804 -0.91755,-1.94414 -0.91755,-5.17145 0,-3.04693 0.0434,-3.33832 0.69413,-4.66348 0.91474,-1.8627 3.75781,-4.57833 5.19964,-4.96658 2.27991,-0.61391 14.97122,-0.72615 82.23123,-0.72722 69.7584,-10e-4 98.47642,0.21054 100.32122,0.73936 1.40661,0.40321 3.44758,2.58038 4.59459,4.9012 0.95253,1.92731 0.95919,1.9618 0.95919,4.96681 0,2.9389 -0.0242,3.07364 -0.83948,4.67994 -1.18647,2.33753 -4.58677,6.01335 -5.77192,6.23962 -3.31329,0.63256 -78.42284,1.07792 -120.5136,0.71457 z"
       id="path2221" />
    <path
       style="fill:#6b6a31;fill-opacity:1;stroke-width:0.250394"
       d="m 223.375,353.37786 c -52.09414,-0.45872 -57.12127,-0.61713 -59.25426,-1.86714 -1.54499,-0.90542 -3.05568,-2.69805 -4.07819,-4.83927 -0.91115,-1.90804 -0.91755,-1.94414 -0.91755,-5.17145 0,-3.04693 0.0434,-3.33832 0.69413,-4.66348 0.91474,-1.8627 3.75781,-4.57833 5.19964,-4.96658 2.28139,-0.61431 14.99005,-0.72607 82.48123,-0.72535 70.32587,7.6e-4 98.24676,0.20568 100.07122,0.73448 1.40777,0.40802 3.44956,2.5874 4.59459,4.90421 0.95253,1.92731 0.95919,1.9618 0.95919,4.96681 0,2.95456 -0.0204,3.06613 -0.86195,4.7242 -1.19165,2.34774 -4.5477,5.96274 -5.75421,6.1982 -3.25813,0.63585 -80.66845,1.0793 -123.13384,0.70537 z"
       id="path2223" />
    <path
       style="fill:#6b6a31;fill-opacity:1;stroke-width:0.250394"
       d="m 219.625,353.3664 c -28.14773,-0.25729 -49.50411,-0.6676 -52.36578,-1.00608 -3.40545,-0.40281 -5.46931,-2.02974 -7.21667,-5.68887 -0.91115,-1.90804 -0.91755,-1.94414 -0.91755,-5.17145 0,-3.04693 0.0434,-3.33832 0.69413,-4.66348 0.91474,-1.8627 3.75781,-4.57833 5.19964,-4.96658 2.28139,-0.61431 14.99005,-0.72607 82.48123,-0.72535 70.86869,7.6e-4 98.2406,0.20435 100.10785,0.74459 1.40787,0.40733 3.39728,2.54562 4.56318,4.90467 0.94603,1.91415 0.95397,1.95535 0.95397,4.94844 0,2.88997 -0.034,3.08705 -0.79883,4.63797 -1.03371,2.096 -4.60749,6.04859 -5.68796,6.29089 -0.41977,0.0941 -5.76946,0.24397 -11.88821,0.33298 -6.11875,0.089 -11.51875,0.20727 -12,0.26279 -1.92353,0.22192 -81.34722,0.29853 -103.125,0.0995 z"
       id="path2225" />
    <path
       style="fill:#6b6a31;fill-opacity:1;stroke-width:0.250394"
       d="m 160.75,334.41816 c 0,-0.48735 2.77567,-2.72171 3.74002,-3.01063 2.17263,-0.65094 7.25998,-1.0241 7.25998,-0.53253 0,0.1375 -0.59063,0.252 -1.3125,0.25444 -2.27583,0.008 -5.61585,0.44567 -6.36902,0.83515 -0.39865,0.20614 -1.30838,0.89949 -2.02164,1.54078 -0.71326,0.64128 -1.29684,1.05204 -1.29684,0.91279 z"
       id="path2227" />
    <path
       style="fill:#6b6a31;fill-opacity:1;stroke-width:0.0885275"
       d="m 214.12077,353.76782 c -25.51087,-0.1458 -45.27831,-0.43219 -47.92437,-0.69431 -0.59502,-0.0589 -0.85634,-0.13895 -1.45775,-0.44632 -3.26679,-1.66959 -5.54157,-4.86547 -6.21601,-8.733 -0.46409,-2.66127 -0.07,-5.55348 1.06285,-7.80063 0.38738,-0.76841 1.01061,-1.6901 1.10384,-1.63248 0.047,0.029 0.1692,0.008 0.27159,-0.0468 0.32678,-0.17489 0.29209,-0.017 -0.0921,0.41908 -0.9107,1.03374 -1.61107,2.51931 -1.91545,4.06295 -0.21149,1.07259 -0.21656,3.81441 -0.009,4.9344 0.50863,2.74601 1.46426,4.57532 3.37071,6.45235 1.50416,1.48095 2.17988,1.85032 3.8703,2.11561 3.01408,0.47304 9.81186,0.62232 42.58796,0.93524 21.11116,0.20155 31.45537,0.26711 50.93378,0.32279 11.21759,0.0321 20.39561,0.0915 20.39561,0.1322 0,0.0879 -49.69052,0.0721 -65.9819,-0.021 z"
       id="path2229" />
    <path
       style="fill:#6b6a31;fill-opacity:1;stroke-width:0.0442638"
       d="m 337.5449,331.21042 c -10.6663,-0.15356 -15.85603,-0.20923 -24.40708,-0.2618 -22.37593,-0.13755 -22.36181,-0.13739 -23.13565,-0.26725 -0.28934,-0.0486 -0.48614,-0.13871 -0.48614,-0.22271 0,-0.087 0.29906,-0.16933 0.79973,-0.22011 1.71721,-0.17416 30.60195,-0.0183 41.53829,0.22412 5.02779,0.11145 8.6638,0.26777 10.82757,0.46548 0.92041,0.0841 2.10929,0.23392 2.25391,0.28402 0.1316,0.0456 -4.17284,0.0446 -7.39063,-0.002 z"
       id="path2231" />
    <path
       style="fill:#6b6a31;fill-opacity:1;stroke-width:0.0442638"
       d="m 344.53778,331.10031 c -2.77333,-0.43262 -9.02284,-0.67258 -21.2132,-0.81452 -13.09857,-0.15252 -31.70692,-0.20865 -32.89066,-0.0992 -0.72148,0.0667 -0.93431,0.12507 -0.95374,0.26155 -0.031,0.21748 0.30985,0.29546 1.60475,0.3672 0.43752,0.0242 3.98741,0.0633 7.88866,0.0868 13.72483,0.0827 22.62988,0.14679 25.0139,0.18003 1.84438,0.0257 1.43028,0.0289 -1.76777,0.0138 -2.29699,-0.0109 -7.40805,-0.0382 -11.3579,-0.0607 -3.94986,-0.0225 -9.07255,-0.0414 -11.38376,-0.0419 -2.31121,-5.6e-4 -5.54788,-0.0142 -7.1926,-0.0304 l -2.9904,-0.0294 v -0.45678 -0.45678 l 8.05439,7.5e-4 c 8.96657,8.3e-4 21.64824,0.0627 26.81481,0.13077 10.0109,0.13194 15.68171,0.34966 19.62222,0.75338 1.17113,0.11998 1.23743,0.13085 1.23743,0.20288 0,0.0701 0.0125,0.0703 -0.48613,-0.007 z"
       id="path2233" />
    <path
       style="fill:#6b6a31;fill-opacity:1;stroke-width:0.0442638"
       d="m 291.6484,353.63139 c 0.11546,-0.009 0.30439,-0.009 0.41985,0 0.11545,0.009 0.021,0.0165 -0.20993,0.0165 -0.23091,0 -0.32538,-0.007 -0.20992,-0.0165 z"
       id="path2235" />
    <path
       style="fill:#6b6a31;fill-opacity:1;stroke-width:0.0442638"
       d="m 288.80893,353.81034 v -0.13183 l 7.37038,-0.0297 c 10.16328,-0.0409 18.8315,-0.12566 25.77525,-0.2519 3.78934,-0.0689 21.10868,-0.43157 22.15233,-0.46388 0.90713,-0.0281 0.91702,-0.0274 0.91702,0.0631 0,0.11333 -0.0203,0.11798 -0.88388,0.20224 -4.86863,0.47503 -14.93235,0.6394 -43.69699,0.71371 l -11.63411,0.0301 z"
       id="path2237" />
    <path
       style="fill:#6b6a31;fill-opacity:1;stroke-width:0.0442638"
       d="m 288.80893,353.8253 v -0.10655 l 3.28141,-0.0267 c 1.80478,-0.0147 5.5983,-0.0375 8.43004,-0.0507 8.12128,-0.0379 16.59298,-0.13026 22.34016,-0.24341 4.83,-0.0951 11.18441,-0.22561 15.05289,-0.30917 6.85733,-0.14811 7.06629,-0.151 7.06629,-0.0976 0,0.0852 -0.0802,0.10498 -0.67636,0.16678 -4.79636,0.49721 -13.70942,0.63682 -47.7936,0.74862 l -7.70083,0.0253 z"
       id="path2239" />
    <path
       style="fill:#6b6a31;fill-opacity:1;stroke-width:0.0110659"
       d="m 270.6976,353.93733 -2.28429,-0.003 v -0.0425 -0.0425 l 3.37257,-0.008 c 3.70591,-0.008 7.58788,-0.0267 8.03231,-0.0381 l 0.28451,-0.007 v 0.0746 0.0746 l -3.56039,-0.003 c -1.95822,-0.002 -4.58833,-0.004 -5.84468,-0.006 z"
       id="path2241" />
    <path
       style="fill:#6b6a31;fill-opacity:1;stroke-width:0.0110659"
       d="m 279.61101,353.76807 c -0.84547,-0.0203 -4.15366,-0.0479 -7.86656,-0.0657 -1.40372,-0.007 -2.72871,-0.0165 -2.94444,-0.0217 -0.23306,-0.006 1.32717,-0.008 3.8449,-0.005 2.33041,0.003 4.96176,0.005 5.84744,0.005 h 1.61032 v 0.0497 0.0497 l -0.0746,-0.002 c -0.041,-9.9e-4 -0.22871,-0.005 -0.41709,-0.01 z"
       id="path2243" />
    <path
       style="fill:#6b6a31;fill-opacity:1;stroke-width:0.022;stroke-dasharray:none"
       d="m 347.89038,352.22204 c 0.85173,-0.90434 2.27663,-2.43905 2.48757,-2.67927 2.63177,-2.99722 3.56721,-6.13853 2.93046,-9.84083 -0.18753,-1.09033 -0.52281,-2.0937 -1.06074,-3.17436 -1.05909,-2.12762 -2.60374,-3.83691 -4.16331,-4.60707 -0.47458,-0.23437 -0.58725,-0.26688 -1.10485,-0.31879 -1.85699,-0.18625 -9.23028,-0.34883 -20.15255,-0.44438 -3.52488,-0.0308 -3.5955,-0.032 -2.58536,-0.0431 0.59474,-0.007 0.7762,-0.0135 0.58558,-0.0226 -0.6772,-0.0322 -0.51556,-0.0306 7.54615,0.0774 2.24838,0.0301 4.84368,0.0648 5.76734,0.0771 3.17974,0.0423 6.14402,0.0639 6.62218,0.0482 0.56364,-0.0186 0.63284,-0.0387 0.34771,-0.101 -0.078,-0.0171 -0.12946,-0.032 -0.11427,-0.0333 0.0152,-10e-4 0.0276,-0.0271 0.0276,-0.0575 0,-0.0702 0.004,-0.0702 0.50201,5.2e-4 2.90842,0.41279 4.53103,1.02518 5.41586,2.044 0.34513,0.39739 0.62297,0.88291 1.09979,1.92191 0.11992,0.2613 0.33048,0.70262 0.46792,0.98073 0.37826,0.76544 0.52933,1.12269 0.74863,1.77035 0.8632,2.54936 0.88774,5.3049 0.0695,7.81132 -0.61207,1.875 -1.58021,3.4629 -2.94457,4.82957 -0.5622,0.56315 -1.08322,0.99864 -1.73526,1.45041 -0.34957,0.24219 -0.97307,0.61432 -1.02931,0.61432 -0.008,0 0.11446,-0.13673 0.27185,-0.30384 z"
       id="path2245" />
  </g>
</svg>
