<?xml version="1.0" encoding="UTF-8" standalone="no"?>
<!-- Created with Inkscape (http://www.inkscape.org/) -->

<svg
   version="1.1"
   id="svg2"
   width="504"
   height="503.88336"
   viewBox="0 0 504 503.88336"
   xml:space="preserve"
   xmlns="http://www.w3.org/2000/svg"
   xmlns:svg="http://www.w3.org/2000/svg"><defs
     id="defs6" /><g
     id="g8"
     transform="translate(-5.1094608,-4.9948745)"><path
       style="fill:#0a588f;fill-opacity:1"
       d="m 345.37732,506.91883 c -9.24008,-3.32562 -15.71281,-9.40638 -20.01447,-18.80244 -3.51631,-7.68064 -3.16844,-15.75843 1.5823,-36.7423 2.67755,-11.82662 3.51641,-17.2266 2.75656,-17.74464 -0.60074,-0.40954 -10.86801,-0.72079 -22.81616,-0.69166 -24.20645,0.059 -26.88619,-0.50059 -33.61835,-7.02053 -7.68267,-7.44048 -9.54012,-20.15762 -4.32531,-29.6134 l 2.79621,-5.07022 -2.42257,-3.82782 c -2.63333,-4.16081 -3.93058,-12.85621 -2.80952,-18.83198 0.36099,-1.92422 1.79158,-5.17146 3.17909,-7.21607 2.26882,-3.3433 2.37065,-3.88555 1.01169,-5.38718 -4.20613,-4.64772 -5.81157,-15.14864 -3.55701,-23.26586 0.56053,-2.01815 3.03058,-5.90655 5.48898,-8.64089 l 4.46983,-4.97152 -1.49457,-3.577 c -4.64832,-11.12501 2.3487,-26.74263 13.96961,-31.1807 3.58211,-1.36802 10.10697,-1.52658 50.0773,-1.21698 l 45.95853,0.35599 7.5,2.57694 c 4.125,1.41732 11.55,4.16814 16.5,6.11294 9.71775,3.818 21.98446,6.71058 28.45784,6.71058 h 4.04216 v -5.54545 c 0,-4.55444 0.43865,-5.98411 2.45455,-8 l 2.45454,-2.45455 25.29546,-0.11329 c 13.9125,-0.0623 26.86686,-0.0935 28.78747,-0.0693 2.49448,0.0314 4.13704,0.79388 5.75,2.66906 l 2.25798,2.62506 v 69.88847 69.88847 l -2.25,2.59561 -2.25,2.59561 -28.25169,-0.006 c -17.15569,-0.003 -28.99523,-0.40349 -30.14482,-1.01873 -1.04122,-0.55725 -2.36705,-2.37267 -2.94629,-4.03428 l -1.05316,-3.02068 h -8.72899 c -8.13939,0 -9.28701,0.2701 -16.99053,3.99882 -9.83171,4.75882 -19.42821,13.80355 -24.10344,22.71758 -1.66836,3.18098 -6.07583,15.0086 -9.79437,26.2836 -6.33633,19.2124 -7.03224,20.76322 -11.0796,24.69078 -6.69831,6.50003 -15.91226,8.03478 -26.13925,4.35396 z m 14.6075,-15.9201 c 1.03145,-1.03145 4.68758,-10.36895 8.12473,-20.75 7.13684,-21.55501 10.91221,-29.45449 18.43717,-38.57734 5.71978,-6.93436 11.82186,-11.83704 20.56274,-16.52104 9.3081,-4.98795 14.47634,-6.27626 25.17814,-6.27626 h 9.82186 v -47 -47 h -6.37178 c -7.57181,0 -21.66791,-3.42185 -34.12822,-8.28467 -19.29979,-7.53204 -15.5879,-7.09216 -63.11271,-7.47923 l -43.11271,-0.35114 -2.72588,3.23954 c -2.1395,2.54264 -2.5995,3.89952 -2.13837,6.30752 0.67822,3.54154 4.78084,7.56798 7.71118,7.56798 7.42127,0 11.37948,8.035 6.62849,13.45558 -2.00971,2.29294 -3.08859,2.59454 -10.10228,2.82401 -7.19812,0.23551 -8.05204,0.48914 -10.25,3.04443 -4.65976,5.41729 -1.72369,13.1205 5.43731,14.26559 4.30174,0.68788 6.36413,2.02034 8.06302,5.20936 2.44856,4.59623 -1.91378,11.20103 -7.39805,11.20103 -2.72478,0 -6.29209,2.24828 -7.38973,4.65732 -2.82482,6.19981 -0.34771,10.55032 7.2677,12.76418 6.31405,1.83554 8.02203,3.56486 8.02203,8.12221 0,4.42149 -2.78482,7.33428 -7.77495,8.13224 -8.52347,1.36295 -11.63129,9.61667 -5.54832,14.73516 l 3.07672,2.58889 22.17328,0.022 c 24.44381,0.0242 27.972,0.72848 32.50229,6.48781 4.90263,6.23267 4.92247,8.81339 0.23205,30.17497 -4.8455,22.06784 -4.91669,26.19364 -0.55071,31.91772 2.85256,3.73991 9.30997,7.33722 13.23964,7.37558 1.2375,0.0121 3.09391,-0.82195 4.12536,-1.8534 z M 493.10946,357.87409 v -59 h -17 -17 v 59 59 h 17 17 z m -22.54545,-36.45455 c -5.19531,-5.1953 -1.93934,-13.54545 5.28176,-13.54545 3.99679,0 8.26369,3.98769 8.26369,7.72295 0,3.26446 -5.12855,8.27705 -8.46853,8.27705 -1.45092,0 -3.71886,-1.09648 -5.07692,-2.45455 z M 139.76074,432.70015 c -11.58126,-0.88206 -16.55999,-2.12811 -31.96871,-8.00093 -14.264673,-5.43678 -22.48961,-7.5715 -30.68257,-7.9634 l -5.5,-0.26309 -0.173308,4.45068 c -0.09532,2.44787 -0.20782,5.15333 -0.25,6.01212 -0.04218,0.85879 -0.994222,2.54629 -2.115647,3.75 -2.006301,2.15351 -2.499983,2.18856 -30.825686,2.18856 H 9.4580889 l -2.1743141,-2.31445 -2.174314,-2.31445 v -70.68555 c 0,-69.35222 0.037726,-70.72328 2,-72.68555 1.1,-1.1 2.7875,-2.02347 3.7500002,-2.05216 13.835628,-0.41236 55.997377,0.38178 57.300694,1.07929 0.956416,0.51186 2.228101,2.33387 2.825968,4.04891 l 1.08703,3.11826 9.268154,-0.35849 c 8.19526,-0.317 10.076186,-0.76235 16.248319,-3.84715 8.734234,-4.36534 17.890514,-12.84458 22.752914,-21.07054 2.20716,-3.73394 6.44232,-14.51157 10.36106,-26.36677 3.64539,-11.02824 7.72168,-21.6775 9.05844,-23.66502 5.66963,-8.42973 18.07479,-11.20515 30.05253,-6.7237 7.89514,2.95395 16.17831,11.23712 19.13226,19.13226 3.12908,8.36321 2.76477,15.42776 -1.83868,35.65454 -3.04666,13.38652 -3.68348,17.63227 -2.73502,18.23469 0.67998,0.43189 11.26676,0.79215 23.52617,0.80057 19.98748,0.0137 22.67853,0.21361 26.05291,1.93508 8.44138,4.30648 14.15725,13.20389 14.15725,22.03741 0,5.17235 -2.18019,12.47946 -4.48249,15.02347 -1.25148,1.38287 -1.06109,2.31098 1.52633,7.44057 4.40451,8.732 3.91834,18.38807 -1.30315,25.88252 -1.72214,2.4718 -1.78159,3.00455 -0.50217,4.5 2.59028,3.02763 4.76199,10.11458 4.73952,15.4665 -0.0269,6.3979 -2.54976,12.23481 -7.37303,17.05808 l -3.62608,3.62609 1.67181,6.01319 c 1.4202,5.10815 1.48873,6.83132 0.45535,11.44894 -1.55201,6.93511 -5.73335,12.6924 -11.81393,16.2666 l -4.79216,2.81686 -37,0.5 c -20.35,0.275 -40.98192,0.19673 -45.84872,-0.17394 z M 55.10946,357.87409 v -59 h -17 -17 v 59 59 h 17 17 z m -22.545455,47.54545 c -7.229836,-7.22983 2.841406,-17.8201 10.910596,-11.47287 3.642358,2.86508 3.637271,8.09391 -0.01116,11.47517 -3.439294,3.18743 -7.710606,3.18653 -10.899432,-0.002 z m 188.090905,9 c 2.38798,-2.38797 2.86587,-3.91689 2.51478,-8.04545 -0.2172,-2.55399 -4.56731,-6.5 -7.16565,-6.5 -2.78428,0 -7.52972,-2.6068 -8.2734,-4.5448 -1.17792,-3.06962 -0.61593,-7.08371 1.27606,-9.11453 1.45946,-1.56654 3.62273,-2.16695 9.37495,-2.60199 4.11273,-0.31104 8.40195,-1.14274 9.53159,-1.84821 2.33313,-1.45707 4.19622,-5.01541 4.19622,-8.01445 0,-3.1039 -5.32391,-7.87602 -8.78671,-7.87602 -1.84383,0 -3.92384,-0.98328 -5.57693,-2.63636 -5.25794,-5.25795 -2.08815,-12.39615 6.08501,-13.70309 6.99413,-1.11841 10.48099,-8.07123 6.732,-13.42367 -0.90102,-1.28638 -3.81937,-2.86883 -6.99121,-3.7909 -7.60305,-2.21027 -9.97971,-6.02121 -7.35189,-11.78866 1.18912,-2.60982 4.71218,-4.65732 8.01371,-4.65732 2.85378,0 7.87602,-5.32215 7.87602,-8.34635 0,-1.37511 -1.14034,-3.85542 -2.53409,-5.5118 l -2.5341,-3.0116 -23.7159,-0.31512 c -21.798,-0.28965 -23.99868,-0.48124 -27.21251,-2.3692 -1.92313,-1.12973 -4.49968,-3.54252 -5.72565,-5.36175 -3.97011,-5.89123 -3.90891,-8.9488 0.59108,-29.53154 2.29101,-10.47895 4.15775,-20.30807 4.14832,-21.84248 -0.02,-3.2618 -2.98761,-9.47159 -5.69734,-11.92202 -4.14476,-3.74814 -12.13736,-5.8246 -15.1253,-3.92952 -0.71802,0.4554 -3.93714,8.66101 -7.1536,18.23469 -7.90022,23.51474 -9.47369,27.28451 -14.61843,35.02329 -7.91678,11.90854 -21.09233,22.4295 -34.470423,27.52538 -2.661068,1.01363 -8.877176,1.92961 -15.452057,2.27693 l -11,0.58109 -0.223143,46.1814 -0.223144,46.1814 5.723144,0.55699 c 12.002872,1.16815 23.081326,3.88768 35.675073,8.75752 19.82391,7.66563 19.71881,7.65318 65.34352,7.74319 l 40.29546,0.0795 z M 26.10946,187.22945 C 17.742728,184.33248 12.505935,179.44339 8.0553946,170.37409 l -2.944356,-6 0.055084,-67.500002 C 5.2163656,35.305609 5.3724785,29.022594 6.9426702,25.374091 11.290883,15.270569 16.501497,10.160919 26.192648,6.4971128 30.279084,4.9522071 47.663762,4.8477559 258.60946,5.1006986 l 228,0.2733922 5.12335,2.702667 c 6.54337,3.4517542 12.74941,10.5049632 15.3433,17.4377512 1.96895,5.262472 2.03335,7.522709 2.03335,71.359579 0,63.836872 -0.0644,66.097112 -2.03335,71.359582 -2.58949,6.92104 -8.28343,13.39227 -15.11124,17.17412 l -5.35541,2.9663 -228,0.20674 c -204.204105,0.18516 -228.469656,0.0441 -232.5,-1.35138 z M 485.7244,170.3123 c 1.51881,-1.13398 3.68929,-3.30448 4.82327,-4.82333 2.03356,-2.72373 2.06179,-3.66329 2.06179,-68.614882 0,-64.951583 -0.0282,-65.891151 -2.06179,-68.614878 -1.13398,-1.518848 -3.30446,-3.689347 -4.82327,-4.82333 l -2.76149,-2.061789 -224.5975,-0.256536 -224.597498,-0.256536 -4.442637,2.150643 c -3.308706,1.601718 -4.918561,3.198624 -6.307264,6.256537 -1.755968,3.866625 -1.865907,7.802463 -1.886589,67.540169 -0.02175,62.834002 -0.0017,63.476182 2.122146,67.863412 1.593988,3.29274 3.197566,4.90845 6.25,6.2973 3.975256,1.80872 11.25437,1.86079 228.782622,1.63659 l 224.67672,-0.23158 z M 89.60946,155.10607 c -3.031169,-0.65419 -6.5,-4.30181 -6.5,-6.83503 0,-1.23992 1.167259,-9.52497 2.59391,-18.4112 l 2.59391,-16.15679 -8.34391,-8.53169 C 63.051067,87.88865 63.972643,89.098726 64.306728,84.626522 64.768833,78.440595 67.083,77.332611 85.10946,74.666521 l 15.5,-2.29243 8,-16 c 6.4296,-12.859191 8.57316,-16.272064 10.91981,-17.385954 2.55822,-1.214315 3.30731,-1.177273 6.04879,0.29911 2.57035,1.384227 4.46811,4.488181 10.62977,17.385955 l 7.50079,15.700889 15.36876,2.245292 c 15.46711,2.25966 19.02189,3.498635 21.08193,7.347848 2.05414,3.838192 -0.0664,7.245127 -12.07361,19.398239 l -11.8645,12.00862 2.43158,14.5 c 3.59667,21.44764 3.31019,24.5754 -2.47018,26.9697 -3.41913,1.41625 -4.60243,0.93404 -22.72283,-9.25985 -5.58234,-3.14042 -10.5933,-5.70985 -11.13549,-5.70985 -0.54218,0 -6.32482,2.99147 -12.8503,6.64772 -13.814371,7.74022 -17.132147,9.17397 -19.86452,8.58426 z m 21.07931,-27.76237 c 12.1255,-6.9354 11.19076,-6.97119 25.17069,0.9638 7.32631,4.15841 7.10892,4.58342 4.82503,-9.43341 -1.73293,-10.63541 -1.15426,-12.18804 7.81597,-20.971112 3.63495,-3.55911 6.609,-6.82161 6.609,-7.249999 0,-0.428388 -1.2375,-0.778965 -2.75,-0.779059 -3.31725,-2.07e-4 -18.0336,-2.748049 -19.46919,-3.635298 -0.56181,-0.347214 -3.18184,-5.13984 -5.8223,-10.65028 l -4.80084,-10.018981 -4.46492,9.554674 c -2.60705,5.57892 -5.44856,10.177331 -6.82884,11.051064 -1.30015,0.823014 -6.41391,2.046152 -11.36391,2.718084 -4.95,0.671932 -9.360422,1.433242 -9.800937,1.691799 -0.440515,0.258557 2.821985,4.243824 7.25,8.856146 5.296577,5.517032 8.044967,9.163832 8.033477,10.659502 -0.01,1.2504 -0.68289,6.32346 -1.49619,11.27346 -1.5724,9.57003 -1.67487,10.5 -1.15704,10.5 0.18112,0 3.89362,-2.03867 8.25,-4.53039 z m 111.27675,27.03751 c -4.56895,-2.52275 -4.76682,-5.35967 -1.67084,-23.95468 l 2.8217,-16.94755 -11.92383,-12.06107 c -6.78344,-6.86152 -12.21377,-13.216312 -12.5964,-14.740816 -0.68097,-2.713221 1.74463,-8.306763 3.96039,-9.132817 0.57911,-0.215896 8.02792,-1.424435 16.55292,-2.685643 8.525,-1.261209 16.01754,-2.78618 16.65009,-3.388825 0.63254,-0.602645 4.18211,-7.69578 7.88792,-15.762522 5.6291,-12.253338 7.26313,-14.949695 9.9301,-16.385954 2.80392,-1.510013 3.54747,-1.550547 6.11208,-0.333196 2.34602,1.113592 4.49194,4.528498 10.91981,17.377232 l 8,15.991278 15.5,2.306914 c 18.00505,2.679749 20.34164,3.795719 20.80136,9.934843 0.33473,4.470081 1.08554,3.475565 -15.14353,20.058976 l -8.84217,9.03522 2.59217,15.41501 c 1.42569,8.47825 2.59217,16.81194 2.59217,18.51931 0,5.14099 -5.67646,9.08108 -10.46186,7.26167 -1.35402,-0.5148 -8.12097,-4.10366 -15.03768,-7.97525 -6.9167,-3.87159 -13.05101,-7.03925 -13.6318,-7.03925 -0.5808,0 -7.06396,3.36018 -14.40704,7.46707 -7.34308,4.10689 -14.38843,7.69946 -15.65634,7.98349 -1.2679,0.28402 -3.49505,-0.14052 -4.94922,-0.94344 z m 27.46078,-29.47262 c 7.01779,-3.93037 8.3054,-3.77851 19.18316,2.26247 4.4,2.44355 8.13536,4.09527 8.30081,3.67051 0.16544,-0.42477 -0.39562,-4.75373 -1.24681,-9.6199 -0.85119,-4.86617 -1.54905,-9.91506 -1.55081,-11.21977 -0.002,-1.6221 2.5808,-5.01951 8.1689,-10.744572 4.49465,-4.604815 7.98215,-8.53465 7.75,-8.732965 -0.23215,-0.198316 -4.69709,-0.916962 -9.92209,-1.596993 -5.225,-0.680031 -10.5406,-1.898997 -11.81244,-2.708815 -1.32381,-0.842909 -4.21332,-5.567947 -6.75867,-11.052057 l -4.44622,-9.57966 -4.96828,10.159613 c -5.66879,11.59206 -5.52827,11.493963 -19.04092,13.29305 -4.93541,0.657105 -8.97347,1.464203 -8.97347,1.793551 0,0.329349 2.9587,3.510816 6.57488,7.069926 9.53817,9.387642 9.75756,9.973232 7.93848,21.189502 -2.19314,13.52266 -2.2181,13.36442 1.73664,11.0093 1.7875,-1.06448 5.86758,-3.40142 9.06684,-5.19319 z m 116.06681,29.70572 c -5.20808,-2.73411 -5.37575,-5.10605 -1.83839,-26.00763 l 2.54525,-15.03946 -11.48824,-11.63151 c -11.93651,-12.085371 -14.1613,-15.470434 -12.69228,-19.311619 1.72161,-4.501685 4.14606,-5.44236 20.09001,-7.794863 8.525,-1.257848 15.96411,-2.635773 16.53136,-3.062054 0.56724,-0.426281 4.13486,-7.538359 7.92805,-15.804618 5.97085,-13.011939 7.33138,-15.235838 10.13479,-16.566142 3.62101,-1.718284 6.8307,-1.004847 9.50581,2.112914 0.88,1.02562 4.40922,7.939763 7.8427,15.364763 3.43349,7.425 6.76348,13.990928 7.39999,14.590951 0.63652,0.600024 7.9073,2.094348 16.1573,3.320721 15.6485,2.326169 18.96948,3.562743 20.51988,7.640627 1.52789,4.018633 -0.37348,6.955439 -12.56874,19.41338 l -11.52533,11.77359 2.53709,15.23257 c 1.39541,8.37791 2.5371,16.72943 2.5371,18.55893 0,5.30227 -5.57694,9.34098 -10.37807,7.51559 -1.30794,-0.49728 -8.05571,-4.08614 -14.99505,-7.97525 -6.93934,-3.88911 -13.07144,-7.07111 -13.62688,-7.07111 -0.55544,0 -6.74517,3.219 -13.75495,7.15334 -13.56841,7.61545 -17.84461,9.17062 -20.8614,7.58688 z m 30.50838,-31.38238 c 4.25832,-1.88731 6.00447,-1.43562 15.74038,4.07171 5.48455,3.10245 7.95924,4.04693 8.17017,3.11819 0.16641,-0.73275 -0.39465,-5.31825 -1.24681,-10.19001 -0.85216,-4.87175 -1.55082,-9.70021 -1.55258,-10.72992 -0.002,-1.0297 3.63043,-5.59486 8.07152,-10.144802 4.44109,-4.549946 7.70359,-8.490786 7.25,-8.757424 -0.45359,-0.266638 -4.87471,-1.034559 -9.82471,-1.706491 -4.95,-0.671932 -10.03188,-1.87418 -11.29306,-2.671662 -1.2964,-0.819748 -4.07484,-5.339487 -6.39244,-10.398699 -2.25465,-4.921802 -4.42001,-8.948731 -4.8119,-8.948731 -0.39189,0 -2.59451,4.050577 -4.89471,9.001282 -2.30019,4.950705 -5.17796,9.63012 -6.39503,10.398699 -1.21707,0.768579 -6.26286,1.947179 -11.21286,2.619111 -4.95,0.671932 -9.37009,1.439217 -9.82242,1.705079 -0.45234,0.265861 2.5216,3.924184 6.60875,8.129606 4.08715,4.205422 7.74594,8.645712 8.13064,9.867312 0.3847,1.2216 -0.002,6.2843 -0.85876,11.25044 -2.23882,12.97326 -2.4819,12.53549 4.69179,8.44953 3.4375,-1.95792 7.77641,-4.23637 9.64203,-5.06322 z"
       id="path860" /></g></svg>
