<?xml version="1.0" encoding="UTF-8" standalone="no"?>
<!-- Created with Inkscape (http://www.inkscape.org/) -->

<svg
   version="1.1"
   id="svg2"
   width="327.0658"
   height="485.875"
   viewBox="0 0 327.0658 485.875"
   xmlns="http://www.w3.org/2000/svg"
   xmlns:svg="http://www.w3.org/2000/svg">
  <defs
     id="defs6" />
  <g
     id="g8"
     transform="translate(-18.458927,-11.601854)">
    <path
       style="fill:#47657b;fill-opacity:1;stroke-width:1.0866"
       d="M 106.4733,495.58408 C 99.846062,492.46 21.522251,413.55617 20.089551,408.56065 c -1.634308,-5.6985 -1.478501,-229.76083 0.161935,-232.87741 1.691484,-3.21356 3.032171,-3.9671 7.093004,-3.98667 2.44804,-0.0118 4.107815,0.81637 5.704637,2.84639 2.245012,2.85408 2.252059,3.21047 2.252059,114.0494 v 111.18638 l 34.585943,0.31494 34.585951,0.31495 4.10652,3.13365 c 7.82973,5.97479 8.16555,7.81749 8.19252,44.95365 l 0.0239,32.87494 105.67156,-0.27702 105.67157,-0.27703 0.5433,-29.16413 c 0.54095,-29.0374 0.55445,-29.17314 3.10852,-31.23967 3.45455,-2.79509 7.01221,-2.6126 10.68502,0.54813 l 3.04872,2.62365 v 30.24592 c 0,34.24373 -0.12455,34.84337 -8.37167,40.30155 l -4.50796,2.9835 -110.91268,0.2586 c -106.70381,0.24879 -111.07763,0.18086 -115.25909,-1.79029 z M 99.410422,442.24262 V 416.16429 H 73.06892 46.727433 l 26.061356,26.07833 c 14.333742,14.34308 26.187416,26.07833 26.341493,26.07833 0.15407,0 0.28014,-11.73525 0.28014,-26.07833 z m 72.039808,3.30378 c -7.14238,-4.35496 -6.92634,-1.98476 -6.59778,-72.38192 l 0.29709,-63.65469 4.05878,-3.71909 4.05879,-3.71911 h 59.69543 59.69543 l 3.32353,2.79657 c 1.82796,1.53812 3.84914,4.59417 4.49153,6.79123 0.78986,2.7014 1.06006,23.71053 0.83458,64.89307 -0.37047,67.66311 0.009,64.28128 -7.72698,68.99777 -3.32652,2.02831 -5.89203,2.11725 -61.06207,2.11725 -55.20554,0 -57.73365,-0.0878 -61.06833,-2.12108 z m 114.59285,-70.40115 -0.28125,-57.318 h -52.69997 -52.69995 l -0.28126,57.318 -0.28126,57.318 h 53.26247 53.26248 z m 44.66125,5.25748 -2.56521,-2.07707 -0.5433,-144.3419 -0.5433,-144.341914 -32.72244,-0.28736 -32.72244,-0.28737 -0.55499,7.35025 c -0.67977,9.002774 -2.32395,12.732054 -6.84532,15.526414 -3.36496,2.07966 -5.66074,2.1465 -73.71799,2.1465 h -70.24486 l -4.04643,-3.70826 c -3.93803,-3.60894 -4.05711,-3.94365 -4.44548,-12.495874 l -0.39907,-8.7876 H 69.502804 c -17.517879,0 -32.624134,0.29679 -33.569448,0.65955 -1.494631,0.57354 -1.718771,3.75151 -1.718771,24.369584 v 23.71001 l -2.863031,2.25206 c -3.570017,2.80817 -7.00477,2.86583 -10.32741,0.17335 l -2.565217,-2.07871 v -25.90117 c 0,-28.682934 0.256915,-29.888166 7.536157,-35.353619 3.29718,-2.475616 3.682812,-2.503194 39.345991,-2.813015 l 36.016185,-0.312896 0.38911,-8.568558 c 0.3331,-7.334966 0.77959,-8.985952 3.10132,-11.467794 4.36219,-4.663023 6.38795,-5.281167 19.36184,-5.908188 l 12.30325,-0.594597 1.84377,-5.432985 c 5.14394,-15.157493 20.1872,-27.498556 36.26269,-29.748897 22.98614,-3.2177348 43.39155,9.939271 50.77237,32.737039 l 1.3192,4.07474 h 11.35991 c 18.39773,0 23.23083,3.660691 23.23861,17.60145 l 0.005,7.278777 35.04276,0.327403 c 32.75787,0.306051 35.28332,0.469094 38.73227,2.500596 2.02922,1.195258 4.71856,3.553641 5.97628,5.240844 l 2.28678,3.06767 0.28322,146.52313 0.28323,146.52312 -2.8746,2.26117 c -3.58039,2.81634 -7.01264,2.87746 -10.339,0.18412 z M 246.10103,82.578961 V 65.193406 h -10.60149 c -17.66457,0 -21.72748,-2.276931 -25.26633,-14.159751 -3.58333,-12.032108 -10.21278,-19.322438 -20.34331,-22.371283 -6.37482,-1.918537 -10.52573,-1.893149 -17.25607,0.105542 -9.81844,2.915761 -18.46509,12.86811 -20.38882,23.467637 -0.70084,3.861527 -4.47227,8.311522 -9.02762,10.65189 -1.31331,0.674733 -7.50134,1.219368 -13.85412,1.219368 h -11.4807 v 17.928853 17.928854 h 64.10923 64.10923 z M 66.812497,271.97026 c -5.598584,-2.0849 -7.351577,-9.27076 -3.259791,-13.36256 2.145938,-2.14593 3.621994,-2.17319 117.654024,-2.17319 129.06089,0 120.31076,-0.54543 120.31076,7.49939 0,2.80465 -0.7288,4.77597 -2.28707,6.18631 -2.2156,2.00529 -5.85697,2.07601 -116.53755,2.2635 -62.83776,0.10648 -114.983928,-0.0796 -115.880373,-0.41345 z m -2.551538,-46.02485 c -2.094533,-1.64755 -2.881444,-3.26208 -2.881444,-5.9119 0,-2.64982 0.786911,-4.26435 2.881444,-5.91191 l 2.881445,-2.26654 115.645386,0.28613 c 113.04953,0.27972 115.67999,0.33348 117.18753,2.39536 1.97981,2.70779 1.97981,8.28612 0,10.99391 -1.50754,2.06189 -4.138,2.11565 -117.18753,2.39536 L 67.142404,228.21195 Z M 96.039665,180.0794 c -6.421131,-4.28959 -7.628364,-8.15404 -7.267763,-23.26483 0.354089,-14.83819 1.490331,-17.66629 8.542554,-21.26231 3.448584,-1.75846 9.750334,-1.89968 84.677344,-1.89748 78.86191,0.002 81.0429,0.0582 84.49286,2.16157 6.94331,4.23339 7.99022,7.46201 7.63792,23.55517 -0.29674,13.55575 -0.45709,14.46692 -3.02981,17.21715 -5.82348,6.22527 -1.77517,5.95723 -89.97292,5.95723 H 99.731802 Z M 258.0536,157.01087 v -9.23608 H 181.44851 104.8434 v 9.23608 9.23608 h 76.60511 76.60509 z"
       id="path170" />
  </g>
</svg>
